{"glyphs":{"0":{"ha":997,"x_min":57,"x_max":938,"o":"m 497 986 q 676 960 597 986 q 810 887 754 933 q 897 776 865 840 q 933 636 928 713 q 936 567 935 607 q 938 488 938 528 q 936 408 938 447 q 933 342 935 369 q 898 200 928 265 q 814 88 868 135 q 681 13 760 40 q 497 -14 601 -14 q 314 13 393 -14 q 181 88 235 40 q 97 200 126 135 q 61 342 67 265 q 58 408 58 369 q 57 488 57 447 q 58 567 57 528 q 61 636 58 607 q 98 776 67 713 q 185 887 129 840 q 319 960 240 933 q 497 986 397 986 m 572 628 q 554 690 569 664 q 497 718 539 717 q 440 690 456 717 q 422 628 425 664 q 420 563 421 599 q 419 489 419 526 q 420 415 419 451 q 422 349 421 378 q 441 284 425 310 q 497 258 457 258 q 553 284 538 258 q 572 349 569 310 q 574 415 574 378 q 575 489 575 451 q 574 563 575 526 q 572 628 574 599 z "},"1":{"ha":774,"x_min":11,"x_max":696,"o":"m 696 38 q 685 11 696 22 q 658 0 674 0 l 386 0 q 360 11 371 0 q 349 38 349 22 l 349 599 l 193 479 q 165 472 179 468 q 140 490 151 476 l 18 649 q 14 678 11 663 q 31 703 17 694 l 365 963 q 396 972 379 972 l 658 972 q 685 961 674 972 q 696 935 696 950 l 696 38 z "},"2":{"ha":978,"x_min":49,"x_max":924,"o":"m 886 286 q 913 275 901 286 q 924 249 924 264 l 924 38 q 913 11 924 22 q 886 0 901 0 l 86 0 q 60 11 71 0 q 49 38 49 22 l 49 182 q 53 214 49 190 q 83 257 57 238 q 281 399 196 338 q 424 509 367 461 q 510 594 481 557 q 539 663 539 631 q 538 682 539 672 q 533 700 538 692 q 517 713 528 708 q 489 718 507 718 q 454 710 468 718 q 432 691 440 703 q 419 667 424 679 q 413 647 415 656 q 391 622 406 628 q 357 615 376 615 l 96 615 q 74 624 83 615 q 65 646 65 633 q 99 789 67 725 q 188 898 132 853 q 321 967 244 943 q 488 992 397 992 q 659 971 582 992 q 790 910 736 950 q 874 813 844 871 q 903 681 903 754 q 881 571 903 622 q 817 472 858 519 q 719 379 776 425 q 593 286 663 333 l 886 286 z "},"3":{"ha":985,"x_min":32,"x_max":938,"o":"m 688 592 q 785 557 739 579 q 865 501 831 535 q 918 418 899 467 q 938 304 938 369 q 903 173 938 232 q 809 72 869 114 q 665 8 749 31 q 483 -14 582 -14 q 272 16 358 -14 q 133 90 186 46 q 57 183 81 133 q 32 275 33 233 q 41 297 32 288 q 63 306 50 306 l 342 306 q 370 299 361 306 q 389 283 379 293 q 420 264 400 272 q 485 256 440 256 q 555 277 533 256 q 576 329 576 299 q 485 390 576 390 l 311 390 q 285 401 296 390 q 274 428 274 413 l 274 540 q 282 575 274 561 q 301 596 290 589 l 494 701 l 129 701 q 103 713 114 701 q 92 739 92 724 l 92 935 q 103 961 92 950 q 129 972 114 972 l 840 972 q 867 961 856 972 q 878 935 878 950 l 878 758 q 869 724 878 739 q 850 703 861 710 l 688 592 z "},"4":{"ha":1021,"x_min":36,"x_max":982,"o":"m 943 438 q 972 426 961 438 q 982 400 982 415 l 982 193 q 971 167 982 178 q 944 156 960 156 l 822 156 l 822 38 q 811 11 822 22 q 785 0 800 0 l 526 0 q 500 11 511 0 q 489 38 489 22 l 489 156 l 74 156 q 47 167 58 156 q 36 193 36 178 l 36 392 q 42 419 36 410 q 51 435 47 429 l 444 949 q 496 972 464 972 l 785 972 q 811 961 800 972 q 822 935 822 950 l 822 438 l 943 438 m 499 422 l 499 622 l 353 422 l 499 422 z "},"5":{"ha":958,"x_min":32,"x_max":922,"o":"m 393 303 q 428 267 413 279 q 479 254 444 254 q 538 276 513 254 q 564 340 564 297 q 542 399 564 372 q 479 425 519 425 q 444 419 457 425 q 422 408 431 414 q 406 397 413 401 q 390 392 399 392 l 114 392 q 92 401 101 392 q 83 422 83 410 q 83 422 83 425 q 83 429 82 418 l 139 925 q 158 960 142 949 q 193 972 174 972 l 814 972 q 840 961 829 972 q 851 935 851 950 l 851 739 q 840 713 851 724 q 814 701 829 701 l 408 701 l 397 603 q 435 624 417 615 q 476 639 454 633 q 523 647 497 644 q 583 650 549 650 q 708 626 647 650 q 817 560 769 603 q 893 458 864 517 q 922 331 922 400 q 894 199 922 261 q 810 88 867 136 q 671 12 754 40 q 478 -17 588 -17 q 284 8 367 -17 q 146 76 201 33 q 62 176 90 119 q 32 294 33 232 q 41 316 32 307 q 63 325 50 325 l 343 325 q 377 317 365 325 q 393 303 389 308 z "},"6":{"ha":961,"x_min":28,"x_max":932,"o":"m 572 692 q 685 667 622 689 q 802 603 747 644 q 894 499 857 561 q 932 353 932 436 q 899 207 932 274 q 807 91 867 140 q 665 14 747 42 q 486 -14 583 -14 q 304 10 388 -14 q 159 81 221 35 q 63 193 97 126 q 28 346 28 260 q 44 437 28 390 q 81 524 60 483 q 126 598 103 565 q 163 649 149 631 l 389 944 q 407 962 394 951 q 443 972 419 972 l 722 972 q 744 963 735 972 q 753 942 753 954 q 747 924 753 932 l 572 692 m 578 347 q 550 415 578 392 q 482 438 522 438 q 414 415 442 438 q 386 347 386 392 q 414 280 386 303 q 482 257 442 257 q 550 280 522 257 q 578 347 578 303 z "},"7":{"ha":868,"x_min":39,"x_max":832,"o":"m 794 972 q 822 961 811 972 q 832 935 832 950 l 832 751 q 826 711 832 728 q 814 681 821 694 l 511 32 q 494 13 507 25 q 454 0 481 0 l 186 0 q 165 9 174 0 q 156 31 156 18 q 158 43 156 38 l 458 688 l 76 688 q 50 699 61 688 q 39 725 39 710 l 39 935 q 50 961 39 950 q 76 972 61 972 l 794 972 z "},"8":{"ha":989,"x_min":50,"x_max":939,"o":"m 493 986 q 683 962 606 986 q 808 897 761 938 q 876 805 856 857 q 897 697 897 753 q 878 593 897 639 q 815 514 858 547 q 906 428 872 486 q 939 300 939 371 q 915 185 939 242 q 838 84 890 128 q 699 13 785 40 q 493 -14 614 -14 q 287 13 371 -14 q 150 85 203 40 q 74 186 97 129 q 50 303 50 243 q 84 428 50 372 q 171 514 118 483 q 85 694 85 576 q 106 802 85 750 q 174 895 126 854 q 301 961 222 936 q 493 986 379 986 m 590 301 q 563 362 590 340 q 493 383 535 383 q 424 362 451 383 q 396 301 396 340 q 424 241 396 263 q 493 219 451 219 q 563 241 535 219 q 590 301 590 263 m 582 676 q 558 730 582 708 q 493 751 535 751 q 428 730 451 751 q 406 676 406 708 q 428 623 406 644 q 493 601 451 601 q 558 623 535 601 q 582 676 582 644 z "},"9":{"ha":949,"x_min":29,"x_max":919,"o":"m 376 292 q 265 317 326 296 q 152 378 204 338 q 65 480 100 419 q 29 624 29 540 q 57 760 29 694 q 140 876 85 825 q 278 956 196 926 q 468 986 360 986 q 660 960 576 986 q 802 889 744 935 q 890 779 860 843 q 919 638 919 715 q 903 540 919 586 q 860 449 886 493 q 802 362 835 406 q 736 272 769 318 l 553 28 q 535 10 547 21 q 499 0 522 0 l 219 0 q 198 9 207 0 q 189 31 189 18 q 194 49 189 40 l 376 292 m 383 625 q 408 558 383 581 q 472 535 432 535 q 537 558 513 535 q 561 625 561 581 q 537 692 561 669 q 472 715 513 715 q 408 692 432 715 q 383 625 383 669 z "},"\u0000":{"ha":0,"x_min":0,"x_max":0,"o":""},"\r":{"ha":403,"x_min":0,"x_max":0,"o":""}," ":{"ha":258,"x_min":0,"x_max":0,"o":""},"¸":{"ha":392,"x_min":65,"x_max":322,"o":"m 219 38 l 168 -62 q 191 -58 176 -60 q 210 -56 206 -56 q 292 -90 263 -56 q 322 -181 322 -125 q 285 -271 322 -236 q 185 -306 247 -306 q 133 -299 157 -306 q 92 -281 108 -292 q 70 -258 75 -269 q 78 -235 65 -246 l 107 -210 q 122 -201 115 -201 q 137 -204 129 -201 q 156 -210 144 -207 q 185 -214 167 -214 q 214 -203 204 -214 q 224 -181 224 -193 q 215 -158 224 -168 q 185 -147 206 -147 q 165 -150 175 -147 q 144 -154 154 -153 q 126 -155 135 -156 q 110 -147 117 -154 l 81 -118 q 69 -100 71 -108 q 78 -72 68 -92 l 126 38 l 219 38 z "},"ˆ":{"ha":733,"x_min":69,"x_max":664,"o":"m 450 1063 q 476 1057 465 1063 q 501 1036 488 1051 l 657 867 q 664 849 664 860 q 642 826 664 826 l 550 826 q 523 828 536 826 q 494 836 510 829 l 367 894 l 239 836 q 210 828 224 829 q 183 826 197 826 l 92 826 q 69 849 69 826 q 76 867 69 860 l 232 1036 q 257 1057 246 1051 q 283 1063 268 1063 l 450 1063 z "},"":{"ha":453,"x_min":69,"x_max":383,"o":"m 99 -124 q 116 -87 101 -104 q 158 -69 131 -69 l 353 -69 q 374 -78 365 -69 q 383 -100 383 -87 q 382 -110 383 -106 l 306 -303 q 287 -332 300 -317 q 246 -347 274 -347 l 100 -347 q 78 -338 88 -347 q 69 -317 69 -329 l 69 -314 l 99 -124 z "},"¨":{"ha":707,"x_min":69,"x_max":638,"o":"m 274 1063 q 297 1053 288 1063 q 306 1031 306 1044 l 306 858 q 297 835 306 844 q 274 826 288 826 l 101 826 q 78 835 88 826 q 69 858 69 844 l 69 1031 q 78 1053 69 1044 q 101 1063 88 1063 l 274 1063 m 606 1063 q 628 1053 619 1063 q 638 1031 638 1044 l 638 858 q 628 835 638 844 q 606 826 619 826 l 433 826 q 410 835 419 826 q 401 858 401 844 l 401 1031 q 410 1053 401 1044 q 433 1063 419 1063 l 606 1063 z "},"˙":{"ha":385,"x_min":69,"x_max":315,"o":"m 283 1072 q 306 1063 297 1072 q 315 1040 315 1054 l 315 858 q 306 835 315 844 q 283 826 297 826 l 101 826 q 78 835 88 826 q 69 858 69 844 l 69 1040 q 78 1063 69 1054 q 101 1072 88 1072 l 283 1072 z "},"˝":{"ha":864,"x_min":72,"x_max":793,"o":"m 154 1036 q 172 1056 161 1050 q 206 1063 183 1063 l 410 1063 q 438 1036 438 1063 q 429 1018 438 1026 l 271 846 q 224 826 254 826 l 94 826 q 72 849 72 826 q 74 860 72 854 q 79 869 76 865 l 154 1036 m 510 1036 q 528 1056 517 1050 q 561 1063 539 1063 l 765 1063 q 793 1036 793 1063 q 785 1018 793 1026 l 626 846 q 579 826 610 826 l 450 826 q 428 849 428 826 q 430 860 428 854 q 435 869 432 865 l 510 1036 z "},"`":{"ha":625,"x_min":74,"x_max":556,"o":"m 549 867 q 556 849 556 860 q 533 826 556 826 l 343 826 q 308 833 321 826 q 285 850 296 840 l 81 1018 q 74 1035 74 1025 q 100 1063 74 1063 l 358 1063 q 384 1058 374 1063 q 410 1036 394 1054 l 549 867 z "},"¯":{"ha":657,"x_min":69,"x_max":588,"o":"m 556 1035 q 578 1026 569 1035 q 588 1003 588 1017 l 588 858 q 578 835 588 844 q 556 826 569 826 l 101 826 q 78 835 88 826 q 69 858 69 844 l 69 1003 q 78 1026 69 1017 q 101 1035 88 1035 l 556 1035 z "},"˛":{"ha":421,"x_min":56,"x_max":351,"o":"m 314 -136 q 340 -147 329 -136 q 351 -174 351 -158 l 351 -268 q 340 -294 351 -283 q 314 -306 329 -306 l 294 -306 q 187 -287 232 -306 q 113 -236 142 -268 q 69 -161 83 -204 q 56 -68 56 -118 q 69 25 56 -18 q 113 100 83 68 q 187 151 142 132 q 294 169 232 169 l 314 169 q 340 158 329 169 q 351 132 351 147 l 351 38 q 340 11 351 22 q 314 0 329 0 l 300 0 q 245 -23 260 0 q 231 -68 231 -46 q 245 -113 231 -90 q 300 -136 260 -136 l 314 -136 z "},"˚":{"ha":417,"x_min":69,"x_max":347,"o":"m 167 951 q 178 922 167 933 q 208 910 190 910 q 238 922 226 910 q 250 951 250 933 q 238 981 250 969 q 208 993 226 993 q 178 981 190 993 q 167 951 167 969 m 69 951 q 110 1047 69 1010 q 208 1083 150 1083 q 307 1047 267 1083 q 347 951 347 1010 q 307 856 347 893 q 208 819 267 819 q 110 856 150 819 q 69 951 69 893 z "},"˜":{"ha":704,"x_min":69,"x_max":635,"o":"m 446 819 q 392 827 414 819 q 353 844 371 835 q 319 862 335 854 q 282 869 303 869 q 257 863 265 869 q 242 848 249 856 q 230 833 236 840 q 213 826 224 826 l 96 826 q 77 833 85 826 q 69 851 69 840 q 78 913 69 875 q 107 985 86 950 q 165 1044 128 1019 q 258 1069 201 1069 q 311 1062 289 1069 q 351 1044 333 1054 q 385 1027 369 1035 q 422 1019 401 1019 q 446 1026 438 1019 q 460 1041 454 1033 q 474 1056 467 1049 q 492 1063 481 1063 l 608 1063 q 628 1055 621 1063 q 635 1036 635 1047 q 626 976 635 1013 q 597 904 618 939 q 540 844 576 869 q 446 819 503 819 z "},"":{"ha":639,"x_min":69,"x_max":565,"o":"m 215 1251 q 241 1274 231 1269 q 267 1278 251 1278 l 539 1278 q 565 1250 565 1278 q 558 1233 565 1240 l 354 1065 q 331 1049 343 1056 q 296 1042 318 1042 l 92 1042 q 69 1064 69 1042 q 76 1082 69 1075 l 215 1251 z "},"":{"ha":761,"x_min":78,"x_max":686,"o":"m 292 1042 q 265 1047 276 1042 q 240 1068 254 1053 l 85 1238 q 78 1256 78 1244 q 100 1278 78 1278 l 199 1278 q 226 1276 213 1278 q 254 1268 239 1275 l 382 1210 l 510 1268 q 538 1276 525 1275 q 565 1278 551 1278 l 664 1278 q 686 1256 686 1278 q 679 1238 686 1244 l 524 1068 q 499 1047 510 1053 q 472 1042 488 1042 l 292 1042 z "},"":{"ha":749,"x_min":69,"x_max":679,"o":"m 647 1278 q 670 1269 661 1278 q 679 1246 679 1260 l 679 1074 q 670 1051 679 1060 q 647 1042 661 1042 l 475 1042 q 452 1051 461 1042 q 443 1074 443 1060 l 443 1246 q 452 1269 443 1260 q 475 1278 461 1278 l 647 1278 m 274 1278 q 297 1269 288 1278 q 306 1246 306 1260 l 306 1074 q 297 1051 306 1060 q 274 1042 288 1042 l 101 1042 q 78 1051 88 1042 q 69 1074 69 1060 l 69 1246 q 78 1269 69 1260 q 101 1278 88 1278 l 274 1278 z "},"":{"ha":897,"x_min":69,"x_max":789,"o":"m 151 1251 q 169 1272 158 1265 q 203 1278 181 1278 l 421 1278 q 449 1251 449 1278 q 440 1233 449 1242 l 282 1061 q 235 1042 265 1042 l 92 1042 q 69 1064 69 1042 q 72 1075 69 1069 q 76 1085 74 1081 l 151 1251 m 492 1251 q 510 1272 499 1265 q 543 1278 521 1278 l 761 1278 q 789 1251 789 1278 q 781 1233 789 1242 l 622 1061 q 575 1042 606 1042 l 432 1042 q 410 1064 410 1042 q 412 1075 410 1069 q 417 1085 414 1081 l 492 1251 z "},"":{"ha":635,"x_min":69,"x_max":565,"o":"m 558 1082 q 565 1064 565 1075 q 543 1042 565 1042 l 339 1042 q 304 1049 317 1042 q 281 1065 292 1056 l 76 1233 q 69 1250 69 1240 q 96 1278 69 1278 l 368 1278 q 394 1274 383 1278 q 419 1251 404 1269 l 558 1082 z "},"":{"ha":726,"x_min":69,"x_max":657,"o":"m 625 1250 q 648 1241 639 1250 q 657 1218 657 1232 l 657 1074 q 648 1051 657 1060 q 625 1042 639 1042 l 101 1042 q 78 1051 88 1042 q 69 1074 69 1060 l 69 1218 q 78 1241 69 1232 q 101 1250 88 1250 l 625 1250 z "},"A":{"ha":1049,"x_min":0,"x_max":1049,"o":"m 675 972 q 718 957 703 972 q 738 926 733 942 l 1047 40 q 1049 31 1049 36 q 1040 9 1049 18 q 1018 0 1031 0 l 761 0 q 722 12 733 0 q 707 35 711 24 l 674 126 l 375 126 l 342 35 q 326 12 338 24 q 288 0 315 0 l 31 0 q 9 9 18 0 q 0 31 0 18 q 1 40 0 36 l 311 926 q 331 957 315 942 q 374 972 346 972 l 675 972 m 603 397 l 524 656 l 446 397 l 603 397 z "},"Á":{"ha":1049,"x_min":0,"x_max":1049,"o":"m 675 972 q 718 957 703 972 q 738 926 733 942 l 1047 40 q 1049 31 1049 36 q 1040 9 1049 18 q 1018 0 1031 0 l 761 0 q 722 12 733 0 q 707 35 711 24 l 674 126 l 375 126 l 342 35 q 326 12 338 24 q 288 0 315 0 l 31 0 q 9 9 18 0 q 0 31 0 18 q 1 40 0 36 l 311 926 q 331 957 315 942 q 374 972 346 972 l 675 972 m 603 397 l 524 656 l 446 397 l 603 397 m 532 1251 q 558 1274 547 1269 q 583 1278 568 1278 l 856 1278 q 882 1250 882 1278 q 875 1233 882 1240 l 671 1065 q 647 1049 660 1056 q 613 1042 635 1042 l 408 1042 q 386 1064 386 1042 q 393 1082 386 1075 l 532 1251 z "},"Ă":{"ha":1049,"x_min":0,"x_max":1049,"o":"m 675 972 q 718 957 703 972 q 738 926 733 942 l 1047 40 q 1049 31 1049 36 q 1040 9 1049 18 q 1018 0 1031 0 l 761 0 q 722 12 733 0 q 707 35 711 24 l 674 126 l 375 126 l 342 35 q 326 12 338 24 q 288 0 315 0 l 31 0 q 9 9 18 0 q 0 31 0 18 q 1 40 0 36 l 311 926 q 331 957 315 942 q 374 972 346 972 l 675 972 m 603 397 l 524 656 l 446 397 l 603 397 m 579 1251 q 586 1270 579 1263 q 606 1278 593 1278 l 743 1278 q 763 1270 756 1278 q 769 1251 769 1263 q 754 1165 769 1204 q 709 1096 739 1125 q 633 1051 679 1067 q 524 1035 586 1035 q 415 1051 461 1035 q 338 1096 368 1067 q 293 1165 308 1125 q 278 1251 278 1204 q 285 1270 278 1263 q 304 1278 292 1278 l 442 1278 q 461 1270 454 1278 q 468 1251 468 1263 q 479 1197 468 1219 q 524 1175 490 1175 q 568 1197 557 1175 q 579 1251 579 1219 z "},"Â":{"ha":1049,"x_min":0,"x_max":1049,"o":"m 675 972 q 718 957 703 972 q 738 926 733 942 l 1047 40 q 1049 31 1049 36 q 1040 9 1049 18 q 1018 0 1031 0 l 761 0 q 722 12 733 0 q 707 35 711 24 l 674 126 l 375 126 l 342 35 q 326 12 338 24 q 288 0 315 0 l 31 0 q 9 9 18 0 q 0 31 0 18 q 1 40 0 36 l 311 926 q 331 957 315 942 q 374 972 346 972 l 675 972 m 603 397 l 524 656 l 446 397 l 603 397 m 614 1278 q 640 1272 629 1278 q 665 1251 651 1267 l 821 1082 q 828 1064 828 1075 q 806 1042 828 1042 l 707 1042 q 680 1043 693 1042 q 651 1051 667 1044 l 524 1110 l 396 1051 q 367 1043 381 1044 q 340 1042 354 1042 l 242 1042 q 219 1064 219 1042 q 226 1082 219 1075 l 382 1251 q 407 1272 396 1267 q 433 1278 418 1278 l 614 1278 z "},"À":{"ha":1049,"x_min":0,"x_max":1049,"o":"m 675 972 q 718 957 703 972 q 738 926 733 942 l 1047 40 q 1049 31 1049 36 q 1040 9 1049 18 q 1018 0 1031 0 l 761 0 q 722 12 733 0 q 707 35 711 24 l 674 126 l 375 126 l 342 35 q 326 12 338 24 q 288 0 315 0 l 31 0 q 9 9 18 0 q 0 31 0 18 q 1 40 0 36 l 311 926 q 331 957 315 942 q 374 972 346 972 l 675 972 m 603 397 l 524 656 l 446 397 l 603 397 m 660 1082 q 667 1064 667 1075 q 644 1042 667 1042 l 440 1042 q 406 1049 418 1042 q 382 1065 393 1056 l 178 1233 q 171 1250 171 1240 q 197 1278 171 1278 l 469 1278 q 495 1274 485 1278 q 521 1251 506 1269 l 660 1082 z "},"Ä":{"ha":1049,"x_min":0,"x_max":1049,"o":"m 675 972 q 718 957 703 972 q 738 926 733 942 l 1047 40 q 1049 31 1049 36 q 1040 9 1049 18 q 1018 0 1031 0 l 761 0 q 722 12 733 0 q 707 35 711 24 l 674 126 l 375 126 l 342 35 q 326 12 338 24 q 288 0 315 0 l 31 0 q 9 9 18 0 q 0 31 0 18 q 1 40 0 36 l 311 926 q 331 957 315 942 q 374 972 346 972 l 675 972 m 603 397 l 524 656 l 446 397 l 603 397 m 797 1278 q 820 1269 811 1278 q 829 1246 829 1260 l 829 1074 q 820 1051 829 1060 q 797 1042 811 1042 l 625 1042 q 602 1051 611 1042 q 593 1074 593 1060 l 593 1246 q 602 1269 593 1260 q 625 1278 611 1278 l 797 1278 m 424 1278 q 447 1269 438 1278 q 456 1246 456 1260 l 456 1074 q 447 1051 456 1060 q 424 1042 438 1042 l 251 1042 q 228 1051 238 1042 q 219 1074 219 1060 l 219 1246 q 228 1269 219 1260 q 251 1278 238 1278 l 424 1278 z "},"Ā":{"ha":1049,"x_min":0,"x_max":1049,"o":"m 675 972 q 718 957 703 972 q 738 926 733 942 l 1047 40 q 1049 31 1049 36 q 1040 9 1049 18 q 1018 0 1031 0 l 761 0 q 722 12 733 0 q 707 35 711 24 l 674 126 l 375 126 l 342 35 q 326 12 338 24 q 288 0 315 0 l 31 0 q 9 9 18 0 q 0 31 0 18 q 1 40 0 36 l 311 926 q 331 957 315 942 q 374 972 346 972 l 675 972 m 603 397 l 524 656 l 446 397 l 603 397 m 786 1250 q 809 1241 800 1250 q 818 1218 818 1232 l 818 1074 q 809 1051 818 1060 q 786 1042 800 1042 l 263 1042 q 240 1051 249 1042 q 231 1074 231 1060 l 231 1218 q 240 1241 231 1232 q 263 1250 249 1250 l 786 1250 z "},"Ą":{"ha":1049,"x_min":0,"x_max":1049,"o":"m 675 972 q 718 957 703 972 q 738 926 733 942 l 1047 40 q 1049 31 1049 36 q 1040 9 1049 18 q 1018 0 1031 0 l 975 0 q 926 -25 939 -3 q 914 -68 914 -47 q 928 -113 914 -90 q 983 -136 943 -136 l 997 -136 q 1024 -147 1013 -136 q 1035 -174 1035 -158 l 1035 -268 q 1024 -294 1035 -283 q 997 -306 1013 -306 l 978 -306 q 870 -287 915 -306 q 796 -236 825 -268 q 753 -161 767 -204 q 739 -68 739 -118 q 741 -32 739 -49 q 746 0 743 -15 q 718 13 726 3 q 707 35 710 24 l 674 126 l 375 126 l 342 35 q 326 12 338 24 q 288 0 315 0 l 31 0 q 9 9 18 0 q 0 31 0 18 q 1 40 0 36 l 311 926 q 331 957 315 942 q 374 972 346 972 l 675 972 m 603 397 l 524 656 l 446 397 l 603 397 z "},"Å":{"ha":1049,"x_min":0,"x_max":1049,"o":"m 675 972 q 718 957 703 972 q 738 926 733 942 l 1047 40 q 1049 31 1049 36 q 1040 9 1049 18 q 1018 0 1031 0 l 761 0 q 722 12 733 0 q 707 35 711 24 l 674 126 l 375 126 l 342 35 q 326 12 338 24 q 288 0 315 0 l 31 0 q 9 9 18 0 q 0 31 0 18 q 1 40 0 36 l 311 926 q 331 957 315 942 q 374 972 346 972 l 675 972 m 603 397 l 524 656 l 446 397 l 603 397 m 482 1160 q 494 1130 482 1142 q 524 1118 506 1118 q 553 1130 542 1118 q 565 1160 565 1142 q 553 1190 565 1178 q 524 1201 542 1201 q 494 1190 506 1201 q 482 1160 482 1178 m 385 1160 q 425 1255 385 1218 q 524 1292 465 1292 q 622 1255 582 1292 q 663 1160 663 1218 q 622 1065 663 1101 q 524 1028 582 1028 q 425 1065 465 1028 q 385 1160 385 1101 z "},"Ã":{"ha":1049,"x_min":0,"x_max":1049,"o":"m 675 972 q 718 957 703 972 q 738 926 733 942 l 1047 40 q 1049 31 1049 36 q 1040 9 1049 18 q 1018 0 1031 0 l 761 0 q 722 12 733 0 q 707 35 711 24 l 674 126 l 375 126 l 342 35 q 326 12 338 24 q 288 0 315 0 l 31 0 q 9 9 18 0 q 0 31 0 18 q 1 40 0 36 l 311 926 q 331 957 315 942 q 374 972 346 972 l 675 972 m 603 397 l 524 656 l 446 397 l 603 397 m 618 1035 q 565 1042 586 1035 q 525 1060 543 1050 q 491 1077 507 1069 q 454 1085 475 1085 q 429 1078 438 1085 q 415 1063 421 1071 q 402 1049 408 1056 q 385 1042 396 1042 l 268 1042 q 249 1049 257 1042 q 242 1067 242 1056 q 250 1128 242 1090 q 279 1200 258 1165 q 337 1260 300 1235 q 431 1285 374 1285 q 483 1277 461 1285 q 524 1260 506 1269 q 558 1242 542 1250 q 594 1235 574 1235 q 618 1242 610 1235 q 633 1256 626 1249 q 646 1271 639 1264 q 664 1278 653 1278 l 781 1278 q 800 1270 793 1278 q 807 1251 807 1263 q 799 1191 807 1228 q 769 1119 790 1154 q 712 1060 749 1085 q 618 1035 675 1035 z "},"Æ":{"ha":1396,"x_min":6,"x_max":1344,"o":"m 1296 972 q 1322 961 1311 972 q 1333 935 1333 950 l 1333 739 q 1322 713 1333 724 q 1296 701 1311 701 l 921 701 l 921 614 l 1265 614 q 1292 603 1281 614 q 1303 576 1303 592 l 1303 396 q 1292 369 1303 381 q 1265 358 1281 358 l 921 358 l 921 271 l 1307 271 q 1333 260 1322 271 q 1344 233 1344 249 l 1344 38 q 1333 11 1344 22 q 1307 0 1322 0 l 625 0 q 599 11 610 0 q 588 38 588 22 l 588 126 l 381 126 l 347 35 q 332 12 343 24 q 293 0 321 0 l 36 0 q 15 9 24 0 q 6 31 6 18 q 7 40 6 36 l 317 926 q 336 957 321 942 q 379 972 351 972 l 1296 972 m 588 397 l 588 701 l 543 701 l 451 397 l 588 397 z "},"Ǽ":{"ha":1396,"x_min":6,"x_max":1344,"o":"m 1296 972 q 1322 961 1311 972 q 1333 935 1333 950 l 1333 739 q 1322 713 1333 724 q 1296 701 1311 701 l 921 701 l 921 614 l 1265 614 q 1292 603 1281 614 q 1303 576 1303 592 l 1303 396 q 1292 369 1303 381 q 1265 358 1281 358 l 921 358 l 921 271 l 1307 271 q 1333 260 1322 271 q 1344 233 1344 249 l 1344 38 q 1333 11 1344 22 q 1307 0 1322 0 l 625 0 q 599 11 610 0 q 588 38 588 22 l 588 126 l 381 126 l 347 35 q 332 12 343 24 q 293 0 321 0 l 36 0 q 15 9 24 0 q 6 31 6 18 q 7 40 6 36 l 317 926 q 336 957 321 942 q 379 972 351 972 l 1296 972 m 588 397 l 588 701 l 543 701 l 451 397 l 588 397 m 756 1251 q 781 1274 771 1269 q 807 1278 792 1278 l 1079 1278 q 1106 1250 1106 1278 q 1099 1233 1106 1240 l 894 1065 q 871 1049 883 1056 q 836 1042 858 1042 l 632 1042 q 610 1064 610 1042 q 617 1082 610 1075 l 756 1251 z "},"B":{"ha":1019,"x_min":76,"x_max":981,"o":"m 597 669 q 584 713 597 692 q 540 733 571 733 l 424 733 l 424 607 l 540 607 q 584 627 571 607 q 597 669 597 647 m 424 239 l 553 239 q 602 261 588 239 q 617 307 617 283 q 601 353 617 332 q 553 375 585 375 l 424 375 l 424 239 m 114 0 q 88 11 99 0 q 76 38 76 22 l 76 935 q 88 961 76 950 q 114 972 99 972 l 575 972 q 867 900 775 972 q 960 681 960 828 q 949 619 960 647 q 921 569 938 590 q 885 531 904 547 q 849 507 865 515 q 899 476 875 496 q 942 429 924 456 q 970 372 960 403 q 981 306 981 340 q 880 74 981 149 q 589 0 779 0 l 114 0 z "},"C":{"ha":1018,"x_min":49,"x_max":985,"o":"m 413 603 q 413 369 408 488 q 442 281 415 306 q 515 257 469 257 q 578 274 551 257 q 619 332 606 290 q 637 364 626 356 q 671 372 647 372 l 954 372 q 976 363 967 372 q 985 342 985 354 q 943 180 983 247 q 838 69 903 113 q 689 6 772 26 q 517 -14 606 -14 q 333 8 417 -14 q 188 75 250 29 q 91 192 126 121 q 51 363 56 263 q 49 485 49 419 q 51 610 49 550 q 92 778 56 707 q 191 895 129 849 q 336 964 253 942 q 517 986 419 986 q 689 966 606 986 q 838 903 772 946 q 943 792 903 860 q 985 631 983 725 q 976 609 985 618 q 954 600 967 600 l 671 600 q 638 608 647 600 q 619 640 628 617 q 578 700 604 685 q 515 715 551 715 q 442 691 469 715 q 413 603 415 667 z "},"Ć":{"ha":1018,"x_min":49,"x_max":985,"o":"m 413 603 q 413 369 408 488 q 442 281 415 306 q 515 257 469 257 q 578 274 551 257 q 619 332 606 290 q 637 364 626 356 q 671 372 647 372 l 954 372 q 976 363 967 372 q 985 342 985 354 q 943 180 983 247 q 838 69 903 113 q 689 6 772 26 q 517 -14 606 -14 q 333 8 417 -14 q 188 75 250 29 q 91 192 126 121 q 51 363 56 263 q 49 485 49 419 q 51 610 49 550 q 92 778 56 707 q 191 895 129 849 q 336 964 253 942 q 517 986 419 986 q 689 966 606 986 q 838 903 772 946 q 943 792 903 860 q 985 631 983 725 q 976 609 985 618 q 954 600 967 600 l 671 600 q 638 608 647 600 q 619 640 628 617 q 578 700 604 685 q 515 715 551 715 q 442 691 469 715 q 413 603 415 667 m 531 1251 q 556 1274 546 1269 q 582 1278 567 1278 l 854 1278 q 881 1250 881 1278 q 874 1233 881 1240 l 669 1065 q 646 1049 658 1056 q 611 1042 633 1042 l 407 1042 q 385 1064 385 1042 q 392 1082 385 1075 l 531 1251 z "},"Č":{"ha":1018,"x_min":49,"x_max":985,"o":"m 413 603 q 413 369 408 488 q 442 281 415 306 q 515 257 469 257 q 578 274 551 257 q 619 332 606 290 q 637 364 626 356 q 671 372 647 372 l 954 372 q 976 363 967 372 q 985 342 985 354 q 943 180 983 247 q 838 69 903 113 q 689 6 772 26 q 517 -14 606 -14 q 333 8 417 -14 q 188 75 250 29 q 91 192 126 121 q 51 363 56 263 q 49 485 49 419 q 51 610 49 550 q 92 778 56 707 q 191 895 129 849 q 336 964 253 942 q 517 986 419 986 q 689 966 606 986 q 838 903 772 946 q 943 792 903 860 q 985 631 983 725 q 976 609 985 618 q 954 600 967 600 l 671 600 q 638 608 647 600 q 619 640 628 617 q 578 700 604 685 q 515 715 551 715 q 442 691 469 715 q 413 603 415 667 m 425 1042 q 399 1047 410 1042 q 374 1068 388 1053 l 218 1238 q 211 1256 211 1244 q 233 1278 211 1278 l 332 1278 q 359 1276 346 1278 q 388 1268 372 1275 l 515 1210 l 643 1268 q 672 1276 658 1275 q 699 1278 685 1278 l 797 1278 q 819 1256 819 1278 q 813 1238 819 1244 l 657 1068 q 632 1047 643 1053 q 606 1042 621 1042 l 425 1042 z "},"Ç":{"ha":1018,"x_min":49,"x_max":985,"o":"m 413 603 q 413 369 408 488 q 442 281 415 306 q 515 257 469 257 q 578 274 551 257 q 619 332 606 290 q 637 364 626 356 q 671 372 647 372 l 954 372 q 976 363 967 372 q 985 342 985 354 q 943 180 983 247 q 838 69 903 113 q 689 6 772 26 q 517 -14 606 -14 l 492 -62 q 515 -58 500 -60 q 533 -56 529 -56 q 616 -90 586 -56 q 646 -181 646 -125 q 608 -271 646 -236 q 508 -306 571 -306 q 456 -299 481 -306 q 415 -281 432 -292 q 394 -258 399 -269 q 401 -235 389 -246 l 431 -210 q 446 -201 439 -201 q 460 -204 453 -201 q 479 -210 468 -207 q 508 -214 490 -214 q 538 -203 528 -214 q 547 -181 547 -193 q 538 -158 547 -168 q 508 -147 529 -147 q 488 -150 499 -147 q 468 -154 478 -153 q 449 -155 458 -156 q 433 -147 440 -154 l 404 -118 q 393 -100 394 -108 q 401 -72 392 -92 l 429 -8 q 279 26 347 0 q 162 97 211 51 q 84 208 113 142 q 51 363 56 274 q 49 485 49 419 q 51 610 49 550 q 92 778 56 707 q 191 895 129 849 q 336 964 253 942 q 517 986 419 986 q 689 966 606 986 q 838 903 772 946 q 943 792 903 860 q 985 631 983 725 q 976 609 985 618 q 954 600 967 600 l 671 600 q 638 608 647 600 q 619 640 628 617 q 578 700 604 685 q 515 715 551 715 q 442 691 469 715 q 413 603 415 667 z "},"Ĉ":{"ha":1018,"x_min":49,"x_max":985,"o":"m 413 603 q 413 369 408 488 q 442 281 415 306 q 515 257 469 257 q 578 274 551 257 q 619 332 606 290 q 637 364 626 356 q 671 372 647 372 l 954 372 q 976 363 967 372 q 985 342 985 354 q 943 180 983 247 q 838 69 903 113 q 689 6 772 26 q 517 -14 606 -14 q 333 8 417 -14 q 188 75 250 29 q 91 192 126 121 q 51 363 56 263 q 49 485 49 419 q 51 610 49 550 q 92 778 56 707 q 191 895 129 849 q 336 964 253 942 q 517 986 419 986 q 689 966 606 986 q 838 903 772 946 q 943 792 903 860 q 985 631 983 725 q 976 609 985 618 q 954 600 967 600 l 671 600 q 638 608 647 600 q 619 640 628 617 q 578 700 604 685 q 515 715 551 715 q 442 691 469 715 q 413 603 415 667 m 607 1278 q 633 1272 622 1278 q 658 1251 644 1267 l 814 1082 q 821 1064 821 1075 q 799 1042 821 1042 l 700 1042 q 673 1043 686 1042 q 644 1051 660 1044 l 517 1110 l 389 1051 q 360 1043 374 1044 q 333 1042 347 1042 l 235 1042 q 213 1064 213 1042 q 219 1082 213 1075 l 375 1251 q 400 1272 389 1267 q 426 1278 411 1278 l 607 1278 z "},"Ċ":{"ha":1018,"x_min":49,"x_max":985,"o":"m 413 603 q 413 369 408 488 q 442 281 415 306 q 515 257 469 257 q 578 274 551 257 q 619 332 606 290 q 637 364 626 356 q 671 372 647 372 l 954 372 q 976 363 967 372 q 985 342 985 354 q 943 180 983 247 q 838 69 903 113 q 689 6 772 26 q 517 -14 606 -14 q 333 8 417 -14 q 188 75 250 29 q 91 192 126 121 q 51 363 56 263 q 49 485 49 419 q 51 610 49 550 q 92 778 56 707 q 191 895 129 849 q 336 964 253 942 q 517 986 419 986 q 689 966 606 986 q 838 903 772 946 q 943 792 903 860 q 985 631 983 725 q 976 609 985 618 q 954 600 967 600 l 671 600 q 638 608 647 600 q 619 640 628 617 q 578 700 604 685 q 515 715 551 715 q 442 691 469 715 q 413 603 415 667 m 611 1294 q 634 1285 625 1294 q 643 1263 643 1276 l 643 1074 q 634 1051 643 1060 q 611 1042 625 1042 l 422 1042 q 399 1051 408 1042 q 390 1074 390 1060 l 390 1263 q 399 1285 390 1276 q 422 1294 408 1294 l 611 1294 z "},"D":{"ha":1028,"x_min":76,"x_max":979,"o":"m 514 972 q 694 947 611 972 q 840 874 778 922 q 938 755 901 826 q 978 590 974 683 q 979 535 979 561 q 979 485 979 510 q 979 436 979 461 q 978 383 979 411 q 939 213 974 285 q 844 93 904 140 q 703 23 785 46 q 521 0 621 0 l 114 0 q 88 11 99 0 q 76 38 76 22 l 76 935 q 88 961 76 950 q 114 972 99 972 l 514 972 m 625 590 q 588 675 622 649 q 507 701 554 701 l 424 701 l 424 271 l 514 271 q 591 298 560 271 q 625 383 622 325 q 627 438 626 413 q 628 488 628 464 q 627 537 628 513 q 625 590 626 561 z "},"Ď":{"ha":1028,"x_min":76,"x_max":979,"o":"m 514 972 q 694 947 611 972 q 840 874 778 922 q 938 755 901 826 q 978 590 974 683 q 979 535 979 561 q 979 485 979 510 q 979 436 979 461 q 978 383 979 411 q 939 213 974 285 q 844 93 904 140 q 703 23 785 46 q 521 0 621 0 l 114 0 q 88 11 99 0 q 76 38 76 22 l 76 935 q 88 961 76 950 q 114 972 99 972 l 514 972 m 625 590 q 588 675 622 649 q 507 701 554 701 l 424 701 l 424 271 l 514 271 q 591 298 560 271 q 625 383 622 325 q 627 438 626 413 q 628 488 628 464 q 627 537 628 513 q 625 590 626 561 m 417 1042 q 390 1047 401 1042 q 365 1068 379 1053 l 210 1238 q 203 1256 203 1244 q 225 1278 203 1278 l 324 1278 q 351 1276 338 1278 q 379 1268 364 1275 l 507 1210 l 635 1268 q 663 1276 650 1275 q 690 1278 676 1278 l 789 1278 q 811 1256 811 1278 q 804 1238 811 1244 l 649 1068 q 624 1047 635 1053 q 597 1042 613 1042 l 417 1042 z "},"Đ":{"ha":1061,"x_min":19,"x_max":1013,"o":"m 547 972 q 728 947 644 972 q 873 874 811 922 q 971 755 935 826 q 1011 590 1007 683 q 1013 535 1013 561 q 1013 485 1013 510 q 1013 436 1013 461 q 1011 383 1013 411 q 972 213 1007 285 q 875 93 936 140 q 731 23 814 46 q 549 0 649 0 l 147 0 q 121 11 132 0 q 110 38 110 22 l 110 382 l 57 382 q 31 393 42 382 q 19 419 19 404 l 19 560 q 31 586 19 575 q 57 597 42 597 l 110 597 l 110 935 q 121 961 110 950 q 147 972 132 972 l 547 972 m 658 590 q 625 675 656 649 q 547 701 594 701 l 457 701 l 457 597 l 535 597 q 561 586 550 597 q 572 560 572 575 l 572 419 q 561 393 572 404 q 535 382 550 382 l 457 382 l 457 271 l 547 271 q 624 298 593 271 q 658 383 656 325 q 660 438 660 413 q 661 488 661 464 q 660 537 661 513 q 658 590 660 561 z "},"E":{"ha":926,"x_min":76,"x_max":875,"o":"m 838 271 q 864 260 853 271 q 875 233 875 249 l 875 38 q 864 11 875 22 q 838 0 853 0 l 114 0 q 88 11 99 0 q 76 38 76 22 l 76 935 q 88 961 76 950 q 114 972 99 972 l 826 972 q 853 961 842 972 q 864 935 864 950 l 864 739 q 853 713 864 724 q 826 701 842 701 l 410 701 l 410 614 l 796 614 q 822 603 811 614 q 833 576 833 592 l 833 396 q 822 369 833 381 q 796 358 811 358 l 410 358 l 410 271 l 838 271 z "},"É":{"ha":926,"x_min":76,"x_max":875,"o":"m 838 271 q 864 260 853 271 q 875 233 875 249 l 875 38 q 864 11 875 22 q 838 0 853 0 l 114 0 q 88 11 99 0 q 76 38 76 22 l 76 935 q 88 961 76 950 q 114 972 99 972 l 826 972 q 853 961 842 972 q 864 935 864 950 l 864 739 q 853 713 864 724 q 826 701 842 701 l 410 701 l 410 614 l 796 614 q 822 603 811 614 q 833 576 833 592 l 833 396 q 822 369 833 381 q 796 358 811 358 l 410 358 l 410 271 l 838 271 m 485 1251 q 510 1274 500 1269 q 536 1278 521 1278 l 808 1278 q 835 1250 835 1278 q 828 1233 835 1240 l 624 1065 q 600 1049 613 1056 q 565 1042 588 1042 l 361 1042 q 339 1064 339 1042 q 346 1082 339 1075 l 485 1251 z "},"Ĕ":{"ha":926,"x_min":76,"x_max":875,"o":"m 838 271 q 864 260 853 271 q 875 233 875 249 l 875 38 q 864 11 875 22 q 838 0 853 0 l 114 0 q 88 11 99 0 q 76 38 76 22 l 76 935 q 88 961 76 950 q 114 972 99 972 l 826 972 q 853 961 842 972 q 864 935 864 950 l 864 739 q 853 713 864 724 q 826 701 842 701 l 410 701 l 410 614 l 796 614 q 822 603 811 614 q 833 576 833 592 l 833 396 q 822 369 833 381 q 796 358 811 358 l 410 358 l 410 271 l 838 271 m 531 1251 q 538 1270 531 1263 q 557 1278 544 1278 l 694 1278 q 714 1270 707 1278 q 721 1251 721 1263 q 706 1165 721 1204 q 660 1096 690 1125 q 584 1051 631 1067 q 475 1035 538 1035 q 366 1051 413 1035 q 290 1096 319 1067 q 244 1165 260 1125 q 229 1251 229 1204 q 236 1270 229 1263 q 256 1278 243 1278 l 393 1278 q 413 1270 406 1278 q 419 1251 419 1263 q 431 1197 419 1219 q 475 1175 442 1175 q 519 1197 508 1175 q 531 1251 531 1219 z "},"Ě":{"ha":926,"x_min":76,"x_max":875,"o":"m 838 271 q 864 260 853 271 q 875 233 875 249 l 875 38 q 864 11 875 22 q 838 0 853 0 l 114 0 q 88 11 99 0 q 76 38 76 22 l 76 935 q 88 961 76 950 q 114 972 99 972 l 826 972 q 853 961 842 972 q 864 935 864 950 l 864 739 q 853 713 864 724 q 826 701 842 701 l 410 701 l 410 614 l 796 614 q 822 603 811 614 q 833 576 833 592 l 833 396 q 822 369 833 381 q 796 358 811 358 l 410 358 l 410 271 l 838 271 m 385 1042 q 358 1047 369 1042 q 333 1068 347 1053 l 178 1238 q 171 1256 171 1244 q 193 1278 171 1278 l 292 1278 q 319 1276 306 1278 q 347 1268 332 1275 l 475 1210 l 603 1268 q 631 1276 618 1275 q 658 1278 644 1278 l 757 1278 q 779 1256 779 1278 q 772 1238 779 1244 l 617 1068 q 592 1047 603 1053 q 565 1042 581 1042 l 385 1042 z "},"Ê":{"ha":926,"x_min":76,"x_max":875,"o":"m 838 271 q 864 260 853 271 q 875 233 875 249 l 875 38 q 864 11 875 22 q 838 0 853 0 l 114 0 q 88 11 99 0 q 76 38 76 22 l 76 935 q 88 961 76 950 q 114 972 99 972 l 826 972 q 853 961 842 972 q 864 935 864 950 l 864 739 q 853 713 864 724 q 826 701 842 701 l 410 701 l 410 614 l 796 614 q 822 603 811 614 q 833 576 833 592 l 833 396 q 822 369 833 381 q 796 358 811 358 l 410 358 l 410 271 l 838 271 m 565 1278 q 592 1272 581 1278 q 617 1251 603 1267 l 772 1082 q 779 1064 779 1075 q 757 1042 779 1042 l 658 1042 q 631 1043 644 1042 q 603 1051 618 1044 l 475 1110 l 347 1051 q 319 1043 332 1044 q 292 1042 306 1042 l 193 1042 q 171 1064 171 1042 q 178 1082 171 1075 l 333 1251 q 358 1272 347 1267 q 385 1278 369 1278 l 565 1278 z "},"Ë":{"ha":926,"x_min":76,"x_max":875,"o":"m 838 271 q 864 260 853 271 q 875 233 875 249 l 875 38 q 864 11 875 22 q 838 0 853 0 l 114 0 q 88 11 99 0 q 76 38 76 22 l 76 935 q 88 961 76 950 q 114 972 99 972 l 826 972 q 853 961 842 972 q 864 935 864 950 l 864 739 q 853 713 864 724 q 826 701 842 701 l 410 701 l 410 614 l 796 614 q 822 603 811 614 q 833 576 833 592 l 833 396 q 822 369 833 381 q 796 358 811 358 l 410 358 l 410 271 l 838 271 m 749 1278 q 772 1269 763 1278 q 781 1246 781 1260 l 781 1074 q 772 1051 781 1060 q 749 1042 763 1042 l 576 1042 q 553 1051 563 1042 q 544 1074 544 1060 l 544 1246 q 553 1269 544 1260 q 576 1278 563 1278 l 749 1278 m 375 1278 q 398 1269 389 1278 q 407 1246 407 1260 l 407 1074 q 398 1051 407 1060 q 375 1042 389 1042 l 203 1042 q 180 1051 189 1042 q 171 1074 171 1060 l 171 1246 q 180 1269 171 1260 q 203 1278 189 1278 l 375 1278 z "},"Ė":{"ha":926,"x_min":76,"x_max":875,"o":"m 838 271 q 864 260 853 271 q 875 233 875 249 l 875 38 q 864 11 875 22 q 838 0 853 0 l 114 0 q 88 11 99 0 q 76 38 76 22 l 76 935 q 88 961 76 950 q 114 972 99 972 l 826 972 q 853 961 842 972 q 864 935 864 950 l 864 739 q 853 713 864 724 q 826 701 842 701 l 410 701 l 410 614 l 796 614 q 822 603 811 614 q 833 576 833 592 l 833 396 q 822 369 833 381 q 796 358 811 358 l 410 358 l 410 271 l 838 271 m 569 1294 q 592 1285 583 1294 q 601 1263 601 1276 l 601 1074 q 592 1051 601 1060 q 569 1042 583 1042 l 381 1042 q 358 1051 367 1042 q 349 1074 349 1060 l 349 1263 q 358 1285 349 1276 q 381 1294 367 1294 l 569 1294 z "},"È":{"ha":926,"x_min":76,"x_max":875,"o":"m 838 271 q 864 260 853 271 q 875 233 875 249 l 875 38 q 864 11 875 22 q 838 0 853 0 l 114 0 q 88 11 99 0 q 76 38 76 22 l 76 935 q 88 961 76 950 q 114 972 99 972 l 826 972 q 853 961 842 972 q 864 935 864 950 l 864 739 q 853 713 864 724 q 826 701 842 701 l 410 701 l 410 614 l 796 614 q 822 603 811 614 q 833 576 833 592 l 833 396 q 822 369 833 381 q 796 358 811 358 l 410 358 l 410 271 l 838 271 m 606 1082 q 613 1064 613 1075 q 590 1042 613 1042 l 386 1042 q 351 1049 364 1042 q 328 1065 339 1056 l 124 1233 q 117 1250 117 1240 q 143 1278 117 1278 l 415 1278 q 441 1274 431 1278 q 467 1251 451 1269 l 606 1082 z "},"Ē":{"ha":926,"x_min":76,"x_max":875,"o":"m 838 271 q 864 260 853 271 q 875 233 875 249 l 875 38 q 864 11 875 22 q 838 0 853 0 l 114 0 q 88 11 99 0 q 76 38 76 22 l 76 935 q 88 961 76 950 q 114 972 99 972 l 826 972 q 853 961 842 972 q 864 935 864 950 l 864 739 q 853 713 864 724 q 826 701 842 701 l 410 701 l 410 614 l 796 614 q 822 603 811 614 q 833 576 833 592 l 833 396 q 822 369 833 381 q 796 358 811 358 l 410 358 l 410 271 l 838 271 m 738 1250 q 760 1241 751 1250 q 769 1218 769 1232 l 769 1074 q 760 1051 769 1060 q 738 1042 751 1042 l 214 1042 q 191 1051 200 1042 q 182 1074 182 1060 l 182 1218 q 191 1241 182 1232 q 214 1250 200 1250 l 738 1250 z "},"Ę":{"ha":926,"x_min":76,"x_max":875,"o":"m 838 -136 q 864 -147 853 -136 q 875 -174 875 -158 l 875 -268 q 864 -294 875 -283 q 838 -306 853 -306 l 818 -306 q 710 -287 756 -306 q 636 -236 665 -268 q 593 -161 607 -204 q 579 -68 579 -118 q 581 -33 579 -49 q 586 0 583 -17 l 114 0 q 88 11 99 0 q 76 38 76 22 l 76 935 q 88 961 76 950 q 114 972 99 972 l 826 972 q 853 961 842 972 q 864 935 864 950 l 864 739 q 853 713 864 724 q 826 701 842 701 l 410 701 l 410 614 l 796 614 q 822 603 811 614 q 833 576 833 592 l 833 396 q 822 369 833 381 q 796 358 811 358 l 410 358 l 410 271 l 838 271 q 864 260 853 271 q 875 233 875 249 l 875 38 q 864 11 875 22 q 838 0 853 0 l 824 0 q 769 -23 783 0 q 754 -68 754 -46 q 769 -113 754 -90 q 824 -136 783 -136 l 838 -136 z "},"F":{"ha":897,"x_min":76,"x_max":851,"o":"m 814 972 q 840 961 829 972 q 851 935 851 950 l 851 724 q 840 697 851 708 q 814 686 829 686 l 417 686 l 417 583 l 786 583 q 813 572 801 583 q 824 546 824 561 l 824 336 q 813 310 824 321 q 786 299 801 299 l 417 299 l 417 38 q 406 11 417 22 q 379 0 394 0 l 114 0 q 88 11 99 0 q 76 38 76 22 l 76 935 q 88 961 76 950 q 114 972 99 972 l 814 972 z "},"G":{"ha":1046,"x_min":49,"x_max":997,"o":"m 519 715 q 413 611 417 715 q 413 375 408 496 q 444 285 415 313 q 525 257 474 257 q 610 280 578 257 q 643 357 643 303 l 578 357 q 551 368 563 357 q 540 394 540 379 l 540 549 q 551 575 540 564 q 578 586 563 586 l 960 586 q 986 575 975 586 q 997 549 997 564 l 997 368 q 962 203 997 274 q 863 83 926 132 q 713 10 800 35 q 519 -14 625 -14 q 329 10 414 -14 q 184 81 244 33 q 90 199 124 128 q 51 368 56 271 q 49 492 49 425 q 51 618 49 558 q 90 779 56 710 q 186 894 125 849 q 332 963 247 940 q 519 986 417 986 q 717 961 629 986 q 867 894 806 936 q 962 795 928 851 q 997 676 996 739 q 988 655 997 664 q 967 646 979 646 l 660 646 q 619 661 632 646 q 609 676 615 667 q 591 694 603 685 q 562 709 579 703 q 519 715 544 715 z "},"Ğ":{"ha":1046,"x_min":49,"x_max":997,"o":"m 519 715 q 413 611 417 715 q 413 375 408 496 q 444 285 415 313 q 525 257 474 257 q 610 280 578 257 q 643 357 643 303 l 578 357 q 551 368 563 357 q 540 394 540 379 l 540 549 q 551 575 540 564 q 578 586 563 586 l 960 586 q 986 575 975 586 q 997 549 997 564 l 997 368 q 962 203 997 274 q 863 83 926 132 q 713 10 800 35 q 519 -14 625 -14 q 329 10 414 -14 q 184 81 244 33 q 90 199 124 128 q 51 368 56 271 q 49 492 49 425 q 51 618 49 558 q 90 779 56 710 q 186 894 125 849 q 332 963 247 940 q 519 986 417 986 q 717 961 629 986 q 867 894 806 936 q 962 795 928 851 q 997 676 996 739 q 988 655 997 664 q 967 646 979 646 l 660 646 q 619 661 632 646 q 609 676 615 667 q 591 694 603 685 q 562 709 579 703 q 519 715 544 715 m 578 1251 q 585 1270 578 1263 q 604 1278 592 1278 l 742 1278 q 761 1270 754 1278 q 768 1251 768 1263 q 753 1165 768 1204 q 708 1096 738 1125 q 631 1051 678 1067 q 522 1035 585 1035 q 413 1051 460 1035 q 337 1096 367 1067 q 292 1165 307 1125 q 276 1251 276 1204 q 283 1270 276 1263 q 303 1278 290 1278 l 440 1278 q 460 1270 453 1278 q 467 1251 467 1263 q 478 1197 467 1219 q 522 1175 489 1175 q 567 1197 556 1175 q 578 1251 578 1219 z "},"Ĝ":{"ha":1046,"x_min":49,"x_max":997,"o":"m 519 715 q 413 611 417 715 q 413 375 408 496 q 444 285 415 313 q 525 257 474 257 q 610 280 578 257 q 643 357 643 303 l 578 357 q 551 368 563 357 q 540 394 540 379 l 540 549 q 551 575 540 564 q 578 586 563 586 l 960 586 q 986 575 975 586 q 997 549 997 564 l 997 368 q 962 203 997 274 q 863 83 926 132 q 713 10 800 35 q 519 -14 625 -14 q 329 10 414 -14 q 184 81 244 33 q 90 199 124 128 q 51 368 56 271 q 49 492 49 425 q 51 618 49 558 q 90 779 56 710 q 186 894 125 849 q 332 963 247 940 q 519 986 417 986 q 717 961 629 986 q 867 894 806 936 q 962 795 928 851 q 997 676 996 739 q 988 655 997 664 q 967 646 979 646 l 660 646 q 619 661 632 646 q 609 676 615 667 q 591 694 603 685 q 562 709 579 703 q 519 715 544 715 m 613 1278 q 639 1272 628 1278 q 664 1251 650 1267 l 819 1082 q 826 1064 826 1075 q 804 1042 826 1042 l 706 1042 q 678 1043 692 1042 q 650 1051 665 1044 l 522 1110 l 394 1051 q 366 1043 379 1044 q 339 1042 353 1042 l 240 1042 q 218 1064 218 1042 q 225 1082 218 1075 l 381 1251 q 406 1272 394 1267 q 432 1278 417 1278 l 613 1278 z "},"Ģ":{"ha":1046,"x_min":49,"x_max":997,"o":"m 519 715 q 413 611 417 715 q 413 375 408 496 q 444 285 415 313 q 525 257 474 257 q 610 280 578 257 q 643 357 643 303 l 578 357 q 551 368 563 357 q 540 394 540 379 l 540 549 q 551 575 540 564 q 578 586 563 586 l 960 586 q 986 575 975 586 q 997 549 997 564 l 997 368 q 962 203 997 274 q 863 83 926 132 q 713 10 800 35 q 519 -14 625 -14 q 329 10 414 -14 q 184 81 244 33 q 90 199 124 128 q 51 368 56 271 q 49 492 49 425 q 51 618 49 558 q 90 779 56 710 q 186 894 125 849 q 332 963 247 940 q 519 986 417 986 q 717 961 629 986 q 867 894 806 936 q 962 795 928 851 q 997 676 996 739 q 988 655 997 664 q 967 646 979 646 l 660 646 q 619 661 632 646 q 609 676 615 667 q 591 694 603 685 q 562 709 579 703 q 519 715 544 715 m 368 -124 q 385 -87 371 -104 q 428 -69 400 -69 l 638 -69 q 659 -78 650 -69 q 668 -100 668 -87 q 667 -110 668 -106 l 590 -303 q 572 -332 585 -317 q 531 -347 558 -347 l 369 -347 q 348 -338 357 -347 q 339 -317 339 -329 l 339 -314 l 368 -124 z "},"Ġ":{"ha":1046,"x_min":49,"x_max":997,"o":"m 519 715 q 413 611 417 715 q 413 375 408 496 q 444 285 415 313 q 525 257 474 257 q 610 280 578 257 q 643 357 643 303 l 578 357 q 551 368 563 357 q 540 394 540 379 l 540 549 q 551 575 540 564 q 578 586 563 586 l 960 586 q 986 575 975 586 q 997 549 997 564 l 997 368 q 962 203 997 274 q 863 83 926 132 q 713 10 800 35 q 519 -14 625 -14 q 329 10 414 -14 q 184 81 244 33 q 90 199 124 128 q 51 368 56 271 q 49 492 49 425 q 51 618 49 558 q 90 779 56 710 q 186 894 125 849 q 332 963 247 940 q 519 986 417 986 q 717 961 629 986 q 867 894 806 936 q 962 795 928 851 q 997 676 996 739 q 988 655 997 664 q 967 646 979 646 l 660 646 q 619 661 632 646 q 609 676 615 667 q 591 694 603 685 q 562 709 579 703 q 519 715 544 715 m 617 1294 q 640 1285 631 1294 q 649 1263 649 1276 l 649 1074 q 640 1051 649 1060 q 617 1042 631 1042 l 428 1042 q 405 1051 414 1042 q 396 1074 396 1060 l 396 1263 q 405 1285 396 1276 q 428 1294 414 1294 l 617 1294 z "},"H":{"ha":1072,"x_min":76,"x_max":996,"o":"m 958 972 q 985 961 974 972 q 996 935 996 950 l 996 38 q 985 11 996 22 q 958 0 974 0 l 686 0 q 660 11 671 0 q 649 38 649 22 l 649 338 l 424 338 l 424 38 q 413 11 424 22 q 386 0 401 0 l 114 0 q 88 10 99 0 q 76 38 76 21 l 76 935 q 88 961 76 950 q 114 972 99 972 l 386 972 q 413 961 401 972 q 424 935 424 950 l 424 643 l 649 643 l 649 935 q 660 961 649 950 q 686 972 671 972 l 958 972 z "},"Ħ":{"ha":1072,"x_min":76,"x_max":996,"o":"m 958 972 q 985 961 974 972 q 996 935 996 950 l 996 38 q 985 11 996 22 q 958 0 974 0 l 686 0 q 660 11 671 0 q 649 38 649 22 l 649 338 l 424 338 l 424 38 q 413 11 424 22 q 386 0 401 0 l 114 0 q 88 10 99 0 q 76 38 76 21 l 76 935 q 88 961 76 950 q 114 972 99 972 l 386 972 q 413 961 401 972 q 424 935 424 950 l 424 894 l 649 894 l 649 935 q 660 961 649 950 q 686 972 671 972 l 958 972 m 649 643 l 649 721 l 424 721 l 424 643 l 649 643 z "},"Ĥ":{"ha":1072,"x_min":76,"x_max":996,"o":"m 958 972 q 985 961 974 972 q 996 935 996 950 l 996 38 q 985 11 996 22 q 958 0 974 0 l 686 0 q 660 11 671 0 q 649 38 649 22 l 649 338 l 424 338 l 424 38 q 413 11 424 22 q 386 0 401 0 l 114 0 q 88 10 99 0 q 76 38 76 21 l 76 935 q 88 961 76 950 q 114 972 99 972 l 386 972 q 413 961 401 972 q 424 935 424 950 l 424 643 l 649 643 l 649 935 q 660 961 649 950 q 686 972 671 972 l 958 972 m 626 1278 q 653 1272 642 1278 q 678 1251 664 1267 l 833 1082 q 840 1064 840 1075 q 818 1042 840 1042 l 719 1042 q 692 1043 706 1042 q 664 1051 679 1044 l 536 1110 l 408 1051 q 380 1043 393 1044 q 353 1042 367 1042 l 254 1042 q 232 1064 232 1042 q 239 1082 232 1075 l 394 1251 q 419 1272 408 1267 q 446 1278 431 1278 l 626 1278 z "},"I":{"ha":511,"x_min":76,"x_max":435,"o":"m 114 0 q 88 11 99 0 q 76 38 76 22 l 76 935 q 88 961 76 950 q 114 972 99 972 l 397 972 q 424 961 413 972 q 435 935 435 950 l 435 38 q 424 11 435 22 q 397 0 413 0 l 114 0 z "},"Í":{"ha":511,"x_min":76,"x_max":615,"o":"m 114 0 q 88 11 99 0 q 76 38 76 22 l 76 935 q 88 961 76 950 q 114 972 99 972 l 397 972 q 424 961 413 972 q 435 935 435 950 l 435 38 q 424 11 435 22 q 397 0 413 0 l 114 0 m 265 1251 q 291 1274 281 1269 q 317 1278 301 1278 l 589 1278 q 615 1250 615 1278 q 608 1233 615 1240 l 404 1065 q 381 1049 393 1056 q 346 1042 368 1042 l 142 1042 q 119 1064 119 1042 q 126 1082 119 1075 l 265 1251 z "},"Ĭ":{"ha":511,"x_min":10,"x_max":501,"o":"m 114 0 q 88 11 99 0 q 76 38 76 22 l 76 935 q 88 961 76 950 q 114 972 99 972 l 397 972 q 424 961 413 972 q 435 935 435 950 l 435 38 q 424 11 435 22 q 397 0 413 0 l 114 0 m 311 1251 q 318 1270 311 1263 q 338 1278 325 1278 l 475 1278 q 494 1270 488 1278 q 501 1251 501 1263 q 486 1165 501 1204 q 441 1096 471 1125 q 365 1051 411 1067 q 256 1035 318 1035 q 147 1051 193 1035 q 70 1096 100 1067 q 25 1165 40 1125 q 10 1251 10 1204 q 17 1270 10 1263 q 36 1278 24 1278 l 174 1278 q 193 1270 186 1278 q 200 1251 200 1263 q 211 1197 200 1219 q 256 1175 222 1175 q 300 1197 289 1175 q 311 1251 311 1219 z "},"Î":{"ha":511,"x_min":-49,"x_max":560,"o":"m 114 0 q 88 11 99 0 q 76 38 76 22 l 76 935 q 88 961 76 950 q 114 972 99 972 l 397 972 q 424 961 413 972 q 435 935 435 950 l 435 38 q 424 11 435 22 q 397 0 413 0 l 114 0 m 346 1278 q 372 1272 361 1278 q 397 1251 383 1267 l 553 1082 q 560 1064 560 1075 q 538 1042 560 1042 l 439 1042 q 412 1043 425 1042 q 383 1051 399 1044 l 256 1110 l 128 1051 q 99 1043 113 1044 q 72 1042 86 1042 l -26 1042 q -49 1064 -49 1042 q -42 1082 -49 1075 l 114 1251 q 139 1272 128 1267 q 165 1278 150 1278 l 346 1278 z "},"Ï":{"ha":511,"x_min":-49,"x_max":561,"o":"m 114 0 q 88 11 99 0 q 76 38 76 22 l 76 935 q 88 961 76 950 q 114 972 99 972 l 397 972 q 424 961 413 972 q 435 935 435 950 l 435 38 q 424 11 435 22 q 397 0 413 0 l 114 0 m 529 1278 q 552 1269 543 1278 q 561 1246 561 1260 l 561 1074 q 552 1051 561 1060 q 529 1042 543 1042 l 357 1042 q 334 1051 343 1042 q 325 1074 325 1060 l 325 1246 q 334 1269 325 1260 q 357 1278 343 1278 l 529 1278 m 156 1278 q 178 1269 169 1278 q 188 1246 188 1260 l 188 1074 q 178 1051 188 1060 q 156 1042 169 1042 l -17 1042 q -40 1051 -31 1042 q -49 1074 -49 1060 l -49 1246 q -40 1269 -49 1260 q -17 1278 -31 1278 l 156 1278 z "},"İ":{"ha":511,"x_min":76,"x_max":435,"o":"m 114 0 q 88 11 99 0 q 76 38 76 22 l 76 935 q 88 961 76 950 q 114 972 99 972 l 397 972 q 424 961 413 972 q 435 935 435 950 l 435 38 q 424 11 435 22 q 397 0 413 0 l 114 0 m 350 1294 q 373 1285 364 1294 q 382 1263 382 1276 l 382 1074 q 373 1051 382 1060 q 350 1042 364 1042 l 161 1042 q 138 1051 147 1042 q 129 1074 129 1060 l 129 1263 q 138 1285 129 1276 q 161 1294 147 1294 l 350 1294 z "},"Ì":{"ha":511,"x_min":-104,"x_max":435,"o":"m 114 0 q 88 11 99 0 q 76 38 76 22 l 76 935 q 88 961 76 950 q 114 972 99 972 l 397 972 q 424 961 413 972 q 435 935 435 950 l 435 38 q 424 11 435 22 q 397 0 413 0 l 114 0 m 385 1082 q 392 1064 392 1075 q 369 1042 392 1042 l 165 1042 q 131 1049 143 1042 q 107 1065 118 1056 l -97 1233 q -104 1250 -104 1240 q -78 1278 -104 1278 l 194 1278 q 220 1274 210 1278 q 246 1251 231 1269 l 385 1082 z "},"Ī":{"ha":511,"x_min":-37,"x_max":550,"o":"m 114 0 q 88 11 99 0 q 76 38 76 22 l 76 935 q 88 961 76 950 q 114 972 99 972 l 397 972 q 424 961 413 972 q 435 935 435 950 l 435 38 q 424 11 435 22 q 397 0 413 0 l 114 0 m 518 1250 q 541 1241 532 1250 q 550 1218 550 1232 l 550 1074 q 541 1051 550 1060 q 518 1042 532 1042 l -6 1042 q -28 1051 -19 1042 q -37 1074 -37 1060 l -37 1218 q -28 1241 -37 1232 q -6 1250 -19 1250 l 518 1250 z "},"Į":{"ha":511,"x_min":76,"x_max":435,"o":"m 397 -139 q 424 -150 413 -139 q 435 -176 435 -161 l 435 -271 q 424 -297 435 -286 q 397 -308 413 -308 l 378 -308 q 270 -290 315 -308 q 196 -238 225 -271 q 153 -162 167 -206 q 139 -69 139 -119 q 141 -33 139 -50 q 146 0 143 -17 l 114 0 q 88 11 99 0 q 76 38 76 22 l 76 935 q 88 961 76 950 q 114 972 99 972 l 397 972 q 424 961 413 972 q 435 935 435 950 l 435 38 q 424 11 435 22 q 397 0 413 0 l 383 0 q 328 -24 343 0 q 314 -69 314 -47 q 328 -115 314 -92 q 383 -139 343 -139 l 397 -139 z "},"Ĩ":{"ha":511,"x_min":-26,"x_max":539,"o":"m 114 0 q 88 11 99 0 q 76 38 76 22 l 76 935 q 88 961 76 950 q 114 972 99 972 l 397 972 q 424 961 413 972 q 435 935 435 950 l 435 38 q 424 11 435 22 q 397 0 413 0 l 114 0 m 350 1035 q 297 1042 318 1035 q 257 1060 275 1050 q 223 1077 239 1069 q 186 1085 207 1085 q 161 1078 169 1085 q 147 1063 153 1071 q 134 1049 140 1056 q 117 1042 128 1042 l 0 1042 q -19 1049 -11 1042 q -26 1067 -26 1056 q -18 1128 -26 1090 q 11 1200 -10 1165 q 69 1260 32 1235 q 163 1285 106 1285 q 215 1277 193 1285 q 256 1260 238 1269 q 290 1242 274 1250 q 326 1235 306 1235 q 350 1242 342 1235 q 365 1256 358 1249 q 378 1271 371 1264 q 396 1278 385 1278 l 513 1278 q 532 1270 525 1278 q 539 1251 539 1263 q 531 1191 539 1228 q 501 1119 522 1154 q 444 1060 481 1085 q 350 1035 407 1035 z "},"J":{"ha":975,"x_min":14,"x_max":907,"o":"m 907 358 q 872 192 907 263 q 775 76 836 122 q 631 8 714 31 q 454 -14 549 -14 q 289 8 368 -14 q 149 74 210 31 q 52 181 89 118 q 14 326 15 244 q 23 348 14 339 q 44 357 32 357 l 328 357 q 363 347 351 357 q 385 313 374 336 q 415 271 399 285 q 465 257 431 257 q 525 281 503 257 q 547 369 547 306 l 547 690 l 135 690 q 108 701 119 690 q 97 728 97 713 l 97 935 q 108 961 97 950 q 135 972 119 972 l 869 972 q 896 961 885 972 q 907 935 907 950 l 907 358 z "},"Ĵ":{"ha":975,"x_min":14,"x_max":907,"o":"m 907 358 q 872 192 907 263 q 775 76 836 122 q 631 8 714 31 q 454 -14 549 -14 q 289 8 368 -14 q 149 74 210 31 q 52 181 89 118 q 14 326 15 244 q 23 348 14 339 q 44 357 32 357 l 328 357 q 363 347 351 357 q 385 313 374 336 q 415 271 399 285 q 465 257 431 257 q 525 281 503 257 q 547 369 547 306 l 547 690 l 135 690 q 108 701 119 690 q 97 728 97 713 l 97 935 q 108 961 97 950 q 135 972 119 972 l 869 972 q 896 961 885 972 q 907 935 907 950 l 907 358 m 606 1278 q 632 1272 621 1278 q 657 1251 643 1267 l 813 1082 q 819 1064 819 1075 q 797 1042 819 1042 l 699 1042 q 672 1043 685 1042 q 643 1051 658 1044 l 515 1110 l 388 1051 q 359 1043 372 1044 q 332 1042 346 1042 l 233 1042 q 211 1064 211 1042 q 218 1082 211 1075 l 374 1251 q 399 1272 388 1267 q 425 1278 410 1278 l 606 1278 z "},"K":{"ha":993,"x_min":76,"x_max":990,"o":"m 986 46 q 990 31 990 39 q 981 9 990 18 q 960 0 972 0 l 643 0 q 602 13 615 0 q 586 32 589 25 l 417 335 l 417 38 q 406 11 417 22 q 379 0 394 0 l 114 0 q 88 11 99 0 q 76 38 76 22 l 76 935 q 88 961 76 950 q 114 972 99 972 l 379 972 q 406 961 394 972 q 417 935 417 950 l 417 660 l 574 942 q 593 963 581 953 q 629 972 606 972 l 936 972 q 958 963 949 972 q 967 942 967 954 q 963 926 967 932 l 713 507 l 986 46 z "},"Ķ":{"ha":993,"x_min":76,"x_max":990,"o":"m 986 46 q 990 31 990 39 q 981 9 990 18 q 960 0 972 0 l 643 0 q 602 13 615 0 q 586 32 589 25 l 417 335 l 417 38 q 406 11 417 22 q 379 0 394 0 l 114 0 q 88 11 99 0 q 76 38 76 22 l 76 935 q 88 961 76 950 q 114 972 99 972 l 379 972 q 406 961 394 972 q 417 935 417 950 l 417 660 l 574 942 q 593 963 581 953 q 629 972 606 972 l 936 972 q 958 963 949 972 q 967 942 967 954 q 963 926 967 932 l 713 507 l 986 46 m 350 -124 q 367 -87 353 -104 q 410 -69 382 -69 l 619 -69 q 641 -78 632 -69 q 650 -100 650 -87 q 649 -110 650 -106 l 572 -303 q 553 -332 567 -317 q 513 -347 540 -347 l 351 -347 q 330 -338 339 -347 q 321 -317 321 -329 l 321 -314 l 350 -124 z "},"L":{"ha":869,"x_min":76,"x_max":851,"o":"m 814 285 q 840 274 829 285 q 851 247 851 263 l 851 38 q 840 11 851 22 q 814 0 829 0 l 114 0 q 88 11 99 0 q 76 38 76 22 l 76 935 q 88 961 76 950 q 114 972 99 972 l 392 972 q 418 961 407 972 q 429 935 429 950 l 429 285 l 814 285 z "},"Ĺ":{"ha":869,"x_min":76,"x_max":851,"o":"m 814 285 q 840 274 829 285 q 851 247 851 263 l 851 38 q 840 11 851 22 q 814 0 829 0 l 114 0 q 88 11 99 0 q 76 38 76 22 l 76 935 q 88 961 76 950 q 114 972 99 972 l 392 972 q 418 961 407 972 q 429 935 429 950 l 429 285 l 814 285 m 256 1251 q 281 1274 271 1269 q 307 1278 292 1278 l 579 1278 q 606 1250 606 1278 q 599 1233 606 1240 l 394 1065 q 371 1049 383 1056 q 336 1042 358 1042 l 132 1042 q 110 1064 110 1042 q 117 1082 110 1075 l 256 1251 z "},"Ľ":{"ha":878,"x_min":76,"x_max":851,"o":"m 814 285 q 840 274 829 285 q 851 247 851 263 l 851 38 q 840 11 851 22 q 814 0 829 0 l 114 0 q 88 11 99 0 q 76 38 76 22 l 76 935 q 88 961 76 950 q 114 972 99 972 l 392 972 q 418 961 407 972 q 429 935 429 950 l 429 285 l 814 285 m 546 932 q 563 969 549 951 q 606 986 578 986 l 815 986 q 837 977 828 986 q 846 956 846 968 q 844 946 846 950 l 768 753 q 749 724 763 739 q 708 708 736 708 l 547 708 q 526 717 535 708 q 517 739 517 726 l 517 742 l 546 932 z "},"Ļ":{"ha":869,"x_min":76,"x_max":851,"o":"m 814 285 q 840 274 829 285 q 851 247 851 263 l 851 38 q 840 11 851 22 q 814 0 829 0 l 114 0 q 88 11 99 0 q 76 38 76 22 l 76 935 q 88 961 76 950 q 114 972 99 972 l 392 972 q 418 961 407 972 q 429 935 429 950 l 429 285 l 814 285 m 281 -124 q 298 -87 283 -104 q 340 -69 313 -69 l 550 -69 q 572 -78 563 -69 q 581 -100 581 -87 q 579 -110 581 -106 l 503 -303 q 484 -332 497 -317 q 443 -347 471 -347 l 282 -347 q 260 -338 269 -347 q 251 -317 251 -329 l 251 -314 l 281 -124 z "},"Ŀ":{"ha":871,"x_min":76,"x_max":851,"o":"m 728 682 q 751 673 742 682 q 760 650 760 664 l 760 461 q 751 438 760 447 q 728 429 742 429 l 539 429 q 516 438 525 429 q 507 461 507 447 l 507 650 q 516 673 507 664 q 539 682 525 682 l 728 682 m 814 285 q 840 274 829 285 q 851 247 851 263 l 851 38 q 840 11 851 22 q 814 0 829 0 l 114 0 q 88 11 99 0 q 76 38 76 22 l 76 935 q 88 961 76 950 q 114 972 99 972 l 392 972 q 418 961 407 972 q 429 935 429 950 l 429 285 l 814 285 z "},"Ł":{"ha":881,"x_min":18,"x_max":863,"o":"m 88 539 l 88 935 q 99 961 88 950 q 125 972 110 972 l 403 972 q 429 961 418 972 q 440 935 440 950 l 440 678 l 642 757 q 657 761 651 761 q 678 753 669 761 q 686 732 686 744 l 686 582 q 656 536 686 547 l 440 451 l 440 285 l 825 285 q 851 274 840 285 q 863 247 863 263 l 863 38 q 851 11 863 22 q 825 0 840 0 l 125 0 q 99 11 110 0 q 88 38 88 22 l 88 313 l 63 303 q 47 299 51 299 q 26 307 35 299 q 18 328 18 315 l 18 478 q 49 524 18 513 l 88 539 z "},"M":{"ha":1189,"x_min":76,"x_max":1113,"o":"m 594 601 l 796 935 q 814 957 800 942 q 856 972 828 972 l 1075 972 q 1101 961 1090 972 q 1113 935 1113 950 l 1113 38 q 1101 11 1113 22 q 1075 0 1090 0 l 824 0 q 797 11 808 0 q 786 38 786 22 l 786 418 l 694 268 q 676 245 688 257 q 643 233 664 233 l 546 233 q 513 245 525 233 q 494 268 501 257 l 403 418 l 403 38 q 392 11 403 22 q 365 0 381 0 l 114 0 q 88 11 99 0 q 76 38 76 22 l 76 935 q 88 961 76 950 q 114 972 99 972 l 333 972 q 375 957 361 972 q 393 935 389 942 l 594 601 z "},"N":{"ha":1028,"x_min":76,"x_max":951,"o":"m 914 972 q 940 961 929 972 q 951 935 951 950 l 951 38 q 940 11 951 22 q 914 0 929 0 l 694 0 q 654 13 667 0 q 638 32 642 25 l 403 386 l 403 38 q 392 11 403 22 q 365 0 381 0 l 114 0 q 88 11 99 0 q 76 38 76 22 l 76 935 q 88 961 76 950 q 114 972 99 972 l 333 972 q 374 960 361 972 q 390 940 386 947 l 625 556 l 625 935 q 636 961 625 950 q 663 972 647 972 l 914 972 z "},"Ń":{"ha":1028,"x_min":76,"x_max":951,"o":"m 914 972 q 940 961 929 972 q 951 935 951 950 l 951 38 q 940 11 951 22 q 914 0 929 0 l 694 0 q 654 13 667 0 q 638 32 642 25 l 403 386 l 403 38 q 392 11 403 22 q 365 0 381 0 l 114 0 q 88 11 99 0 q 76 38 76 22 l 76 935 q 88 961 76 950 q 114 972 99 972 l 333 972 q 374 960 361 972 q 390 940 386 947 l 625 556 l 625 935 q 636 961 625 950 q 663 972 647 972 l 914 972 m 519 1251 q 545 1274 535 1269 q 571 1278 556 1278 l 843 1278 q 869 1250 869 1278 q 863 1233 869 1240 l 658 1065 q 635 1049 647 1056 q 600 1042 622 1042 l 396 1042 q 374 1064 374 1042 q 381 1082 374 1075 l 519 1251 z "},"Ň":{"ha":1028,"x_min":76,"x_max":951,"o":"m 914 972 q 940 961 929 972 q 951 935 951 950 l 951 38 q 940 11 951 22 q 914 0 929 0 l 694 0 q 654 13 667 0 q 638 32 642 25 l 403 386 l 403 38 q 392 11 403 22 q 365 0 381 0 l 114 0 q 88 11 99 0 q 76 38 76 22 l 76 935 q 88 961 76 950 q 114 972 99 972 l 333 972 q 374 960 361 972 q 390 940 386 947 l 625 556 l 625 935 q 636 961 625 950 q 663 972 647 972 l 914 972 m 424 1042 q 397 1047 408 1042 q 372 1068 386 1053 l 217 1238 q 210 1256 210 1244 q 232 1278 210 1278 l 331 1278 q 358 1276 344 1278 q 386 1268 371 1275 l 514 1210 l 642 1268 q 670 1276 657 1275 q 697 1278 683 1278 l 796 1278 q 818 1256 818 1278 q 811 1238 818 1244 l 656 1068 q 631 1047 642 1053 q 604 1042 619 1042 l 424 1042 z "},"Ņ":{"ha":1028,"x_min":76,"x_max":951,"o":"m 914 972 q 940 961 929 972 q 951 935 951 950 l 951 38 q 940 11 951 22 q 914 0 929 0 l 694 0 q 654 13 667 0 q 638 32 642 25 l 403 386 l 403 38 q 392 11 403 22 q 365 0 381 0 l 114 0 q 88 11 99 0 q 76 38 76 22 l 76 935 q 88 961 76 950 q 114 972 99 972 l 333 972 q 374 960 361 972 q 390 940 386 947 l 625 556 l 625 935 q 636 961 625 950 q 663 972 647 972 l 914 972 m 364 -124 q 381 -87 367 -104 q 424 -69 396 -69 l 633 -69 q 655 -78 646 -69 q 664 -100 664 -87 q 663 -110 664 -106 l 586 -303 q 567 -332 581 -317 q 526 -347 554 -347 l 365 -347 q 344 -338 353 -347 q 335 -317 335 -329 l 335 -314 l 364 -124 z "},"Ñ":{"ha":1028,"x_min":76,"x_max":951,"o":"m 914 972 q 940 961 929 972 q 951 935 951 950 l 951 38 q 940 11 951 22 q 914 0 929 0 l 694 0 q 654 13 667 0 q 638 32 642 25 l 403 386 l 403 38 q 392 11 403 22 q 365 0 381 0 l 114 0 q 88 11 99 0 q 76 38 76 22 l 76 935 q 88 961 76 950 q 114 972 99 972 l 333 972 q 374 960 361 972 q 390 940 386 947 l 625 556 l 625 935 q 636 961 625 950 q 663 972 647 972 l 914 972 m 608 1035 q 555 1042 576 1035 q 515 1060 533 1050 q 481 1077 497 1069 q 444 1085 465 1085 q 419 1078 428 1085 q 405 1063 411 1071 q 392 1049 399 1056 q 375 1042 386 1042 l 258 1042 q 240 1049 247 1042 q 232 1067 232 1056 q 240 1128 232 1090 q 269 1200 249 1165 q 327 1260 290 1235 q 421 1285 364 1285 q 474 1277 451 1285 q 514 1260 496 1269 q 548 1242 532 1250 q 585 1235 564 1235 q 608 1242 600 1235 q 623 1256 617 1249 q 636 1271 629 1264 q 654 1278 643 1278 l 771 1278 q 790 1270 783 1278 q 797 1251 797 1263 q 789 1191 797 1228 q 760 1119 781 1154 q 702 1060 739 1085 q 608 1035 665 1035 z "},"O":{"ha":1031,"x_min":49,"x_max":982,"o":"m 979 606 q 982 482 982 546 q 979 361 982 418 q 940 198 975 268 q 845 81 906 128 q 701 10 785 33 q 515 -14 617 -14 q 329 10 413 -14 q 185 81 246 33 q 90 198 125 128 q 51 361 56 268 q 49 482 49 418 q 51 606 49 546 q 90 768 56 697 q 185 888 125 839 q 329 961 246 936 q 515 986 413 986 q 701 961 617 986 q 845 888 785 936 q 940 768 906 839 q 979 606 975 697 m 413 369 q 442 284 415 311 q 515 257 469 257 q 588 284 561 257 q 618 369 615 311 q 618 603 622 488 q 588 688 615 661 q 515 715 560 715 q 443 688 471 715 q 413 603 415 661 q 413 369 408 488 z "},"Ó":{"ha":1031,"x_min":49,"x_max":982,"o":"m 979 606 q 982 482 982 546 q 979 361 982 418 q 940 198 975 268 q 845 81 906 128 q 701 10 785 33 q 515 -14 617 -14 q 329 10 413 -14 q 185 81 246 33 q 90 198 125 128 q 51 361 56 268 q 49 482 49 418 q 51 606 49 546 q 90 768 56 697 q 185 888 125 839 q 329 961 246 936 q 515 986 413 986 q 701 961 617 986 q 845 888 785 936 q 940 768 906 839 q 979 606 975 697 m 413 369 q 442 284 415 311 q 515 257 469 257 q 588 284 561 257 q 618 369 615 311 q 618 603 622 488 q 588 688 615 661 q 515 715 560 715 q 443 688 471 715 q 413 603 415 661 q 413 369 408 488 m 522 1251 q 548 1274 538 1269 q 574 1278 558 1278 l 846 1278 q 872 1250 872 1278 q 865 1233 872 1240 l 661 1065 q 638 1049 650 1056 q 603 1042 625 1042 l 399 1042 q 376 1064 376 1042 q 383 1082 376 1075 l 522 1251 z "},"Ŏ":{"ha":1031,"x_min":49,"x_max":982,"o":"m 979 606 q 982 482 982 546 q 979 361 982 418 q 940 198 975 268 q 845 81 906 128 q 701 10 785 33 q 515 -14 617 -14 q 329 10 413 -14 q 185 81 246 33 q 90 198 125 128 q 51 361 56 268 q 49 482 49 418 q 51 606 49 546 q 90 768 56 697 q 185 888 125 839 q 329 961 246 936 q 515 986 413 986 q 701 961 617 986 q 845 888 785 936 q 940 768 906 839 q 979 606 975 697 m 413 369 q 442 284 415 311 q 515 257 469 257 q 588 284 561 257 q 618 369 615 311 q 618 603 622 488 q 588 688 615 661 q 515 715 560 715 q 443 688 471 715 q 413 603 415 661 q 413 369 408 488 m 571 1251 q 578 1270 571 1263 q 597 1278 585 1278 l 735 1278 q 754 1270 747 1278 q 761 1251 761 1263 q 746 1165 761 1204 q 701 1096 731 1125 q 624 1051 671 1067 q 515 1035 578 1035 q 406 1051 453 1035 q 330 1096 360 1067 q 285 1165 300 1125 q 269 1251 269 1204 q 276 1270 269 1263 q 296 1278 283 1278 l 433 1278 q 453 1270 446 1278 q 460 1251 460 1263 q 471 1197 460 1219 q 515 1175 482 1175 q 560 1197 549 1175 q 571 1251 571 1219 z "},"Ô":{"ha":1031,"x_min":49,"x_max":982,"o":"m 979 606 q 982 482 982 546 q 979 361 982 418 q 940 198 975 268 q 845 81 906 128 q 701 10 785 33 q 515 -14 617 -14 q 329 10 413 -14 q 185 81 246 33 q 90 198 125 128 q 51 361 56 268 q 49 482 49 418 q 51 606 49 546 q 90 768 56 697 q 185 888 125 839 q 329 961 246 936 q 515 986 413 986 q 701 961 617 986 q 845 888 785 936 q 940 768 906 839 q 979 606 975 697 m 413 369 q 442 284 415 311 q 515 257 469 257 q 588 284 561 257 q 618 369 615 311 q 618 603 622 488 q 588 688 615 661 q 515 715 560 715 q 443 688 471 715 q 413 603 415 661 q 413 369 408 488 m 606 1278 q 632 1272 621 1278 q 657 1251 643 1267 l 813 1082 q 819 1064 819 1075 q 797 1042 819 1042 l 699 1042 q 672 1043 685 1042 q 643 1051 658 1044 l 515 1110 l 388 1051 q 359 1043 372 1044 q 332 1042 346 1042 l 233 1042 q 211 1064 211 1042 q 218 1082 211 1075 l 374 1251 q 399 1272 388 1267 q 425 1278 410 1278 l 606 1278 z "},"Ö":{"ha":1031,"x_min":49,"x_max":982,"o":"m 979 606 q 982 482 982 546 q 979 361 982 418 q 940 198 975 268 q 845 81 906 128 q 701 10 785 33 q 515 -14 617 -14 q 329 10 413 -14 q 185 81 246 33 q 90 198 125 128 q 51 361 56 268 q 49 482 49 418 q 51 606 49 546 q 90 768 56 697 q 185 888 125 839 q 329 961 246 936 q 515 986 413 986 q 701 961 617 986 q 845 888 785 936 q 940 768 906 839 q 979 606 975 697 m 413 369 q 442 284 415 311 q 515 257 469 257 q 588 284 561 257 q 618 369 615 311 q 618 603 622 488 q 588 688 615 661 q 515 715 560 715 q 443 688 471 715 q 413 603 415 661 q 413 369 408 488 m 789 1278 q 812 1269 803 1278 q 821 1246 821 1260 l 821 1074 q 812 1051 821 1060 q 789 1042 803 1042 l 617 1042 q 594 1051 603 1042 q 585 1074 585 1060 l 585 1246 q 594 1269 585 1260 q 617 1278 603 1278 l 789 1278 m 415 1278 q 438 1269 429 1278 q 447 1246 447 1260 l 447 1074 q 438 1051 447 1060 q 415 1042 429 1042 l 243 1042 q 220 1051 229 1042 q 211 1074 211 1060 l 211 1246 q 220 1269 211 1260 q 243 1278 229 1278 l 415 1278 z "},"Ò":{"ha":1031,"x_min":49,"x_max":982,"o":"m 979 606 q 982 482 982 546 q 979 361 982 418 q 940 198 975 268 q 845 81 906 128 q 701 10 785 33 q 515 -14 617 -14 q 329 10 413 -14 q 185 81 246 33 q 90 198 125 128 q 51 361 56 268 q 49 482 49 418 q 51 606 49 546 q 90 768 56 697 q 185 888 125 839 q 329 961 246 936 q 515 986 413 986 q 701 961 617 986 q 845 888 785 936 q 940 768 906 839 q 979 606 975 697 m 413 369 q 442 284 415 311 q 515 257 469 257 q 588 284 561 257 q 618 369 615 311 q 618 603 622 488 q 588 688 615 661 q 515 715 560 715 q 443 688 471 715 q 413 603 415 661 q 413 369 408 488 m 653 1082 q 660 1064 660 1075 q 638 1042 660 1042 l 433 1042 q 399 1049 411 1042 q 375 1065 386 1056 l 171 1233 q 164 1250 164 1240 q 190 1278 164 1278 l 463 1278 q 488 1274 478 1278 q 514 1251 499 1269 l 653 1082 z "},"Ő":{"ha":1031,"x_min":49,"x_max":982,"o":"m 979 606 q 982 482 982 546 q 979 361 982 418 q 940 198 975 268 q 845 81 906 128 q 701 10 785 33 q 515 -14 617 -14 q 329 10 413 -14 q 185 81 246 33 q 90 198 125 128 q 51 361 56 268 q 49 482 49 418 q 51 606 49 546 q 90 768 56 697 q 185 888 125 839 q 329 961 246 936 q 515 986 413 986 q 701 961 617 986 q 845 888 785 936 q 940 768 906 839 q 979 606 975 697 m 413 369 q 442 284 415 311 q 515 257 469 257 q 588 284 561 257 q 618 369 615 311 q 618 603 622 488 q 588 688 615 661 q 515 715 560 715 q 443 688 471 715 q 413 603 415 661 q 413 369 408 488 m 321 1251 q 339 1272 328 1265 q 372 1278 350 1278 l 590 1278 q 618 1251 618 1278 q 610 1233 618 1242 l 451 1061 q 404 1042 435 1042 l 261 1042 q 239 1064 239 1042 q 241 1075 239 1069 q 246 1085 243 1081 l 321 1251 m 661 1251 q 679 1272 668 1265 q 713 1278 690 1278 l 931 1278 q 958 1251 958 1278 q 950 1233 958 1242 l 792 1061 q 744 1042 775 1042 l 601 1042 q 579 1064 579 1042 q 581 1075 579 1069 q 586 1085 583 1081 l 661 1251 z "},"Ō":{"ha":1031,"x_min":49,"x_max":982,"o":"m 979 606 q 982 482 982 546 q 979 361 982 418 q 940 198 975 268 q 845 81 906 128 q 701 10 785 33 q 515 -14 617 -14 q 329 10 413 -14 q 185 81 246 33 q 90 198 125 128 q 51 361 56 268 q 49 482 49 418 q 51 606 49 546 q 90 768 56 697 q 185 888 125 839 q 329 961 246 936 q 515 986 413 986 q 701 961 617 986 q 845 888 785 936 q 940 768 906 839 q 979 606 975 697 m 413 369 q 442 284 415 311 q 515 257 469 257 q 588 284 561 257 q 618 369 615 311 q 618 603 622 488 q 588 688 615 661 q 515 715 560 715 q 443 688 471 715 q 413 603 415 661 q 413 369 408 488 m 778 1250 q 801 1241 792 1250 q 810 1218 810 1232 l 810 1074 q 801 1051 810 1060 q 778 1042 792 1042 l 254 1042 q 231 1051 240 1042 q 222 1074 222 1060 l 222 1218 q 231 1241 222 1232 q 254 1250 240 1250 l 778 1250 z "},"Ø":{"ha":1083,"x_min":17,"x_max":1069,"o":"m 79 429 q 79 518 79 474 q 82 606 79 563 q 121 768 86 697 q 216 888 156 839 q 360 961 276 936 q 546 986 443 986 q 805 932 696 986 q 967 776 914 878 l 1025 800 q 1040 804 1035 804 q 1061 796 1053 804 q 1069 775 1069 788 l 1069 625 q 1039 579 1069 590 l 1011 568 q 1012 462 1013 515 q 1010 361 1011 408 q 971 198 1006 268 q 876 81 936 128 q 731 10 815 33 q 546 -14 647 -14 q 272 43 385 -14 q 113 215 160 100 l 61 196 q 46 192 50 192 q 25 200 33 192 q 17 221 17 208 l 17 371 q 47 417 17 406 l 79 429 m 649 369 q 649 398 649 385 q 650 426 650 411 l 444 346 q 478 278 451 300 q 546 257 504 257 q 619 284 592 257 q 649 369 646 311 m 443 603 q 442 586 442 594 q 442 571 442 578 l 640 649 q 605 699 629 683 q 546 715 581 715 q 474 688 501 715 q 443 603 446 661 z "},"Ǿ":{"ha":1083,"x_min":17,"x_max":1069,"o":"m 544 1251 q 570 1274 560 1269 q 596 1278 581 1278 l 868 1278 q 894 1250 894 1278 q 888 1233 894 1240 l 683 1065 q 660 1049 672 1056 q 625 1042 647 1042 l 421 1042 q 399 1064 399 1042 q 406 1082 399 1075 l 544 1251 m 79 429 q 79 518 79 474 q 82 606 79 563 q 121 768 86 697 q 216 888 156 839 q 360 961 276 936 q 546 986 443 986 q 805 932 696 986 q 967 776 914 878 l 1025 800 q 1040 804 1035 804 q 1061 796 1053 804 q 1069 775 1069 788 l 1069 625 q 1039 579 1069 590 l 1011 568 q 1012 462 1013 515 q 1010 361 1011 408 q 971 198 1006 268 q 876 81 936 128 q 731 10 815 33 q 546 -14 647 -14 q 272 43 385 -14 q 113 215 160 100 l 61 196 q 46 192 50 192 q 25 200 33 192 q 17 221 17 208 l 17 371 q 47 417 17 406 l 79 429 m 649 369 q 649 398 649 385 q 650 426 650 411 l 444 346 q 478 278 451 300 q 546 257 504 257 q 619 284 592 257 q 649 369 646 311 m 443 603 q 442 586 442 594 q 442 571 442 578 l 640 649 q 605 699 629 683 q 546 715 581 715 q 474 688 501 715 q 443 603 446 661 z "},"Õ":{"ha":1031,"x_min":49,"x_max":982,"o":"m 979 606 q 982 482 982 546 q 979 361 982 418 q 940 198 975 268 q 845 81 906 128 q 701 10 785 33 q 515 -14 617 -14 q 329 10 413 -14 q 185 81 246 33 q 90 198 125 128 q 51 361 56 268 q 49 482 49 418 q 51 606 49 546 q 90 768 56 697 q 185 888 125 839 q 329 961 246 936 q 515 986 413 986 q 701 961 617 986 q 845 888 785 936 q 940 768 906 839 q 979 606 975 697 m 413 369 q 442 284 415 311 q 515 257 469 257 q 588 284 561 257 q 618 369 615 311 q 618 603 622 488 q 588 688 615 661 q 515 715 560 715 q 443 688 471 715 q 413 603 415 661 q 413 369 408 488 m 610 1035 q 556 1042 578 1035 q 517 1060 535 1050 q 483 1077 499 1069 q 446 1085 467 1085 q 421 1078 429 1085 q 406 1063 413 1071 q 394 1049 400 1056 q 376 1042 388 1042 l 260 1042 q 241 1049 249 1042 q 233 1067 233 1056 q 242 1128 233 1090 q 271 1200 250 1165 q 328 1260 292 1235 q 422 1285 365 1285 q 475 1277 453 1285 q 515 1260 497 1269 q 549 1242 533 1250 q 586 1235 565 1235 q 610 1242 601 1235 q 624 1256 618 1249 q 638 1271 631 1264 q 656 1278 644 1278 l 772 1278 q 792 1270 785 1278 q 799 1251 799 1263 q 790 1191 799 1228 q 761 1119 782 1154 q 703 1060 740 1085 q 610 1035 667 1035 z "},"Œ":{"ha":1392,"x_min":46,"x_max":1339,"o":"m 506 0 q 324 23 406 0 q 182 93 242 46 q 88 213 122 140 q 49 383 53 285 q 47 436 47 411 q 46 485 46 461 q 47 535 46 510 q 49 590 47 561 q 89 755 53 683 q 187 874 125 826 q 332 947 249 922 q 513 972 415 972 l 1290 972 q 1317 961 1306 972 q 1328 935 1328 950 l 1328 739 q 1317 713 1328 724 q 1290 701 1306 701 l 901 701 l 901 614 l 1260 614 q 1286 603 1275 614 q 1297 576 1297 592 l 1297 396 q 1286 369 1297 381 q 1260 358 1275 358 l 901 358 l 901 271 l 1301 271 q 1328 260 1317 271 q 1339 233 1339 249 l 1339 38 q 1328 11 1339 22 q 1301 0 1317 0 l 506 0 m 401 590 q 399 537 400 561 q 399 488 399 513 q 399 438 399 464 q 401 383 400 413 q 435 298 404 325 q 513 271 467 271 l 569 271 l 569 701 l 519 701 q 438 675 472 701 q 401 590 404 649 z "},"P":{"ha":979,"x_min":76,"x_max":953,"o":"m 535 972 q 706 951 629 972 q 838 888 783 931 q 923 782 893 846 q 953 632 953 718 q 923 483 953 546 q 838 381 893 421 q 706 322 783 340 q 535 303 629 303 l 438 303 l 438 38 q 426 11 438 22 q 400 0 415 0 l 114 0 q 88 11 99 0 q 76 38 76 22 l 76 935 q 88 961 76 950 q 114 972 99 972 l 535 972 m 431 560 l 528 560 q 571 577 550 560 q 592 635 592 594 q 578 688 592 661 q 528 714 565 714 l 431 714 l 431 560 z "},"Q":{"ha":1031,"x_min":47,"x_max":994,"o":"m 978 606 q 981 482 981 546 q 978 361 981 418 q 878 110 969 204 l 988 -47 q 990 -53 989 -50 q 992 -60 992 -57 q 985 -81 994 -72 q 964 -90 976 -90 l 692 -90 q 653 -78 665 -90 q 633 -58 640 -67 l 594 -10 q 514 -14 557 -14 q 328 10 411 -14 q 184 81 244 33 q 89 198 124 128 q 50 361 54 268 q 47 482 47 418 q 50 606 47 546 q 89 768 54 697 q 184 888 124 839 q 328 961 244 936 q 514 986 411 986 q 699 961 615 986 q 844 888 783 936 q 939 768 904 839 q 978 606 974 697 m 411 369 q 441 284 414 311 q 514 257 468 257 q 587 284 560 257 q 617 369 614 311 q 617 603 621 488 q 586 688 614 661 q 514 715 558 715 q 442 688 469 715 q 411 603 414 661 q 411 369 407 488 z "},"R":{"ha":1003,"x_min":76,"x_max":975,"o":"m 971 46 q 975 31 975 38 q 966 9 975 18 q 944 0 957 0 l 660 0 q 618 14 632 0 q 600 38 604 28 l 481 303 l 424 303 l 424 38 q 413 11 424 22 q 386 0 401 0 l 114 0 q 88 11 99 0 q 76 38 76 22 l 76 935 q 88 961 76 950 q 114 972 99 972 l 525 972 q 704 949 625 972 q 838 883 783 926 q 921 776 892 839 q 950 635 950 714 q 908 472 950 540 q 800 363 867 404 l 971 46 m 424 567 l 525 567 q 573 588 557 567 q 589 638 589 610 q 574 690 589 665 q 525 714 560 714 l 424 714 l 424 567 z "},"Ŕ":{"ha":1003,"x_min":76,"x_max":975,"o":"m 971 46 q 975 31 975 38 q 966 9 975 18 q 944 0 957 0 l 660 0 q 618 14 632 0 q 600 38 604 28 l 481 303 l 424 303 l 424 38 q 413 11 424 22 q 386 0 401 0 l 114 0 q 88 11 99 0 q 76 38 76 22 l 76 935 q 88 961 76 950 q 114 972 99 972 l 525 972 q 704 949 625 972 q 838 883 783 926 q 921 776 892 839 q 950 635 950 714 q 908 472 950 540 q 800 363 867 404 l 971 46 m 424 567 l 525 567 q 573 588 557 567 q 589 638 589 610 q 574 690 589 665 q 525 714 560 714 l 424 714 l 424 567 m 497 1251 q 523 1274 513 1269 q 549 1278 533 1278 l 821 1278 q 847 1250 847 1278 q 840 1233 847 1240 l 636 1065 q 613 1049 625 1056 q 578 1042 600 1042 l 374 1042 q 351 1064 351 1042 q 358 1082 351 1075 l 497 1251 z "},"Ř":{"ha":1003,"x_min":76,"x_max":975,"o":"m 971 46 q 975 31 975 38 q 966 9 975 18 q 944 0 957 0 l 660 0 q 618 14 632 0 q 600 38 604 28 l 481 303 l 424 303 l 424 38 q 413 11 424 22 q 386 0 401 0 l 114 0 q 88 11 99 0 q 76 38 76 22 l 76 935 q 88 961 76 950 q 114 972 99 972 l 525 972 q 704 949 625 972 q 838 883 783 926 q 921 776 892 839 q 950 635 950 714 q 908 472 950 540 q 800 363 867 404 l 971 46 m 424 567 l 525 567 q 573 588 557 567 q 589 638 589 610 q 574 690 589 665 q 525 714 560 714 l 424 714 l 424 567 m 414 1042 q 388 1047 399 1042 q 363 1068 376 1053 l 207 1238 q 200 1256 200 1244 q 222 1278 200 1278 l 321 1278 q 348 1276 335 1278 q 376 1268 361 1275 l 504 1210 l 632 1268 q 660 1276 647 1275 q 688 1278 674 1278 l 786 1278 q 808 1256 808 1278 q 801 1238 808 1244 l 646 1068 q 621 1047 632 1053 q 594 1042 610 1042 l 414 1042 z "},"Ŗ":{"ha":1003,"x_min":76,"x_max":975,"o":"m 971 46 q 975 31 975 38 q 966 9 975 18 q 944 0 957 0 l 660 0 q 618 14 632 0 q 600 38 604 28 l 481 303 l 424 303 l 424 38 q 413 11 424 22 q 386 0 401 0 l 114 0 q 88 11 99 0 q 76 38 76 22 l 76 935 q 88 961 76 950 q 114 972 99 972 l 525 972 q 704 949 625 972 q 838 883 783 926 q 921 776 892 839 q 950 635 950 714 q 908 472 950 540 q 800 363 867 404 l 971 46 m 424 567 l 525 567 q 573 588 557 567 q 589 638 589 610 q 574 690 589 665 q 525 714 560 714 l 424 714 l 424 567 m 357 -124 q 374 -87 360 -104 q 417 -69 389 -69 l 626 -69 q 648 -78 639 -69 q 657 -100 657 -87 q 656 -110 657 -106 l 579 -303 q 560 -332 574 -317 q 519 -347 547 -347 l 358 -347 q 337 -338 346 -347 q 328 -317 328 -329 l 328 -314 l 357 -124 z "},"S":{"ha":968,"x_min":25,"x_max":943,"o":"m 472 986 q 657 958 576 986 q 793 888 738 931 q 878 794 849 844 q 908 699 907 744 q 899 677 908 686 q 879 668 890 668 l 601 668 q 570 674 582 668 q 546 690 558 679 q 520 706 539 697 q 472 715 501 715 q 421 705 436 715 q 406 676 406 694 q 412 658 406 667 q 435 642 418 650 q 483 628 453 635 q 560 617 513 622 q 737 581 664 604 q 856 520 810 557 q 922 433 901 483 q 943 314 943 382 q 908 177 943 238 q 810 74 872 117 q 665 9 749 32 q 482 -14 581 -14 q 281 10 367 -14 q 140 76 196 35 q 55 170 83 117 q 25 282 26 224 q 34 303 25 294 q 56 313 43 313 l 319 313 q 353 306 342 313 q 379 289 364 300 q 423 265 399 274 q 482 257 447 257 q 558 267 529 257 q 586 296 586 276 q 548 334 586 321 q 407 361 510 347 q 258 395 325 372 q 145 456 192 418 q 74 545 99 493 q 49 667 49 597 q 79 797 49 738 q 165 897 110 856 q 299 963 221 939 q 472 986 378 986 z "},"Ś":{"ha":968,"x_min":25,"x_max":943,"o":"m 472 986 q 657 958 576 986 q 793 888 738 931 q 878 794 849 844 q 908 699 907 744 q 899 677 908 686 q 879 668 890 668 l 601 668 q 570 674 582 668 q 546 690 558 679 q 520 706 539 697 q 472 715 501 715 q 421 705 436 715 q 406 676 406 694 q 412 658 406 667 q 435 642 418 650 q 483 628 453 635 q 560 617 513 622 q 737 581 664 604 q 856 520 810 557 q 922 433 901 483 q 943 314 943 382 q 908 177 943 238 q 810 74 872 117 q 665 9 749 32 q 482 -14 581 -14 q 281 10 367 -14 q 140 76 196 35 q 55 170 83 117 q 25 282 26 224 q 34 303 25 294 q 56 313 43 313 l 319 313 q 353 306 342 313 q 379 289 364 300 q 423 265 399 274 q 482 257 447 257 q 558 267 529 257 q 586 296 586 276 q 548 334 586 321 q 407 361 510 347 q 258 395 325 372 q 145 456 192 418 q 74 545 99 493 q 49 667 49 597 q 79 797 49 738 q 165 897 110 856 q 299 963 221 939 q 472 986 378 986 m 485 1251 q 510 1274 500 1269 q 536 1278 521 1278 l 808 1278 q 835 1250 835 1278 q 828 1233 835 1240 l 624 1065 q 600 1049 613 1056 q 565 1042 588 1042 l 361 1042 q 339 1064 339 1042 q 346 1082 339 1075 l 485 1251 z "},"Š":{"ha":968,"x_min":25,"x_max":943,"o":"m 472 986 q 657 958 576 986 q 793 888 738 931 q 878 794 849 844 q 908 699 907 744 q 899 677 908 686 q 879 668 890 668 l 601 668 q 570 674 582 668 q 546 690 558 679 q 520 706 539 697 q 472 715 501 715 q 421 705 436 715 q 406 676 406 694 q 412 658 406 667 q 435 642 418 650 q 483 628 453 635 q 560 617 513 622 q 737 581 664 604 q 856 520 810 557 q 922 433 901 483 q 943 314 943 382 q 908 177 943 238 q 810 74 872 117 q 665 9 749 32 q 482 -14 581 -14 q 281 10 367 -14 q 140 76 196 35 q 55 170 83 117 q 25 282 26 224 q 34 303 25 294 q 56 313 43 313 l 319 313 q 353 306 342 313 q 379 289 364 300 q 423 265 399 274 q 482 257 447 257 q 558 267 529 257 q 586 296 586 276 q 548 334 586 321 q 407 361 510 347 q 258 395 325 372 q 145 456 192 418 q 74 545 99 493 q 49 667 49 597 q 79 797 49 738 q 165 897 110 856 q 299 963 221 939 q 472 986 378 986 m 393 1042 q 367 1047 378 1042 q 342 1068 356 1053 l 186 1238 q 179 1256 179 1244 q 201 1278 179 1278 l 300 1278 q 327 1276 314 1278 q 356 1268 340 1275 l 483 1210 l 611 1268 q 640 1276 626 1275 q 667 1278 653 1278 l 765 1278 q 788 1256 788 1278 q 781 1238 788 1244 l 625 1068 q 600 1047 611 1053 q 574 1042 589 1042 l 393 1042 z "},"Ş":{"ha":968,"x_min":25,"x_max":943,"o":"m 472 986 q 657 958 576 986 q 793 888 738 931 q 878 794 849 844 q 908 699 907 744 q 899 677 908 686 q 879 668 890 668 l 601 668 q 570 674 582 668 q 546 690 558 679 q 520 706 539 697 q 472 715 501 715 q 421 705 436 715 q 406 676 406 694 q 412 658 406 667 q 435 642 418 650 q 483 628 453 635 q 560 617 513 622 q 737 581 664 604 q 856 520 810 557 q 922 433 901 483 q 943 314 943 382 q 908 178 943 239 q 813 76 874 118 q 668 10 751 33 q 488 -14 585 -12 l 463 -62 q 485 -58 471 -60 q 504 -56 500 -56 q 587 -90 557 -56 q 617 -181 617 -125 q 579 -271 617 -236 q 479 -306 542 -306 q 427 -299 451 -306 q 386 -281 403 -292 q 365 -258 369 -269 q 372 -235 360 -246 l 401 -210 q 417 -201 410 -201 q 431 -204 424 -201 q 450 -210 439 -207 q 479 -214 461 -214 q 508 -203 499 -214 q 518 -181 518 -193 q 509 -158 518 -168 q 479 -147 500 -147 q 459 -150 469 -147 q 439 -154 449 -153 q 420 -155 429 -156 q 404 -147 411 -154 l 375 -118 q 364 -100 365 -108 q 372 -72 363 -92 l 400 -10 q 235 26 306 -1 q 119 92 165 53 q 49 181 72 132 q 25 282 26 229 q 34 303 25 294 q 56 313 43 313 l 319 313 q 353 306 342 313 q 379 289 364 300 q 423 265 399 274 q 482 257 447 257 q 558 267 529 257 q 586 296 586 276 q 548 334 586 321 q 407 361 510 347 q 258 395 325 372 q 145 456 192 418 q 74 545 99 493 q 49 667 49 597 q 79 797 49 738 q 165 897 110 856 q 299 963 221 939 q 472 986 378 986 z "},"Ŝ":{"ha":968,"x_min":25,"x_max":943,"o":"m 472 986 q 657 958 576 986 q 793 888 738 931 q 878 794 849 844 q 908 699 907 744 q 899 677 908 686 q 879 668 890 668 l 601 668 q 570 674 582 668 q 546 690 558 679 q 520 706 539 697 q 472 715 501 715 q 421 705 436 715 q 406 676 406 694 q 412 658 406 667 q 435 642 418 650 q 483 628 453 635 q 560 617 513 622 q 737 581 664 604 q 856 520 810 557 q 922 433 901 483 q 943 314 943 382 q 908 177 943 238 q 810 74 872 117 q 665 9 749 32 q 482 -14 581 -14 q 281 10 367 -14 q 140 76 196 35 q 55 170 83 117 q 25 282 26 224 q 34 303 25 294 q 56 313 43 313 l 319 313 q 353 306 342 313 q 379 289 364 300 q 423 265 399 274 q 482 257 447 257 q 558 267 529 257 q 586 296 586 276 q 548 334 586 321 q 407 361 510 347 q 258 395 325 372 q 145 456 192 418 q 74 545 99 493 q 49 667 49 597 q 79 797 49 738 q 165 897 110 856 q 299 963 221 939 q 472 986 378 986 m 574 1278 q 600 1272 589 1278 q 625 1251 611 1267 l 781 1082 q 788 1064 788 1075 q 765 1042 788 1042 l 667 1042 q 640 1043 653 1042 q 611 1051 626 1044 l 483 1110 l 356 1051 q 327 1043 340 1044 q 300 1042 314 1042 l 201 1042 q 179 1064 179 1042 q 186 1082 179 1075 l 342 1251 q 367 1272 356 1267 q 393 1278 378 1278 l 574 1278 z "},"Ș":{"ha":968,"x_min":25,"x_max":943,"o":"m 472 986 q 657 958 576 986 q 793 888 738 931 q 878 794 849 844 q 908 699 907 744 q 899 677 908 686 q 879 668 890 668 l 601 668 q 570 674 582 668 q 546 690 558 679 q 520 706 539 697 q 472 715 501 715 q 421 705 436 715 q 406 676 406 694 q 412 658 406 667 q 435 642 418 650 q 483 628 453 635 q 560 617 513 622 q 737 581 664 604 q 856 520 810 557 q 922 433 901 483 q 943 314 943 382 q 908 177 943 238 q 810 74 872 117 q 665 9 749 32 q 482 -14 581 -14 q 281 10 367 -14 q 140 76 196 35 q 55 170 83 117 q 25 282 26 224 q 34 303 25 294 q 56 313 43 313 l 319 313 q 353 306 342 313 q 379 289 364 300 q 423 265 399 274 q 482 257 447 257 q 558 267 529 257 q 586 296 586 276 q 548 334 586 321 q 407 361 510 347 q 258 395 325 372 q 145 456 192 418 q 74 545 99 493 q 49 667 49 597 q 79 797 49 738 q 165 897 110 856 q 299 963 221 939 q 472 986 378 986 m 328 -124 q 345 -87 331 -104 q 388 -69 360 -69 l 597 -69 q 619 -78 610 -69 q 628 -100 628 -87 q 626 -110 628 -106 l 550 -303 q 531 -332 544 -317 q 490 -347 518 -347 l 329 -347 q 308 -338 317 -347 q 299 -317 299 -329 l 299 -314 l 328 -124 z "},"T":{"ha":936,"x_min":24,"x_max":913,"o":"m 875 972 q 901 961 890 972 q 913 935 913 950 l 913 711 q 901 685 913 696 q 875 674 890 674 l 644 674 l 644 38 q 633 11 644 22 q 607 0 622 0 l 329 0 q 303 11 314 0 q 292 38 292 22 l 292 674 l 61 674 q 35 685 46 674 q 24 711 24 696 l 24 935 q 35 961 24 950 q 61 972 46 972 l 875 972 z "},"Ŧ":{"ha":947,"x_min":29,"x_max":918,"o":"m 881 972 q 907 961 896 972 q 918 935 918 950 l 918 711 q 907 685 918 696 q 881 674 896 674 l 650 674 l 650 532 l 775 532 q 801 521 790 532 q 813 494 813 510 l 813 396 q 801 369 813 381 q 775 358 790 358 l 650 358 l 650 38 q 639 11 650 22 q 613 0 628 0 l 335 0 q 308 11 319 0 q 297 38 297 22 l 297 358 l 172 358 q 146 369 157 358 q 135 396 135 381 l 135 494 q 146 521 135 510 q 172 532 157 532 l 297 532 l 297 674 l 67 674 q 40 685 51 674 q 29 711 29 696 l 29 935 q 40 961 29 950 q 67 972 51 972 l 881 972 z "},"Ť":{"ha":936,"x_min":24,"x_max":913,"o":"m 875 972 q 901 961 890 972 q 913 935 913 950 l 913 711 q 901 685 913 696 q 875 674 890 674 l 644 674 l 644 38 q 633 11 644 22 q 607 0 622 0 l 329 0 q 303 11 314 0 q 292 38 292 22 l 292 674 l 61 674 q 35 685 46 674 q 24 711 24 696 l 24 935 q 35 961 24 950 q 61 972 46 972 l 875 972 m 378 1042 q 351 1047 363 1042 q 326 1068 340 1053 l 171 1238 q 164 1256 164 1244 q 186 1278 164 1278 l 285 1278 q 312 1276 299 1278 q 340 1268 325 1275 l 468 1210 l 596 1268 q 624 1276 611 1275 q 651 1278 638 1278 l 750 1278 q 772 1256 772 1278 q 765 1238 772 1244 l 610 1068 q 585 1047 596 1053 q 558 1042 574 1042 l 378 1042 z "},"Ţ":{"ha":936,"x_min":24,"x_max":913,"o":"m 875 972 q 901 961 890 972 q 913 935 913 950 l 913 711 q 901 685 913 696 q 875 674 890 674 l 644 674 l 644 38 q 633 11 644 22 q 607 0 622 0 l 329 0 q 303 11 314 0 q 292 38 292 22 l 292 674 l 61 674 q 35 685 46 674 q 24 711 24 696 l 24 935 q 35 961 24 950 q 61 972 46 972 l 875 972 m 311 -124 q 328 -87 314 -104 q 371 -69 343 -69 l 581 -69 q 602 -78 593 -69 q 611 -100 611 -87 q 610 -110 611 -106 l 533 -303 q 515 -332 528 -317 q 474 -347 501 -347 l 313 -347 q 291 -338 300 -347 q 282 -317 282 -329 l 282 -314 l 311 -124 z "},"U":{"ha":1036,"x_min":68,"x_max":968,"o":"m 931 972 q 957 961 946 972 q 968 935 968 950 l 968 367 q 935 197 968 268 q 842 78 901 125 q 701 8 783 31 q 519 -14 618 -14 q 336 8 419 -14 q 194 78 253 31 q 101 197 135 125 q 68 367 68 268 l 68 935 q 79 961 68 950 q 106 972 90 972 l 378 972 q 404 961 393 972 q 415 935 415 950 l 415 372 q 518 265 415 265 q 621 372 621 265 l 621 935 q 632 961 621 950 q 658 972 643 972 l 931 972 z "},"Ú":{"ha":1036,"x_min":68,"x_max":968,"o":"m 931 972 q 957 961 946 972 q 968 935 968 950 l 968 367 q 935 197 968 268 q 842 78 901 125 q 701 8 783 31 q 519 -14 618 -14 q 336 8 419 -14 q 194 78 253 31 q 101 197 135 125 q 68 367 68 268 l 68 935 q 79 961 68 950 q 106 972 90 972 l 378 972 q 404 961 393 972 q 415 935 415 950 l 415 372 q 518 265 415 265 q 621 372 621 265 l 621 935 q 632 961 621 950 q 658 972 643 972 l 931 972 m 526 1251 q 552 1274 542 1269 q 578 1278 563 1278 l 850 1278 q 876 1250 876 1278 q 869 1233 876 1240 l 665 1065 q 642 1049 654 1056 q 607 1042 629 1042 l 403 1042 q 381 1064 381 1042 q 388 1082 381 1075 l 526 1251 z "},"Ŭ":{"ha":1036,"x_min":68,"x_max":968,"o":"m 931 972 q 957 961 946 972 q 968 935 968 950 l 968 367 q 935 197 968 268 q 842 78 901 125 q 701 8 783 31 q 519 -14 618 -14 q 336 8 419 -14 q 194 78 253 31 q 101 197 135 125 q 68 367 68 268 l 68 935 q 79 961 68 950 q 106 972 90 972 l 378 972 q 404 961 393 972 q 415 935 415 950 l 415 372 q 518 265 415 265 q 621 372 621 265 l 621 935 q 632 961 621 950 q 658 972 643 972 l 931 972 m 574 1251 q 581 1270 574 1263 q 600 1278 588 1278 l 738 1278 q 757 1270 750 1278 q 764 1251 764 1263 q 749 1165 764 1204 q 703 1096 733 1125 q 627 1051 674 1067 q 518 1035 581 1035 q 409 1051 456 1035 q 333 1096 363 1067 q 288 1165 303 1125 q 272 1251 272 1204 q 279 1270 272 1263 q 299 1278 286 1278 l 436 1278 q 456 1270 449 1278 q 463 1251 463 1263 q 474 1197 463 1219 q 518 1175 485 1175 q 563 1197 551 1175 q 574 1251 574 1219 z "},"Û":{"ha":1036,"x_min":68,"x_max":968,"o":"m 931 972 q 957 961 946 972 q 968 935 968 950 l 968 367 q 935 197 968 268 q 842 78 901 125 q 701 8 783 31 q 519 -14 618 -14 q 336 8 419 -14 q 194 78 253 31 q 101 197 135 125 q 68 367 68 268 l 68 935 q 79 961 68 950 q 106 972 90 972 l 378 972 q 404 961 393 972 q 415 935 415 950 l 415 372 q 518 265 415 265 q 621 372 621 265 l 621 935 q 632 961 621 950 q 658 972 643 972 l 931 972 m 608 1278 q 635 1272 624 1278 q 660 1251 646 1267 l 815 1082 q 822 1064 822 1075 q 800 1042 822 1042 l 701 1042 q 674 1043 688 1042 q 646 1051 661 1044 l 518 1110 l 390 1051 q 362 1043 375 1044 q 335 1042 349 1042 l 236 1042 q 214 1064 214 1042 q 221 1082 214 1075 l 376 1251 q 401 1272 390 1267 q 428 1278 413 1278 l 608 1278 z "},"Ü":{"ha":1036,"x_min":68,"x_max":968,"o":"m 931 972 q 957 961 946 972 q 968 935 968 950 l 968 367 q 935 197 968 268 q 842 78 901 125 q 701 8 783 31 q 519 -14 618 -14 q 336 8 419 -14 q 194 78 253 31 q 101 197 135 125 q 68 367 68 268 l 68 935 q 79 961 68 950 q 106 972 90 972 l 378 972 q 404 961 393 972 q 415 935 415 950 l 415 372 q 518 265 415 265 q 621 372 621 265 l 621 935 q 632 961 621 950 q 658 972 643 972 l 931 972 m 792 1278 q 815 1269 806 1278 q 824 1246 824 1260 l 824 1074 q 815 1051 824 1060 q 792 1042 806 1042 l 619 1042 q 597 1051 606 1042 q 588 1074 588 1060 l 588 1246 q 597 1269 588 1260 q 619 1278 606 1278 l 792 1278 m 418 1278 q 441 1269 432 1278 q 450 1246 450 1260 l 450 1074 q 441 1051 450 1060 q 418 1042 432 1042 l 246 1042 q 223 1051 232 1042 q 214 1074 214 1060 l 214 1246 q 223 1269 214 1260 q 246 1278 232 1278 l 418 1278 z "},"Ù":{"ha":1036,"x_min":68,"x_max":968,"o":"m 931 972 q 957 961 946 972 q 968 935 968 950 l 968 367 q 935 197 968 268 q 842 78 901 125 q 701 8 783 31 q 519 -14 618 -14 q 336 8 419 -14 q 194 78 253 31 q 101 197 135 125 q 68 367 68 268 l 68 935 q 79 961 68 950 q 106 972 90 972 l 378 972 q 404 961 393 972 q 415 935 415 950 l 415 372 q 518 265 415 265 q 621 372 621 265 l 621 935 q 632 961 621 950 q 658 972 643 972 l 931 972 m 657 1082 q 664 1064 664 1075 q 642 1042 664 1042 l 438 1042 q 403 1049 415 1042 q 379 1065 390 1056 l 175 1233 q 168 1250 168 1240 q 194 1278 168 1278 l 467 1278 q 492 1274 482 1278 q 518 1251 503 1269 l 657 1082 z "},"Ű":{"ha":1036,"x_min":68,"x_max":968,"o":"m 931 972 q 957 961 946 972 q 968 935 968 950 l 968 367 q 935 197 968 268 q 842 78 901 125 q 701 8 783 31 q 519 -14 618 -14 q 336 8 419 -14 q 194 78 253 31 q 101 197 135 125 q 68 367 68 268 l 68 935 q 79 961 68 950 q 106 972 90 972 l 378 972 q 404 961 393 972 q 415 935 415 950 l 415 372 q 518 265 415 265 q 621 372 621 265 l 621 935 q 632 961 621 950 q 658 972 643 972 l 931 972 m 315 1251 q 333 1272 322 1265 q 367 1278 344 1278 l 585 1278 q 613 1251 613 1278 q 604 1233 613 1242 l 446 1061 q 399 1042 429 1042 l 256 1042 q 233 1064 233 1042 q 235 1075 233 1069 q 240 1085 238 1081 l 315 1251 m 656 1251 q 674 1272 663 1265 q 707 1278 685 1278 l 925 1278 q 953 1251 953 1278 q 944 1233 953 1242 l 786 1061 q 739 1042 769 1042 l 596 1042 q 574 1064 574 1042 q 576 1075 574 1069 q 581 1085 578 1081 l 656 1251 z "},"Ū":{"ha":1036,"x_min":68,"x_max":968,"o":"m 931 972 q 957 961 946 972 q 968 935 968 950 l 968 367 q 935 197 968 268 q 842 78 901 125 q 701 8 783 31 q 519 -14 618 -14 q 336 8 419 -14 q 194 78 253 31 q 101 197 135 125 q 68 367 68 268 l 68 935 q 79 961 68 950 q 106 972 90 972 l 378 972 q 404 961 393 972 q 415 935 415 950 l 415 372 q 518 265 415 265 q 621 372 621 265 l 621 935 q 632 961 621 950 q 658 972 643 972 l 931 972 m 781 1250 q 803 1241 794 1250 q 813 1218 813 1232 l 813 1074 q 803 1051 813 1060 q 781 1042 794 1042 l 257 1042 q 234 1051 243 1042 q 225 1074 225 1060 l 225 1218 q 234 1241 225 1232 q 257 1250 243 1250 l 781 1250 z "},"Ų":{"ha":1036,"x_min":68,"x_max":968,"o":"m 931 972 q 957 961 946 972 q 968 935 968 950 l 968 367 q 943 217 968 281 q 872 108 918 153 q 763 35 826 63 q 622 -7 699 7 q 580 -31 589 -14 q 571 -68 571 -49 q 585 -113 571 -90 q 640 -136 600 -136 l 654 -136 q 681 -147 669 -136 q 692 -174 692 -158 l 692 -268 q 681 -294 692 -283 q 654 -306 669 -306 l 635 -306 q 527 -287 572 -306 q 453 -236 482 -268 q 410 -161 424 -204 q 396 -68 396 -118 q 401 -4 396 -32 q 265 35 326 7 q 159 110 203 64 q 92 219 115 156 q 68 367 68 283 l 68 935 q 79 961 68 950 q 106 972 90 972 l 378 972 q 404 961 393 972 q 415 935 415 950 l 415 372 q 518 265 415 265 q 621 372 621 265 l 621 935 q 632 961 621 950 q 658 972 643 972 l 931 972 z "},"Ů":{"ha":1036,"x_min":68,"x_max":968,"o":"m 931 972 q 957 961 946 972 q 968 935 968 950 l 968 367 q 935 197 968 268 q 842 78 901 125 q 701 8 783 31 q 519 -14 618 -14 q 336 8 419 -14 q 194 78 253 31 q 101 197 135 125 q 68 367 68 268 l 68 935 q 79 961 68 950 q 106 972 90 972 l 378 972 q 404 961 393 972 q 415 935 415 950 l 415 372 q 518 265 415 265 q 621 372 621 265 l 621 935 q 632 961 621 950 q 658 972 643 972 l 931 972 m 476 1160 q 488 1130 476 1142 q 518 1118 500 1118 q 548 1130 536 1118 q 560 1160 560 1142 q 548 1190 560 1178 q 518 1201 536 1201 q 488 1190 500 1201 q 476 1160 476 1178 m 379 1160 q 419 1255 379 1218 q 518 1292 460 1292 q 617 1255 576 1292 q 657 1160 657 1218 q 617 1065 657 1101 q 518 1028 576 1028 q 419 1065 460 1028 q 379 1160 379 1101 z "},"Ũ":{"ha":1036,"x_min":68,"x_max":968,"o":"m 931 972 q 957 961 946 972 q 968 935 968 950 l 968 367 q 935 197 968 268 q 842 78 901 125 q 701 8 783 31 q 519 -14 618 -14 q 336 8 419 -14 q 194 78 253 31 q 101 197 135 125 q 68 367 68 268 l 68 935 q 79 961 68 950 q 106 972 90 972 l 378 972 q 404 961 393 972 q 415 935 415 950 l 415 372 q 518 265 415 265 q 621 372 621 265 l 621 935 q 632 961 621 950 q 658 972 643 972 l 931 972 m 613 1035 q 559 1042 581 1035 q 519 1060 538 1050 q 485 1077 501 1069 q 449 1085 469 1085 q 424 1078 432 1085 q 409 1063 415 1071 q 397 1049 403 1056 q 379 1042 390 1042 l 263 1042 q 244 1049 251 1042 q 236 1067 236 1056 q 244 1128 236 1090 q 274 1200 253 1165 q 331 1260 294 1235 q 425 1285 368 1285 q 478 1277 456 1285 q 518 1260 500 1269 q 552 1242 536 1250 q 589 1235 568 1235 q 613 1242 604 1235 q 627 1256 621 1249 q 640 1271 633 1264 q 658 1278 647 1278 l 775 1278 q 794 1270 788 1278 q 801 1251 801 1263 q 793 1191 801 1228 q 764 1119 785 1154 q 706 1060 743 1085 q 613 1035 669 1035 z "},"V":{"ha":1008,"x_min":21,"x_max":988,"o":"m 504 410 l 636 926 q 656 957 640 942 q 699 972 671 972 l 957 972 q 978 963 969 972 q 988 942 988 954 q 986 932 988 938 l 725 46 q 706 15 721 31 q 663 0 690 0 l 346 0 q 303 15 318 0 q 283 46 288 31 l 22 932 q 21 942 21 938 q 30 963 21 954 q 51 972 39 972 l 310 972 q 353 957 338 972 q 372 926 368 942 l 504 410 z "},"W":{"ha":1189,"x_min":33,"x_max":1156,"o":"m 594 322 l 481 38 q 465 15 478 29 q 424 0 451 0 l 225 0 q 181 17 197 0 q 161 53 164 33 l 33 938 l 33 942 q 42 963 33 954 q 64 972 51 972 l 322 972 q 358 964 346 972 q 372 935 369 956 l 419 543 l 476 717 q 489 742 479 726 q 524 757 499 757 l 665 757 q 700 742 690 757 q 713 717 710 726 l 769 544 l 817 935 q 831 964 819 956 q 867 972 843 972 l 1125 972 q 1147 963 1138 972 q 1156 942 1156 954 l 1156 938 l 1028 53 q 1008 17 1025 33 q 964 0 992 0 l 765 0 q 724 15 738 0 q 708 38 711 29 l 594 322 z "},"Ẃ":{"ha":1189,"x_min":33,"x_max":1156,"o":"m 594 322 l 481 38 q 465 15 478 29 q 424 0 451 0 l 225 0 q 181 17 197 0 q 161 53 164 33 l 33 938 l 33 942 q 42 963 33 954 q 64 972 51 972 l 322 972 q 358 964 346 972 q 372 935 369 956 l 419 543 l 476 717 q 489 742 479 726 q 524 757 499 757 l 665 757 q 700 742 690 757 q 713 717 710 726 l 769 544 l 817 935 q 831 964 819 956 q 867 972 843 972 l 1125 972 q 1147 963 1138 972 q 1156 942 1156 954 l 1156 938 l 1028 53 q 1008 17 1025 33 q 964 0 992 0 l 765 0 q 724 15 738 0 q 708 38 711 29 l 594 322 m 601 1251 q 627 1274 617 1269 q 653 1278 638 1278 l 925 1278 q 951 1250 951 1278 q 944 1233 951 1240 l 740 1065 q 717 1049 729 1056 q 682 1042 704 1042 l 478 1042 q 456 1064 456 1042 q 463 1082 456 1075 l 601 1251 z "},"Ŵ":{"ha":1189,"x_min":33,"x_max":1156,"o":"m 594 322 l 481 38 q 465 15 478 29 q 424 0 451 0 l 225 0 q 181 17 197 0 q 161 53 164 33 l 33 938 l 33 942 q 42 963 33 954 q 64 972 51 972 l 322 972 q 358 964 346 972 q 372 935 369 956 l 419 543 l 476 717 q 489 742 479 726 q 524 757 499 757 l 665 757 q 700 742 690 757 q 713 717 710 726 l 769 544 l 817 935 q 831 964 819 956 q 867 972 843 972 l 1125 972 q 1147 963 1138 972 q 1156 942 1156 954 l 1156 938 l 1028 53 q 1008 17 1025 33 q 964 0 992 0 l 765 0 q 724 15 738 0 q 708 38 711 29 l 594 322 m 685 1278 q 711 1272 700 1278 q 736 1251 722 1267 l 892 1082 q 899 1064 899 1075 q 876 1042 899 1042 l 778 1042 q 751 1043 764 1042 q 722 1051 738 1044 l 594 1110 l 467 1051 q 438 1043 451 1044 q 411 1042 425 1042 l 313 1042 q 290 1064 290 1042 q 297 1082 290 1075 l 453 1251 q 478 1272 467 1267 q 504 1278 489 1278 l 685 1278 z "},"Ẅ":{"ha":1189,"x_min":33,"x_max":1156,"o":"m 594 322 l 481 38 q 465 15 478 29 q 424 0 451 0 l 225 0 q 181 17 197 0 q 161 53 164 33 l 33 938 l 33 942 q 42 963 33 954 q 64 972 51 972 l 322 972 q 358 964 346 972 q 372 935 369 956 l 419 543 l 476 717 q 489 742 479 726 q 524 757 499 757 l 665 757 q 700 742 690 757 q 713 717 710 726 l 769 544 l 817 935 q 831 964 819 956 q 867 972 843 972 l 1125 972 q 1147 963 1138 972 q 1156 942 1156 954 l 1156 938 l 1028 53 q 1008 17 1025 33 q 964 0 992 0 l 765 0 q 724 15 738 0 q 708 38 711 29 l 594 322 m 868 1278 q 891 1269 882 1278 q 900 1246 900 1260 l 900 1074 q 891 1051 900 1060 q 868 1042 882 1042 l 696 1042 q 673 1051 682 1042 q 664 1074 664 1060 l 664 1246 q 673 1269 664 1260 q 696 1278 682 1278 l 868 1278 m 494 1278 q 517 1269 508 1278 q 526 1246 526 1260 l 526 1074 q 517 1051 526 1060 q 494 1042 508 1042 l 322 1042 q 299 1051 308 1042 q 290 1074 290 1060 l 290 1246 q 299 1269 290 1260 q 322 1278 308 1278 l 494 1278 z "},"Ẁ":{"ha":1189,"x_min":33,"x_max":1156,"o":"m 594 322 l 481 38 q 465 15 478 29 q 424 0 451 0 l 225 0 q 181 17 197 0 q 161 53 164 33 l 33 938 l 33 942 q 42 963 33 954 q 64 972 51 972 l 322 972 q 358 964 346 972 q 372 935 369 956 l 419 543 l 476 717 q 489 742 479 726 q 524 757 499 757 l 665 757 q 700 742 690 757 q 713 717 710 726 l 769 544 l 817 935 q 831 964 819 956 q 867 972 843 972 l 1125 972 q 1147 963 1138 972 q 1156 942 1156 954 l 1156 938 l 1028 53 q 1008 17 1025 33 q 964 0 992 0 l 765 0 q 724 15 738 0 q 708 38 711 29 l 594 322 m 721 1082 q 728 1064 728 1075 q 706 1042 728 1042 l 501 1042 q 467 1049 479 1042 q 443 1065 454 1056 l 239 1233 q 232 1250 232 1240 q 258 1278 232 1278 l 531 1278 q 556 1274 546 1278 q 582 1251 567 1269 l 721 1082 z "},"X":{"ha":1026,"x_min":0,"x_max":1026,"o":"m 726 501 l 1022 46 q 1026 37 1025 40 q 1026 31 1026 33 q 1017 9 1026 18 q 996 0 1008 0 l 683 0 q 642 13 656 0 q 626 32 629 26 l 506 218 l 390 32 q 374 13 388 26 q 333 0 361 0 l 31 0 q 9 9 18 0 q 0 31 0 18 q 1 37 0 33 q 4 46 1 40 l 296 497 l 33 926 q 29 942 29 935 q 38 963 29 954 q 60 972 47 972 l 361 972 q 402 958 389 972 q 419 938 415 944 l 517 768 l 622 938 q 640 958 626 944 q 681 972 653 972 l 968 972 q 990 963 981 972 q 999 942 999 954 q 998 934 999 936 q 994 926 997 932 l 726 501 z "},"Y":{"ha":986,"x_min":4,"x_max":982,"o":"m 357 0 q 331 11 342 0 q 319 38 319 22 l 319 311 l 7 929 q 4 942 4 935 q 13 963 4 954 q 35 972 22 972 l 296 972 q 338 958 324 972 q 354 938 351 944 l 493 658 l 632 938 q 649 958 635 944 q 690 972 663 972 l 951 972 q 973 963 964 972 q 982 942 982 954 q 979 929 982 935 l 667 311 l 667 38 q 656 11 667 22 q 629 0 644 0 l 357 0 z "},"Ý":{"ha":986,"x_min":4,"x_max":982,"o":"m 357 0 q 331 11 342 0 q 319 38 319 22 l 319 311 l 7 929 q 4 942 4 935 q 13 963 4 954 q 35 972 22 972 l 296 972 q 338 958 324 972 q 354 938 351 944 l 493 658 l 632 938 q 649 958 635 944 q 690 972 663 972 l 951 972 q 973 963 964 972 q 982 942 982 954 q 979 929 982 935 l 667 311 l 667 38 q 656 11 667 22 q 629 0 644 0 l 357 0 m 503 1251 q 528 1274 518 1269 q 554 1278 539 1278 l 826 1278 q 853 1250 853 1278 q 846 1233 853 1240 l 642 1065 q 618 1049 631 1056 q 583 1042 606 1042 l 379 1042 q 357 1064 357 1042 q 364 1082 357 1075 l 503 1251 z "},"Ŷ":{"ha":986,"x_min":4,"x_max":982,"o":"m 357 0 q 331 11 342 0 q 319 38 319 22 l 319 311 l 7 929 q 4 942 4 935 q 13 963 4 954 q 35 972 22 972 l 296 972 q 338 958 324 972 q 354 938 351 944 l 493 658 l 632 938 q 649 958 635 944 q 690 972 663 972 l 951 972 q 973 963 964 972 q 982 942 982 954 q 979 929 982 935 l 667 311 l 667 38 q 656 11 667 22 q 629 0 644 0 l 357 0 m 583 1278 q 610 1272 599 1278 q 635 1251 621 1267 l 790 1082 q 797 1064 797 1075 q 775 1042 797 1042 l 676 1042 q 649 1043 663 1042 q 621 1051 636 1044 l 493 1110 l 365 1051 q 337 1043 350 1044 q 310 1042 324 1042 l 211 1042 q 189 1064 189 1042 q 196 1082 189 1075 l 351 1251 q 376 1272 365 1267 q 403 1278 388 1278 l 583 1278 z "},"Ÿ":{"ha":986,"x_min":4,"x_max":982,"o":"m 357 0 q 331 11 342 0 q 319 38 319 22 l 319 311 l 7 929 q 4 942 4 935 q 13 963 4 954 q 35 972 22 972 l 296 972 q 338 958 324 972 q 354 938 351 944 l 493 658 l 632 938 q 649 958 635 944 q 690 972 663 972 l 951 972 q 973 963 964 972 q 982 942 982 954 q 979 929 982 935 l 667 311 l 667 38 q 656 11 667 22 q 629 0 644 0 l 357 0 m 767 1278 q 790 1269 781 1278 q 799 1246 799 1260 l 799 1074 q 790 1051 799 1060 q 767 1042 781 1042 l 594 1042 q 572 1051 581 1042 q 563 1074 563 1060 l 563 1246 q 572 1269 563 1260 q 594 1278 581 1278 l 767 1278 m 393 1278 q 416 1269 407 1278 q 425 1246 425 1260 l 425 1074 q 416 1051 425 1060 q 393 1042 407 1042 l 221 1042 q 198 1051 207 1042 q 189 1074 189 1060 l 189 1246 q 198 1269 189 1260 q 221 1278 207 1278 l 393 1278 z "},"Ỳ":{"ha":986,"x_min":4,"x_max":982,"o":"m 357 0 q 331 11 342 0 q 319 38 319 22 l 319 311 l 7 929 q 4 942 4 935 q 13 963 4 954 q 35 972 22 972 l 296 972 q 338 958 324 972 q 354 938 351 944 l 493 658 l 632 938 q 649 958 635 944 q 690 972 663 972 l 951 972 q 973 963 964 972 q 982 942 982 954 q 979 929 982 935 l 667 311 l 667 38 q 656 11 667 22 q 629 0 644 0 l 357 0 m 626 1082 q 633 1064 633 1075 q 611 1042 633 1042 l 407 1042 q 372 1049 385 1042 q 349 1065 360 1056 l 144 1233 q 138 1250 138 1240 q 164 1278 138 1278 l 436 1278 q 462 1274 451 1278 q 488 1251 472 1269 l 626 1082 z "},"Z":{"ha":963,"x_min":49,"x_max":917,"o":"m 879 285 q 906 274 894 285 q 917 247 917 263 l 917 38 q 906 11 917 22 q 879 0 894 0 l 86 0 q 60 11 71 0 q 49 38 49 22 l 49 238 q 56 269 49 257 q 69 286 64 281 l 458 690 l 100 690 q 74 701 85 690 q 63 728 63 713 l 63 935 q 74 961 63 950 q 100 972 85 972 l 861 972 q 888 961 876 972 q 899 935 899 950 l 899 738 q 881 692 899 710 l 513 285 l 879 285 z "},"Ź":{"ha":963,"x_min":49,"x_max":917,"o":"m 879 285 q 906 274 894 285 q 917 247 917 263 l 917 38 q 906 11 917 22 q 879 0 894 0 l 86 0 q 60 11 71 0 q 49 38 49 22 l 49 238 q 56 269 49 257 q 69 286 64 281 l 458 690 l 100 690 q 74 701 85 690 q 63 728 63 713 l 63 935 q 74 961 63 950 q 100 972 85 972 l 861 972 q 888 961 876 972 q 899 935 899 950 l 899 738 q 881 692 899 710 l 513 285 l 879 285 m 488 1251 q 513 1274 503 1269 q 539 1278 524 1278 l 811 1278 q 838 1250 838 1278 q 831 1233 838 1240 l 626 1065 q 603 1049 615 1056 q 568 1042 590 1042 l 364 1042 q 342 1064 342 1042 q 349 1082 342 1075 l 488 1251 z "},"Ž":{"ha":963,"x_min":49,"x_max":917,"o":"m 879 285 q 906 274 894 285 q 917 247 917 263 l 917 38 q 906 11 917 22 q 879 0 894 0 l 86 0 q 60 11 71 0 q 49 38 49 22 l 49 238 q 56 269 49 257 q 69 286 64 281 l 458 690 l 100 690 q 74 701 85 690 q 63 728 63 713 l 63 935 q 74 961 63 950 q 100 972 85 972 l 861 972 q 888 961 876 972 q 899 935 899 950 l 899 738 q 881 692 899 710 l 513 285 l 879 285 m 392 1042 q 365 1047 376 1042 q 340 1068 354 1053 l 185 1238 q 178 1256 178 1244 q 200 1278 178 1278 l 299 1278 q 326 1276 313 1278 q 354 1268 339 1275 l 482 1210 l 610 1268 q 638 1276 625 1275 q 665 1278 651 1278 l 764 1278 q 786 1256 786 1278 q 779 1238 786 1244 l 624 1068 q 599 1047 610 1053 q 572 1042 588 1042 l 392 1042 z "},"Ż":{"ha":963,"x_min":49,"x_max":917,"o":"m 879 285 q 906 274 894 285 q 917 247 917 263 l 917 38 q 906 11 917 22 q 879 0 894 0 l 86 0 q 60 11 71 0 q 49 38 49 22 l 49 238 q 56 269 49 257 q 69 286 64 281 l 458 690 l 100 690 q 74 701 85 690 q 63 728 63 713 l 63 935 q 74 961 63 950 q 100 972 85 972 l 861 972 q 888 961 876 972 q 899 935 899 950 l 899 738 q 881 692 899 710 l 513 285 l 879 285 m 576 1294 q 599 1285 590 1294 q 608 1263 608 1276 l 608 1074 q 599 1051 608 1060 q 576 1042 590 1042 l 388 1042 q 365 1051 374 1042 q 356 1074 356 1060 l 356 1263 q 365 1285 356 1276 q 388 1294 374 1294 l 576 1294 z "},"a":{"ha":864,"x_min":24,"x_max":808,"o":"m 24 207 q 45 297 24 257 q 106 365 67 336 q 202 415 146 394 q 328 447 258 435 l 475 471 q 469 525 475 508 q 433 542 463 542 q 404 535 415 542 q 384 519 393 528 q 365 504 375 511 q 338 497 354 497 l 101 497 q 78 506 88 497 q 71 528 69 514 q 93 590 72 554 q 158 658 114 626 q 270 713 201 690 q 436 736 339 736 q 717 658 626 736 q 808 436 808 579 l 808 38 q 797 11 808 22 q 771 0 786 0 l 528 0 q 501 11 513 0 q 490 38 490 22 l 490 76 q 409 10 460 35 q 293 -14 358 -14 q 183 3 233 -14 q 98 49 133 19 q 43 119 63 79 q 24 207 24 160 m 389 192 q 454 217 429 192 q 479 300 479 243 l 397 282 q 349 260 361 274 q 336 231 336 246 q 349 203 336 215 q 389 192 363 192 z "},"á":{"ha":864,"x_min":24,"x_max":808,"o":"m 24 207 q 45 297 24 257 q 106 365 67 336 q 202 415 146 394 q 328 447 258 435 l 475 471 q 469 525 475 508 q 433 542 463 542 q 404 535 415 542 q 384 519 393 528 q 365 504 375 511 q 338 497 354 497 l 101 497 q 78 506 88 497 q 71 528 69 514 q 93 590 72 554 q 158 658 114 626 q 270 713 201 690 q 436 736 339 736 q 717 658 626 736 q 808 436 808 579 l 808 38 q 797 11 808 22 q 771 0 786 0 l 528 0 q 501 11 513 0 q 490 38 490 22 l 490 76 q 409 10 460 35 q 293 -14 358 -14 q 183 3 233 -14 q 98 49 133 19 q 43 119 63 79 q 24 207 24 160 m 389 192 q 454 217 429 192 q 479 300 479 243 l 397 282 q 349 260 361 274 q 336 231 336 246 q 349 203 336 215 q 389 192 363 192 m 443 1036 q 469 1058 458 1054 q 494 1063 479 1063 l 753 1063 q 779 1035 779 1063 q 772 1018 779 1025 l 568 850 q 544 833 557 840 q 510 826 532 826 l 319 826 q 297 849 297 826 q 304 867 297 860 l 443 1036 z "},"ă":{"ha":864,"x_min":24,"x_max":808,"o":"m 24 207 q 45 297 24 257 q 106 365 67 336 q 202 415 146 394 q 328 447 258 435 l 475 471 q 469 525 475 508 q 433 542 463 542 q 404 535 415 542 q 384 519 393 528 q 365 504 375 511 q 338 497 354 497 l 101 497 q 78 506 88 497 q 71 528 69 514 q 93 590 72 554 q 158 658 114 626 q 270 713 201 690 q 436 736 339 736 q 717 658 626 736 q 808 436 808 579 l 808 38 q 797 11 808 22 q 771 0 786 0 l 528 0 q 501 11 513 0 q 490 38 490 22 l 490 76 q 409 10 460 35 q 293 -14 358 -14 q 183 3 233 -14 q 98 49 133 19 q 43 119 63 79 q 24 207 24 160 m 389 192 q 454 217 429 192 q 479 300 479 243 l 397 282 q 349 260 361 274 q 336 231 336 246 q 349 203 336 215 q 389 192 363 192 m 485 1036 q 492 1055 485 1047 q 511 1063 499 1063 l 642 1063 q 661 1055 654 1063 q 668 1036 668 1047 q 652 949 668 989 q 606 881 636 910 q 531 835 575 851 q 429 819 486 819 q 328 835 372 819 q 253 881 283 851 q 206 949 222 910 q 190 1036 190 989 q 197 1055 190 1047 q 217 1063 204 1063 l 347 1063 q 367 1055 360 1063 q 374 1036 374 1047 q 385 982 374 1004 q 429 960 397 960 q 473 982 461 960 q 485 1036 485 1004 z "},"â":{"ha":864,"x_min":24,"x_max":808,"o":"m 24 207 q 45 297 24 257 q 106 365 67 336 q 202 415 146 394 q 328 447 258 435 l 475 471 q 469 525 475 508 q 433 542 463 542 q 404 535 415 542 q 384 519 393 528 q 365 504 375 511 q 338 497 354 497 l 101 497 q 78 506 88 497 q 71 528 69 514 q 93 590 72 554 q 158 658 114 626 q 270 713 201 690 q 436 736 339 736 q 717 658 626 736 q 808 436 808 579 l 808 38 q 797 11 808 22 q 771 0 786 0 l 528 0 q 501 11 513 0 q 490 38 490 22 l 490 76 q 409 10 460 35 q 293 -14 358 -14 q 183 3 233 -14 q 98 49 133 19 q 43 119 63 79 q 24 207 24 160 m 389 192 q 454 217 429 192 q 479 300 479 243 l 397 282 q 349 260 361 274 q 336 231 336 246 q 349 203 336 215 q 389 192 363 192 m 513 1063 q 539 1057 528 1063 q 564 1036 550 1051 l 719 867 q 726 849 726 860 q 704 826 726 826 l 613 826 q 585 828 599 826 q 557 836 572 829 l 429 894 l 301 836 q 273 828 286 829 q 246 826 260 826 l 154 826 q 132 849 132 826 q 139 867 132 860 l 294 1036 q 319 1057 308 1051 q 346 1063 331 1063 l 513 1063 z "},"ä":{"ha":864,"x_min":24,"x_max":808,"o":"m 24 207 q 45 297 24 257 q 106 365 67 336 q 202 415 146 394 q 328 447 258 435 l 475 471 q 469 525 475 508 q 433 542 463 542 q 404 535 415 542 q 384 519 393 528 q 365 504 375 511 q 338 497 354 497 l 101 497 q 78 506 88 497 q 71 528 69 514 q 93 590 72 554 q 158 658 114 626 q 270 713 201 690 q 436 736 339 736 q 717 658 626 736 q 808 436 808 579 l 808 38 q 797 11 808 22 q 771 0 786 0 l 528 0 q 501 11 513 0 q 490 38 490 22 l 490 76 q 409 10 460 35 q 293 -14 358 -14 q 183 3 233 -14 q 98 49 133 19 q 43 119 63 79 q 24 207 24 160 m 389 192 q 454 217 429 192 q 479 300 479 243 l 397 282 q 349 260 361 274 q 336 231 336 246 q 349 203 336 215 q 389 192 363 192 m 350 1063 q 373 1053 364 1063 q 382 1031 382 1044 l 382 858 q 373 835 382 844 q 350 826 364 826 l 178 826 q 155 835 164 826 q 146 858 146 844 l 146 1031 q 155 1053 146 1044 q 178 1063 164 1063 l 350 1063 m 682 1063 q 705 1053 696 1063 q 714 1031 714 1044 l 714 858 q 705 835 714 844 q 682 826 696 826 l 510 826 q 487 835 496 826 q 478 858 478 844 l 478 1031 q 487 1053 478 1044 q 510 1063 496 1063 l 682 1063 z "},"à":{"ha":864,"x_min":24,"x_max":808,"o":"m 24 207 q 45 297 24 257 q 106 365 67 336 q 202 415 146 394 q 328 447 258 435 l 475 471 q 469 525 475 508 q 433 542 463 542 q 404 535 415 542 q 384 519 393 528 q 365 504 375 511 q 338 497 354 497 l 101 497 q 78 506 88 497 q 71 528 69 514 q 93 590 72 554 q 158 658 114 626 q 270 713 201 690 q 436 736 339 736 q 717 658 626 736 q 808 436 808 579 l 808 38 q 797 11 808 22 q 771 0 786 0 l 528 0 q 501 11 513 0 q 490 38 490 22 l 490 76 q 409 10 460 35 q 293 -14 358 -14 q 183 3 233 -14 q 98 49 133 19 q 43 119 63 79 q 24 207 24 160 m 389 192 q 454 217 429 192 q 479 300 479 243 l 397 282 q 349 260 361 274 q 336 231 336 246 q 349 203 336 215 q 389 192 363 192 m 561 867 q 568 849 568 860 q 546 826 568 826 l 356 826 q 321 833 333 826 q 297 850 308 840 l 93 1018 q 86 1035 86 1025 q 113 1063 86 1063 l 371 1063 q 397 1058 386 1063 q 422 1036 407 1054 l 561 867 z "},"ā":{"ha":864,"x_min":24,"x_max":808,"o":"m 24 207 q 45 297 24 257 q 106 365 67 336 q 202 415 146 394 q 328 447 258 435 l 475 471 q 469 525 475 508 q 433 542 463 542 q 404 535 415 542 q 384 519 393 528 q 365 504 375 511 q 338 497 354 497 l 101 497 q 78 506 88 497 q 71 528 69 514 q 93 590 72 554 q 158 658 114 626 q 270 713 201 690 q 436 736 339 736 q 717 658 626 736 q 808 436 808 579 l 808 38 q 797 11 808 22 q 771 0 786 0 l 528 0 q 501 11 513 0 q 490 38 490 22 l 490 76 q 409 10 460 35 q 293 -14 358 -14 q 183 3 233 -14 q 98 49 133 19 q 43 119 63 79 q 24 207 24 160 m 389 192 q 454 217 429 192 q 479 300 479 243 l 397 282 q 349 260 361 274 q 336 231 336 246 q 349 203 336 215 q 389 192 363 192 m 657 1035 q 680 1026 671 1035 q 689 1003 689 1017 l 689 858 q 680 835 689 844 q 657 826 671 826 l 203 826 q 180 835 189 826 q 171 858 171 844 l 171 1003 q 180 1026 171 1017 q 203 1035 189 1035 l 657 1035 z "},"ą":{"ha":864,"x_min":24,"x_max":808,"o":"m 24 207 q 45 297 24 257 q 106 365 67 336 q 202 415 146 394 q 328 447 258 435 l 475 471 q 469 525 475 508 q 433 542 463 542 q 404 535 415 542 q 384 519 393 528 q 365 504 375 511 q 338 497 354 497 l 101 497 q 78 506 88 497 q 71 528 69 514 q 93 590 72 554 q 158 658 114 626 q 270 713 201 690 q 436 736 339 736 q 717 658 626 736 q 808 436 808 579 l 808 38 q 797 11 808 22 q 771 0 786 0 l 749 0 q 700 -25 713 -3 q 688 -68 688 -47 q 702 -113 688 -90 q 757 -136 717 -136 l 771 -136 q 797 -147 786 -136 q 808 -174 808 -158 l 808 -268 q 797 -294 808 -283 q 771 -306 786 -306 l 751 -306 q 644 -287 689 -306 q 569 -236 599 -268 q 526 -161 540 -204 q 513 -68 513 -118 q 514 -33 513 -51 q 518 0 515 -15 q 490 38 490 7 l 490 76 q 409 10 460 35 q 293 -14 358 -14 q 183 3 233 -14 q 98 49 133 19 q 43 119 63 79 q 24 207 24 160 m 389 192 q 454 217 429 192 q 479 300 479 243 l 397 282 q 349 260 361 274 q 336 231 336 246 q 349 203 336 215 q 389 192 363 192 z "},"å":{"ha":864,"x_min":24,"x_max":808,"o":"m 24 207 q 45 297 24 257 q 106 365 67 336 q 202 415 146 394 q 328 447 258 435 l 475 471 q 469 525 475 508 q 433 542 463 542 q 404 535 415 542 q 384 519 393 528 q 365 504 375 511 q 338 497 354 497 l 101 497 q 78 506 88 497 q 71 528 69 514 q 93 590 72 554 q 158 658 114 626 q 270 713 201 690 q 436 736 339 736 q 717 658 626 736 q 808 436 808 579 l 808 38 q 797 11 808 22 q 771 0 786 0 l 528 0 q 501 11 513 0 q 490 38 490 22 l 490 76 q 409 10 460 35 q 293 -14 358 -14 q 183 3 233 -14 q 98 49 133 19 q 43 119 63 79 q 24 207 24 160 m 389 192 q 454 217 429 192 q 479 300 479 243 l 397 282 q 349 260 361 274 q 336 231 336 246 q 349 203 336 215 q 389 192 363 192 m 388 951 q 399 922 388 933 q 429 910 411 910 q 459 922 447 910 q 471 951 471 933 q 459 981 471 969 q 429 993 447 993 q 399 981 411 993 q 388 951 388 969 m 290 951 q 331 1047 290 1010 q 429 1083 371 1083 q 528 1047 488 1083 q 568 951 568 1010 q 528 856 568 893 q 429 819 488 819 q 331 856 371 819 q 290 951 290 893 z "},"ã":{"ha":864,"x_min":24,"x_max":808,"o":"m 24 207 q 45 297 24 257 q 106 365 67 336 q 202 415 146 394 q 328 447 258 435 l 475 471 q 469 525 475 508 q 433 542 463 542 q 404 535 415 542 q 384 519 393 528 q 365 504 375 511 q 338 497 354 497 l 101 497 q 78 506 88 497 q 71 528 69 514 q 93 590 72 554 q 158 658 114 626 q 270 713 201 690 q 436 736 339 736 q 717 658 626 736 q 808 436 808 579 l 808 38 q 797 11 808 22 q 771 0 786 0 l 528 0 q 501 11 513 0 q 490 38 490 22 l 490 76 q 409 10 460 35 q 293 -14 358 -14 q 183 3 233 -14 q 98 49 133 19 q 43 119 63 79 q 24 207 24 160 m 389 192 q 454 217 429 192 q 479 300 479 243 l 397 282 q 349 260 361 274 q 336 231 336 246 q 349 203 336 215 q 389 192 363 192 m 524 819 q 470 827 492 819 q 431 844 449 835 q 397 862 413 854 q 360 869 381 869 q 335 863 343 869 q 320 848 326 856 q 308 833 314 840 q 290 826 301 826 l 174 826 q 155 833 163 826 q 147 851 147 840 q 156 913 147 875 q 185 985 164 950 q 242 1044 206 1019 q 336 1069 279 1069 q 389 1062 367 1069 q 429 1044 411 1054 q 463 1027 447 1035 q 500 1019 479 1019 q 524 1026 515 1019 q 538 1041 532 1033 q 551 1056 544 1049 q 569 1063 558 1063 l 686 1063 q 706 1055 699 1063 q 713 1036 713 1047 q 704 976 713 1013 q 675 904 696 939 q 617 844 654 869 q 524 819 581 819 z "},"æ":{"ha":1299,"x_min":24,"x_max":1263,"o":"m 24 207 q 45 297 24 257 q 106 365 67 336 q 202 415 146 394 q 328 447 258 435 l 475 471 q 469 525 475 508 q 433 542 463 542 q 404 535 415 542 q 384 519 393 528 q 365 504 375 511 q 338 497 354 497 l 101 497 q 71 528 71 497 q 92 590 71 554 q 156 658 113 626 q 269 713 200 690 q 436 736 339 736 q 567 723 514 736 q 654 685 619 710 q 751 722 699 708 q 867 736 804 736 q 1043 706 968 736 q 1167 624 1118 675 q 1239 503 1215 572 q 1263 358 1263 435 l 1263 317 q 1251 290 1263 301 q 1225 279 1240 279 l 811 279 l 811 272 q 823 209 811 231 q 865 188 835 188 q 886 194 878 188 q 906 213 894 201 q 926 228 918 225 q 951 232 935 232 l 1214 232 q 1244 201 1244 232 q 1222 138 1244 175 q 1152 67 1199 101 q 1035 10 1106 33 q 868 -14 964 -14 q 594 71 696 -14 q 527 27 563 43 q 456 1 492 11 q 386 -11 421 -8 q 321 -14 351 -14 q 194 3 250 -14 q 101 49 139 19 q 44 119 64 79 q 24 207 24 160 m 389 192 q 454 217 429 192 q 479 300 479 243 l 397 282 q 349 260 361 274 q 336 231 336 246 q 349 203 336 215 q 389 192 363 192 m 867 542 q 811 458 811 542 l 811 453 l 922 453 l 922 458 q 867 542 922 542 z "},"ǽ":{"ha":1299,"x_min":24,"x_max":1263,"o":"m 24 207 q 45 297 24 257 q 106 365 67 336 q 202 415 146 394 q 328 447 258 435 l 475 471 q 469 525 475 508 q 433 542 463 542 q 404 535 415 542 q 384 519 393 528 q 365 504 375 511 q 338 497 354 497 l 101 497 q 71 528 71 497 q 92 590 71 554 q 156 658 113 626 q 269 713 200 690 q 436 736 339 736 q 567 723 514 736 q 654 685 619 710 q 751 722 699 708 q 867 736 804 736 q 1043 706 968 736 q 1167 624 1118 675 q 1239 503 1215 572 q 1263 358 1263 435 l 1263 317 q 1251 290 1263 301 q 1225 279 1240 279 l 811 279 l 811 272 q 823 209 811 231 q 865 188 835 188 q 886 194 878 188 q 906 213 894 201 q 926 228 918 225 q 951 232 935 232 l 1214 232 q 1244 201 1244 232 q 1222 138 1244 175 q 1152 67 1199 101 q 1035 10 1106 33 q 868 -14 964 -14 q 594 71 696 -14 q 527 27 563 43 q 456 1 492 11 q 386 -11 421 -8 q 321 -14 351 -14 q 194 3 250 -14 q 101 49 139 19 q 44 119 64 79 q 24 207 24 160 m 389 192 q 454 217 429 192 q 479 300 479 243 l 397 282 q 349 260 361 274 q 336 231 336 246 q 349 203 336 215 q 389 192 363 192 m 867 542 q 811 458 811 542 l 811 453 l 922 453 l 922 458 q 867 542 922 542 m 667 1036 q 692 1058 682 1054 q 718 1063 703 1063 l 976 1063 q 1003 1035 1003 1063 q 996 1018 1003 1025 l 792 850 q 768 833 781 840 q 733 826 756 826 l 543 826 q 521 849 521 826 q 528 867 521 860 l 667 1036 z "},"b":{"ha":918,"x_min":63,"x_max":875,"o":"m 579 736 q 692 717 639 736 q 784 658 744 697 q 847 558 824 618 q 874 417 871 499 q 875 362 875 385 q 874 307 875 339 q 846 159 869 219 q 783 60 822 99 q 692 3 744 21 q 579 -14 639 -14 q 457 9 507 -14 q 374 69 407 32 l 374 38 q 363 11 374 22 q 336 0 351 0 l 100 0 q 74 11 85 0 q 63 38 63 22 l 63 949 q 74 975 63 964 q 100 986 85 986 l 357 986 q 383 975 372 986 q 394 949 394 964 l 394 671 q 474 719 428 701 q 579 736 521 736 m 533 407 q 516 466 529 444 q 464 488 503 488 q 413 469 428 488 q 394 418 397 451 q 392 367 392 386 q 394 315 392 347 q 411 256 397 278 q 464 235 425 235 q 516 256 503 235 q 533 315 529 278 q 536 361 536 336 q 533 407 536 386 z "},"c":{"ha":864,"x_min":40,"x_max":839,"o":"m 382 410 q 382 311 381 350 q 395 245 385 267 q 438 224 406 224 q 472 235 463 224 q 489 265 481 246 q 529 293 500 293 l 800 293 q 827 282 815 293 q 838 256 839 271 q 827 215 836 240 q 799 159 818 189 q 748 99 779 129 q 672 43 717 68 q 567 2 626 18 q 431 -14 507 -14 q 282 7 351 -14 q 160 68 213 28 q 77 167 108 108 q 42 304 46 226 q 40 360 40 326 q 42 417 40 393 q 77 553 46 493 q 160 653 108 613 q 282 715 213 694 q 431 736 351 736 q 617 704 540 736 q 742 628 694 672 q 813 540 790 585 q 838 467 836 494 q 827 440 839 451 q 800 429 815 429 l 529 429 q 505 437 514 429 q 489 457 496 444 q 469 488 479 476 q 438 499 458 499 q 394 475 406 499 q 382 410 383 451 z "},"ć":{"ha":864,"x_min":40,"x_max":839,"o":"m 382 410 q 382 311 381 350 q 395 245 385 267 q 438 224 406 224 q 472 235 463 224 q 489 265 481 246 q 529 293 500 293 l 800 293 q 827 282 815 293 q 838 256 839 271 q 827 215 836 240 q 799 159 818 189 q 748 99 779 129 q 672 43 717 68 q 567 2 626 18 q 431 -14 507 -14 q 282 7 351 -14 q 160 68 213 28 q 77 167 108 108 q 42 304 46 226 q 40 360 40 326 q 42 417 40 393 q 77 553 46 493 q 160 653 108 613 q 282 715 213 694 q 431 736 351 736 q 617 704 540 736 q 742 628 694 672 q 813 540 790 585 q 838 467 836 494 q 827 440 839 451 q 800 429 815 429 l 529 429 q 505 437 514 429 q 489 457 496 444 q 469 488 479 476 q 438 499 458 499 q 394 475 406 499 q 382 410 383 451 m 446 1036 q 472 1058 461 1054 q 497 1063 482 1063 l 756 1063 q 782 1035 782 1063 q 775 1018 782 1025 l 571 850 q 547 833 560 840 q 513 826 535 826 l 322 826 q 300 849 300 826 q 307 867 300 860 l 446 1036 z "},"č":{"ha":864,"x_min":40,"x_max":839,"o":"m 382 410 q 382 311 381 350 q 395 245 385 267 q 438 224 406 224 q 472 235 463 224 q 489 265 481 246 q 529 293 500 293 l 800 293 q 827 282 815 293 q 838 256 839 271 q 827 215 836 240 q 799 159 818 189 q 748 99 779 129 q 672 43 717 68 q 567 2 626 18 q 431 -14 507 -14 q 282 7 351 -14 q 160 68 213 28 q 77 167 108 108 q 42 304 46 226 q 40 360 40 326 q 42 417 40 393 q 77 553 46 493 q 160 653 108 613 q 282 715 213 694 q 431 736 351 736 q 617 704 540 736 q 742 628 694 672 q 813 540 790 585 q 838 467 836 494 q 827 440 839 451 q 800 429 815 429 l 529 429 q 505 437 514 429 q 489 457 496 444 q 469 488 479 476 q 438 499 458 499 q 394 475 406 499 q 382 410 383 451 m 356 826 q 329 832 340 826 q 304 853 318 838 l 149 1022 q 142 1040 142 1029 q 164 1063 142 1063 l 256 1063 q 283 1061 269 1063 q 311 1053 296 1060 l 439 994 l 567 1053 q 595 1061 582 1060 q 622 1063 608 1063 l 714 1063 q 736 1040 736 1063 q 729 1022 736 1029 l 574 853 q 549 832 560 838 q 522 826 538 826 l 356 826 z "},"ç":{"ha":864,"x_min":40,"x_max":839,"o":"m 382 410 q 382 311 381 350 q 395 245 385 267 q 438 224 406 224 q 472 235 463 224 q 489 265 481 246 q 529 293 500 293 l 800 293 q 827 282 815 293 q 838 256 839 271 q 816 189 836 233 q 749 100 796 144 q 628 22 703 56 q 440 -14 553 -12 l 415 -62 q 438 -58 424 -60 q 457 -56 453 -56 q 540 -90 510 -56 q 569 -181 569 -125 q 532 -271 569 -236 q 432 -306 494 -306 q 380 -299 404 -306 q 339 -281 356 -292 q 317 -258 322 -269 q 325 -235 313 -246 l 354 -210 q 369 -201 363 -201 q 384 -204 376 -201 q 403 -210 392 -207 q 432 -214 414 -214 q 461 -203 451 -214 q 471 -181 471 -193 q 462 -158 471 -168 q 432 -147 453 -147 q 412 -150 422 -147 q 392 -154 401 -153 q 373 -155 382 -156 q 357 -147 364 -154 l 328 -118 q 317 -100 318 -108 q 325 -72 315 -92 l 353 -8 q 232 25 288 0 q 135 90 176 50 q 70 183 94 129 q 42 304 46 236 q 40 360 40 326 q 42 417 40 393 q 77 553 46 493 q 160 653 108 613 q 282 715 213 694 q 431 736 351 736 q 617 704 540 736 q 742 628 694 672 q 813 540 790 585 q 838 467 836 494 q 827 440 839 451 q 800 429 815 429 l 529 429 q 505 437 514 429 q 489 457 496 444 q 469 488 479 476 q 438 499 458 499 q 394 475 406 499 q 382 410 383 451 z "},"ĉ":{"ha":864,"x_min":40,"x_max":839,"o":"m 382 410 q 382 311 381 350 q 395 245 385 267 q 438 224 406 224 q 472 235 463 224 q 489 265 481 246 q 529 293 500 293 l 800 293 q 827 282 815 293 q 838 256 839 271 q 827 215 836 240 q 799 159 818 189 q 748 99 779 129 q 672 43 717 68 q 567 2 626 18 q 431 -14 507 -14 q 282 7 351 -14 q 160 68 213 28 q 77 167 108 108 q 42 304 46 226 q 40 360 40 326 q 42 417 40 393 q 77 553 46 493 q 160 653 108 613 q 282 715 213 694 q 431 736 351 736 q 617 704 540 736 q 742 628 694 672 q 813 540 790 585 q 838 467 836 494 q 827 440 839 451 q 800 429 815 429 l 529 429 q 505 437 514 429 q 489 457 496 444 q 469 488 479 476 q 438 499 458 499 q 394 475 406 499 q 382 410 383 451 m 522 1063 q 549 1057 538 1063 q 574 1036 560 1051 l 729 867 q 736 849 736 860 q 714 826 736 826 l 622 826 q 595 828 608 826 q 567 836 582 829 l 439 894 l 311 836 q 283 828 296 829 q 256 826 269 826 l 164 826 q 142 849 142 826 q 149 867 142 860 l 304 1036 q 329 1057 318 1051 q 356 1063 340 1063 l 522 1063 z "},"ċ":{"ha":864,"x_min":40,"x_max":839,"o":"m 382 410 q 382 311 381 350 q 395 245 385 267 q 438 224 406 224 q 472 235 463 224 q 489 265 481 246 q 529 293 500 293 l 800 293 q 827 282 815 293 q 838 256 839 271 q 827 215 836 240 q 799 159 818 189 q 748 99 779 129 q 672 43 717 68 q 567 2 626 18 q 431 -14 507 -14 q 282 7 351 -14 q 160 68 213 28 q 77 167 108 108 q 42 304 46 226 q 40 360 40 326 q 42 417 40 393 q 77 553 46 493 q 160 653 108 613 q 282 715 213 694 q 431 736 351 736 q 617 704 540 736 q 742 628 694 672 q 813 540 790 585 q 838 467 836 494 q 827 440 839 451 q 800 429 815 429 l 529 429 q 505 437 514 429 q 489 457 496 444 q 469 488 479 476 q 438 499 458 499 q 394 475 406 499 q 382 410 383 451 m 531 1072 q 553 1063 544 1072 q 563 1040 563 1054 l 563 858 q 553 835 563 844 q 531 826 544 826 l 349 826 q 326 835 335 826 q 317 858 317 844 l 317 1040 q 326 1063 317 1054 q 349 1072 335 1072 l 531 1072 z "},"d":{"ha":918,"x_min":43,"x_max":856,"o":"m 339 736 q 444 719 397 736 q 524 671 490 701 l 524 949 q 535 975 524 964 q 561 986 546 986 l 818 986 q 844 975 833 986 q 856 949 856 964 l 856 38 q 844 11 856 22 q 818 0 833 0 l 582 0 q 556 11 567 0 q 544 38 544 22 l 544 69 q 461 9 511 32 q 339 -14 411 -14 q 226 3 278 -14 q 135 60 174 21 q 72 159 96 99 q 44 307 49 219 q 43 362 43 339 q 44 417 43 385 q 71 558 47 499 q 134 658 94 618 q 226 717 174 697 q 339 736 278 736 m 385 407 q 382 361 382 386 q 385 315 382 336 q 402 256 389 278 q 454 235 415 235 q 507 256 493 235 q 524 315 521 278 q 526 367 526 347 q 524 418 526 386 q 506 469 521 451 q 454 488 490 488 q 402 466 415 488 q 385 407 389 444 z "},"ď":{"ha":1107,"x_min":43,"x_max":1239,"o":"m 339 736 q 444 719 397 736 q 524 671 490 701 l 524 949 q 535 975 524 964 q 561 986 546 986 l 818 986 q 844 975 833 986 q 856 949 856 964 l 856 38 q 844 11 856 22 q 818 0 833 0 l 582 0 q 556 11 567 0 q 544 38 544 22 l 544 69 q 461 9 511 32 q 339 -14 411 -14 q 226 3 278 -14 q 135 60 174 21 q 72 159 96 99 q 44 307 49 219 q 43 362 43 339 q 44 417 43 385 q 71 558 47 499 q 134 658 94 618 q 226 717 174 697 q 339 736 278 736 m 385 407 q 382 361 382 386 q 385 315 382 336 q 402 256 389 278 q 454 235 415 235 q 507 256 493 235 q 524 315 521 278 q 526 367 526 347 q 524 418 526 386 q 506 469 521 451 q 454 488 490 488 q 402 466 415 488 q 385 407 389 444 m 954 932 q 972 969 957 951 q 1014 986 986 986 l 1208 986 q 1230 977 1221 986 q 1239 956 1239 968 q 1238 946 1239 950 l 1161 753 q 1142 724 1156 739 q 1101 708 1129 708 l 956 708 q 934 717 943 708 q 925 739 925 726 l 925 742 l 954 932 z "},"đ":{"ha":919,"x_min":43,"x_max":935,"o":"m 339 736 q 444 719 397 736 q 524 671 490 701 l 524 761 l 482 761 q 456 772 467 761 q 444 799 444 783 l 444 869 q 456 896 444 885 q 482 907 467 907 l 524 907 l 524 949 q 535 975 524 964 q 561 986 546 986 l 818 986 q 844 975 833 986 q 856 949 856 964 l 856 907 l 897 907 q 924 896 913 907 q 935 869 935 885 l 935 799 q 924 772 935 783 q 897 761 913 761 l 856 761 l 856 38 q 844 11 856 22 q 818 0 833 0 l 582 0 q 556 11 567 0 q 544 38 544 22 l 544 79 q 462 13 513 39 q 339 -14 411 -14 q 226 3 278 -14 q 135 60 174 21 q 72 159 96 99 q 44 307 49 219 q 43 362 43 339 q 44 417 43 385 q 71 558 47 499 q 134 658 94 618 q 226 717 174 697 q 339 736 278 736 m 385 407 q 382 361 382 386 q 385 315 382 336 q 402 256 389 278 q 454 235 415 235 q 507 256 493 235 q 524 315 521 278 q 526 367 526 347 q 524 418 526 386 q 506 469 521 451 q 454 488 490 488 q 402 466 415 488 q 385 407 389 444 z "},"e":{"ha":865,"x_min":39,"x_max":831,"o":"m 379 279 l 379 272 q 391 209 379 231 q 433 188 403 188 q 454 194 446 188 q 474 213 463 201 q 494 228 486 225 q 519 232 503 232 l 782 232 q 805 224 796 232 q 813 201 814 215 q 788 138 811 175 q 719 67 765 101 q 603 10 674 33 q 436 -14 532 -14 q 272 8 344 -14 q 147 75 199 29 q 67 192 94 121 q 39 360 39 263 q 67 522 39 451 q 147 640 94 592 q 272 712 199 688 q 435 736 344 736 q 611 706 536 736 q 735 624 686 675 q 807 503 783 572 q 831 358 831 435 l 831 317 q 819 290 831 301 q 793 279 808 279 l 379 279 m 435 542 q 393 521 407 542 q 379 453 379 500 l 490 453 q 476 521 490 500 q 435 542 463 542 z "},"é":{"ha":865,"x_min":39,"x_max":831,"o":"m 379 279 l 379 272 q 391 209 379 231 q 433 188 403 188 q 454 194 446 188 q 474 213 463 201 q 494 228 486 225 q 519 232 503 232 l 782 232 q 805 224 796 232 q 813 201 814 215 q 788 138 811 175 q 719 67 765 101 q 603 10 674 33 q 436 -14 532 -14 q 272 8 344 -14 q 147 75 199 29 q 67 192 94 121 q 39 360 39 263 q 67 522 39 451 q 147 640 94 592 q 272 712 199 688 q 435 736 344 736 q 611 706 536 736 q 735 624 686 675 q 807 503 783 572 q 831 358 831 435 l 831 317 q 819 290 831 301 q 793 279 808 279 l 379 279 m 435 542 q 393 521 407 542 q 379 453 379 500 l 490 453 q 476 521 490 500 q 435 542 463 542 m 446 1036 q 472 1058 461 1054 q 497 1063 482 1063 l 756 1063 q 782 1035 782 1063 q 775 1018 782 1025 l 571 850 q 547 833 560 840 q 513 826 535 826 l 322 826 q 300 849 300 826 q 307 867 300 860 l 446 1036 z "},"ĕ":{"ha":865,"x_min":39,"x_max":831,"o":"m 379 279 l 379 272 q 391 209 379 231 q 433 188 403 188 q 454 194 446 188 q 474 213 463 201 q 494 228 486 225 q 519 232 503 232 l 782 232 q 805 224 796 232 q 813 201 814 215 q 788 138 811 175 q 719 67 765 101 q 603 10 674 33 q 436 -14 532 -14 q 272 8 344 -14 q 147 75 199 29 q 67 192 94 121 q 39 360 39 263 q 67 522 39 451 q 147 640 94 592 q 272 712 199 688 q 435 736 344 736 q 611 706 536 736 q 735 624 686 675 q 807 503 783 572 q 831 358 831 435 l 831 317 q 819 290 831 301 q 793 279 808 279 l 379 279 m 435 542 q 393 521 407 542 q 379 453 379 500 l 490 453 q 476 521 490 500 q 435 542 463 542 m 490 1036 q 497 1055 490 1047 q 517 1063 504 1063 l 647 1063 q 667 1055 660 1063 q 674 1036 674 1047 q 658 949 674 989 q 611 881 642 910 q 536 835 581 851 q 435 819 492 819 q 333 835 378 819 q 258 881 289 851 q 212 949 228 910 q 196 1036 196 989 q 203 1055 196 1047 q 222 1063 210 1063 l 353 1063 q 372 1055 365 1063 q 379 1036 379 1047 q 391 982 379 1004 q 435 960 403 960 q 478 982 467 960 q 490 1036 490 1004 z "},"ě":{"ha":865,"x_min":39,"x_max":831,"o":"m 379 279 l 379 272 q 391 209 379 231 q 433 188 403 188 q 454 194 446 188 q 474 213 463 201 q 494 228 486 225 q 519 232 503 232 l 782 232 q 805 224 796 232 q 813 201 814 215 q 788 138 811 175 q 719 67 765 101 q 603 10 674 33 q 436 -14 532 -14 q 272 8 344 -14 q 147 75 199 29 q 67 192 94 121 q 39 360 39 263 q 67 522 39 451 q 147 640 94 592 q 272 712 199 688 q 435 736 344 736 q 611 706 536 736 q 735 624 686 675 q 807 503 783 572 q 831 358 831 435 l 831 317 q 819 290 831 301 q 793 279 808 279 l 379 279 m 435 542 q 393 521 407 542 q 379 453 379 500 l 490 453 q 476 521 490 500 q 435 542 463 542 m 351 826 q 325 832 336 826 q 300 853 314 838 l 144 1022 q 138 1040 138 1029 q 160 1063 138 1063 l 251 1063 q 278 1061 265 1063 q 307 1053 292 1060 l 435 994 l 563 1053 q 591 1061 578 1060 q 618 1063 604 1063 l 710 1063 q 732 1040 732 1063 q 725 1022 732 1029 l 569 853 q 544 832 556 838 q 518 826 533 826 l 351 826 z "},"ê":{"ha":865,"x_min":39,"x_max":831,"o":"m 379 279 l 379 272 q 391 209 379 231 q 433 188 403 188 q 454 194 446 188 q 474 213 463 201 q 494 228 486 225 q 519 232 503 232 l 782 232 q 805 224 796 232 q 813 201 814 215 q 788 138 811 175 q 719 67 765 101 q 603 10 674 33 q 436 -14 532 -14 q 272 8 344 -14 q 147 75 199 29 q 67 192 94 121 q 39 360 39 263 q 67 522 39 451 q 147 640 94 592 q 272 712 199 688 q 435 736 344 736 q 611 706 536 736 q 735 624 686 675 q 807 503 783 572 q 831 358 831 435 l 831 317 q 819 290 831 301 q 793 279 808 279 l 379 279 m 435 542 q 393 521 407 542 q 379 453 379 500 l 490 453 q 476 521 490 500 q 435 542 463 542 m 518 1063 q 544 1057 533 1063 q 569 1036 556 1051 l 725 867 q 732 849 732 860 q 710 826 732 826 l 618 826 q 591 828 604 826 q 563 836 578 829 l 435 894 l 307 836 q 278 828 292 829 q 251 826 265 826 l 160 826 q 138 849 138 826 q 144 867 138 860 l 300 1036 q 325 1057 314 1051 q 351 1063 336 1063 l 518 1063 z "},"ë":{"ha":865,"x_min":39,"x_max":831,"o":"m 379 279 l 379 272 q 391 209 379 231 q 433 188 403 188 q 454 194 446 188 q 474 213 463 201 q 494 228 486 225 q 519 232 503 232 l 782 232 q 805 224 796 232 q 813 201 814 215 q 788 138 811 175 q 719 67 765 101 q 603 10 674 33 q 436 -14 532 -14 q 272 8 344 -14 q 147 75 199 29 q 67 192 94 121 q 39 360 39 263 q 67 522 39 451 q 147 640 94 592 q 272 712 199 688 q 435 736 344 736 q 611 706 536 736 q 735 624 686 675 q 807 503 783 572 q 831 358 831 435 l 831 317 q 819 290 831 301 q 793 279 808 279 l 379 279 m 435 542 q 393 521 407 542 q 379 453 379 500 l 490 453 q 476 521 490 500 q 435 542 463 542 m 356 1063 q 378 1053 369 1063 q 388 1031 388 1044 l 388 858 q 378 835 388 844 q 356 826 369 826 l 183 826 q 160 835 169 826 q 151 858 151 844 l 151 1031 q 160 1053 151 1044 q 183 1063 169 1063 l 356 1063 m 688 1063 q 710 1053 701 1063 q 719 1031 719 1044 l 719 858 q 710 835 719 844 q 688 826 701 826 l 515 826 q 492 835 501 826 q 483 858 483 844 l 483 1031 q 492 1053 483 1044 q 515 1063 501 1063 l 688 1063 z "},"ė":{"ha":865,"x_min":39,"x_max":831,"o":"m 379 279 l 379 272 q 391 209 379 231 q 433 188 403 188 q 454 194 446 188 q 474 213 463 201 q 494 228 486 225 q 519 232 503 232 l 782 232 q 805 224 796 232 q 813 201 814 215 q 788 138 811 175 q 719 67 765 101 q 603 10 674 33 q 436 -14 532 -14 q 272 8 344 -14 q 147 75 199 29 q 67 192 94 121 q 39 360 39 263 q 67 522 39 451 q 147 640 94 592 q 272 712 199 688 q 435 736 344 736 q 611 706 536 736 q 735 624 686 675 q 807 503 783 572 q 831 358 831 435 l 831 317 q 819 290 831 301 q 793 279 808 279 l 379 279 m 435 542 q 393 521 407 542 q 379 453 379 500 l 490 453 q 476 521 490 500 q 435 542 463 542 m 526 1072 q 549 1063 540 1072 q 558 1040 558 1054 l 558 858 q 549 835 558 844 q 526 826 540 826 l 344 826 q 322 835 331 826 q 313 858 313 844 l 313 1040 q 322 1063 313 1054 q 344 1072 331 1072 l 526 1072 z "},"è":{"ha":865,"x_min":39,"x_max":831,"o":"m 379 279 l 379 272 q 391 209 379 231 q 433 188 403 188 q 454 194 446 188 q 474 213 463 201 q 494 228 486 225 q 519 232 503 232 l 782 232 q 805 224 796 232 q 813 201 814 215 q 788 138 811 175 q 719 67 765 101 q 603 10 674 33 q 436 -14 532 -14 q 272 8 344 -14 q 147 75 199 29 q 67 192 94 121 q 39 360 39 263 q 67 522 39 451 q 147 640 94 592 q 272 712 199 688 q 435 736 344 736 q 611 706 536 736 q 735 624 686 675 q 807 503 783 572 q 831 358 831 435 l 831 317 q 819 290 831 301 q 793 279 808 279 l 379 279 m 435 542 q 393 521 407 542 q 379 453 379 500 l 490 453 q 476 521 490 500 q 435 542 463 542 m 569 867 q 576 849 576 860 q 554 826 576 826 l 364 826 q 329 833 342 826 q 306 850 317 840 l 101 1018 q 94 1035 94 1025 q 121 1063 94 1063 l 379 1063 q 405 1058 394 1063 q 431 1036 415 1054 l 569 867 z "},"ē":{"ha":865,"x_min":39,"x_max":831,"o":"m 379 279 l 379 272 q 391 209 379 231 q 433 188 403 188 q 454 194 446 188 q 474 213 463 201 q 494 228 486 225 q 519 232 503 232 l 782 232 q 805 224 796 232 q 813 201 814 215 q 788 138 811 175 q 719 67 765 101 q 603 10 674 33 q 436 -14 532 -14 q 272 8 344 -14 q 147 75 199 29 q 67 192 94 121 q 39 360 39 263 q 67 522 39 451 q 147 640 94 592 q 272 712 199 688 q 435 736 344 736 q 611 706 536 736 q 735 624 686 675 q 807 503 783 572 q 831 358 831 435 l 831 317 q 819 290 831 301 q 793 279 808 279 l 379 279 m 435 542 q 393 521 407 542 q 379 453 379 500 l 490 453 q 476 521 490 500 q 435 542 463 542 m 663 1035 q 685 1026 676 1035 q 694 1003 694 1017 l 694 858 q 685 835 694 844 q 663 826 676 826 l 208 826 q 185 835 194 826 q 176 858 176 844 l 176 1003 q 185 1026 176 1017 q 208 1035 194 1035 l 663 1035 z "},"ę":{"ha":865,"x_min":39,"x_max":831,"o":"m 531 -136 q 557 -147 546 -136 q 568 -174 568 -158 l 568 -268 q 557 -294 568 -283 q 531 -306 546 -306 l 511 -306 q 403 -287 449 -306 q 329 -236 358 -268 q 286 -161 300 -204 q 272 -68 272 -118 q 281 4 272 -29 q 103 123 167 36 q 39 360 39 210 q 67 522 39 451 q 147 640 94 592 q 272 712 199 688 q 435 736 344 736 q 611 706 536 736 q 735 624 686 675 q 807 503 783 572 q 831 358 831 435 l 831 317 q 819 290 831 301 q 793 279 808 279 l 379 279 l 379 272 q 391 209 379 231 q 433 188 403 188 q 454 194 446 188 q 474 213 463 201 q 494 228 486 225 q 519 232 503 232 l 782 232 q 805 224 796 232 q 813 201 814 215 q 794 147 811 178 q 741 85 776 115 q 653 28 706 54 q 528 -7 600 3 q 465 -30 483 -14 q 447 -68 447 -46 q 462 -113 447 -90 q 517 -136 476 -136 l 531 -136 m 435 542 q 393 521 407 542 q 379 453 379 500 l 490 453 q 476 521 490 500 q 435 542 463 542 z "},"f":{"ha":683,"x_min":21,"x_max":682,"o":"m 472 722 l 631 722 q 657 711 646 722 q 668 685 668 700 l 668 517 q 657 490 668 501 q 631 479 646 479 l 472 479 l 472 38 q 461 11 472 22 q 435 0 450 0 l 192 0 q 165 11 176 0 q 154 38 154 22 l 154 479 l 58 479 q 32 490 43 479 q 21 517 21 501 l 21 685 q 32 711 21 700 q 58 722 43 722 l 154 722 l 154 746 q 182 885 154 831 q 259 972 210 940 q 374 1016 308 1004 q 515 1028 440 1028 l 644 1028 q 671 1017 660 1028 q 682 990 682 1006 l 682 822 q 671 796 682 807 q 644 785 660 785 l 532 785 q 472 739 472 785 l 472 722 z "},"g":{"ha":925,"x_min":42,"x_max":863,"o":"m 43 346 q 42 381 42 367 q 43 417 42 396 q 128 658 51 581 q 338 736 206 736 q 458 710 406 736 q 543 642 510 683 l 543 685 q 554 711 543 700 q 581 722 565 722 l 824 722 q 850 711 839 722 q 861 685 861 700 l 863 24 q 832 -126 863 -64 q 748 -228 801 -189 q 623 -287 694 -268 q 469 -306 551 -306 q 273 -275 351 -306 q 147 -203 194 -244 q 79 -121 100 -162 q 57 -57 58 -79 q 67 -31 56 -42 q 94 -19 79 -19 l 365 -19 q 389 -27 381 -19 q 404 -47 397 -35 q 426 -74 414 -65 q 463 -82 438 -82 q 522 0 522 -82 l 522 92 q 444 48 490 64 q 338 32 399 32 q 219 49 272 32 q 129 102 167 65 q 69 199 92 139 q 43 346 47 258 m 522 418 q 504 469 519 451 q 453 488 489 488 q 400 466 414 488 q 383 407 386 444 q 382 381 382 396 q 383 354 382 365 q 400 295 386 317 q 453 274 414 274 q 504 292 489 274 q 522 343 519 310 q 524 381 524 354 q 522 418 524 407 z "},"ğ":{"ha":925,"x_min":42,"x_max":863,"o":"m 43 346 q 42 381 42 367 q 43 417 42 396 q 128 658 51 581 q 338 736 206 736 q 458 710 406 736 q 543 642 510 683 l 543 685 q 554 711 543 700 q 581 722 565 722 l 824 722 q 850 711 839 722 q 861 685 861 700 l 863 24 q 832 -126 863 -64 q 748 -228 801 -189 q 623 -287 694 -268 q 469 -306 551 -306 q 273 -275 351 -306 q 147 -203 194 -244 q 79 -121 100 -162 q 57 -57 58 -79 q 67 -31 56 -42 q 94 -19 79 -19 l 365 -19 q 389 -27 381 -19 q 404 -47 397 -35 q 426 -74 414 -65 q 463 -82 438 -82 q 522 0 522 -82 l 522 92 q 444 48 490 64 q 338 32 399 32 q 219 49 272 32 q 129 102 167 65 q 69 199 92 139 q 43 346 47 258 m 522 418 q 504 469 519 451 q 453 488 489 488 q 400 466 414 488 q 383 407 386 444 q 382 381 382 396 q 383 354 382 365 q 400 295 386 317 q 453 274 414 274 q 504 292 489 274 q 522 343 519 310 q 524 381 524 354 q 522 418 524 407 m 507 1036 q 514 1055 507 1047 q 533 1063 521 1063 l 664 1063 q 683 1055 676 1063 q 690 1036 690 1047 q 674 949 690 989 q 628 881 658 910 q 553 835 597 851 q 451 819 508 819 q 350 835 394 819 q 275 881 306 851 q 228 949 244 910 q 213 1036 213 989 q 219 1055 213 1047 q 239 1063 226 1063 l 369 1063 q 389 1055 382 1063 q 396 1036 396 1047 q 408 982 396 1004 q 451 960 419 960 q 495 982 483 960 q 507 1036 507 1004 z "},"ĝ":{"ha":925,"x_min":42,"x_max":863,"o":"m 43 346 q 42 381 42 367 q 43 417 42 396 q 128 658 51 581 q 338 736 206 736 q 458 710 406 736 q 543 642 510 683 l 543 685 q 554 711 543 700 q 581 722 565 722 l 824 722 q 850 711 839 722 q 861 685 861 700 l 863 24 q 832 -126 863 -64 q 748 -228 801 -189 q 623 -287 694 -268 q 469 -306 551 -306 q 273 -275 351 -306 q 147 -203 194 -244 q 79 -121 100 -162 q 57 -57 58 -79 q 67 -31 56 -42 q 94 -19 79 -19 l 365 -19 q 389 -27 381 -19 q 404 -47 397 -35 q 426 -74 414 -65 q 463 -82 438 -82 q 522 0 522 -82 l 522 92 q 444 48 490 64 q 338 32 399 32 q 219 49 272 32 q 129 102 167 65 q 69 199 92 139 q 43 346 47 258 m 522 418 q 504 469 519 451 q 453 488 489 488 q 400 466 414 488 q 383 407 386 444 q 382 381 382 396 q 383 354 382 365 q 400 295 386 317 q 453 274 414 274 q 504 292 489 274 q 522 343 519 310 q 524 381 524 354 q 522 418 524 407 m 535 1063 q 561 1057 550 1063 q 586 1036 572 1051 l 742 867 q 749 849 749 860 q 726 826 749 826 l 635 826 q 608 828 621 826 q 579 836 594 829 l 451 894 l 324 836 q 295 828 308 829 q 268 826 282 826 l 176 826 q 154 849 154 826 q 161 867 154 860 l 317 1036 q 342 1057 331 1051 q 368 1063 353 1063 l 535 1063 z "},"ģ":{"ha":925,"x_min":42,"x_max":863,"o":"m 43 346 q 42 381 42 367 q 43 417 42 396 q 128 658 51 581 q 338 736 206 736 q 458 710 406 736 q 543 642 510 683 l 543 685 q 554 711 543 700 q 581 722 565 722 l 824 722 q 850 711 839 722 q 861 685 861 700 l 863 24 q 832 -126 863 -64 q 748 -228 801 -189 q 623 -287 694 -268 q 469 -306 551 -306 q 273 -275 351 -306 q 147 -203 194 -244 q 79 -121 100 -162 q 57 -57 58 -79 q 67 -31 56 -42 q 94 -19 79 -19 l 365 -19 q 389 -27 381 -19 q 404 -47 397 -35 q 426 -74 414 -65 q 463 -82 438 -82 q 522 0 522 -82 l 522 92 q 444 48 490 64 q 338 32 399 32 q 219 49 272 32 q 129 102 167 65 q 69 199 92 139 q 43 346 47 258 m 522 418 q 504 469 519 451 q 453 488 489 488 q 400 466 414 488 q 383 407 386 444 q 382 381 382 396 q 383 354 382 365 q 400 295 386 317 q 453 274 414 274 q 504 292 489 274 q 522 343 519 310 q 524 381 524 354 q 522 418 524 407 m 625 881 q 608 844 622 861 q 565 826 593 826 l 371 826 q 349 835 358 826 q 340 857 340 844 q 342 867 340 862 l 418 1060 q 437 1089 424 1074 q 478 1104 450 1104 l 624 1104 q 645 1095 636 1104 q 654 1074 654 1086 l 654 1071 l 625 881 z "},"ġ":{"ha":925,"x_min":42,"x_max":863,"o":"m 43 346 q 42 381 42 367 q 43 417 42 396 q 128 658 51 581 q 338 736 206 736 q 458 710 406 736 q 543 642 510 683 l 543 685 q 554 711 543 700 q 581 722 565 722 l 824 722 q 850 711 839 722 q 861 685 861 700 l 863 24 q 832 -126 863 -64 q 748 -228 801 -189 q 623 -287 694 -268 q 469 -306 551 -306 q 273 -275 351 -306 q 147 -203 194 -244 q 79 -121 100 -162 q 57 -57 58 -79 q 67 -31 56 -42 q 94 -19 79 -19 l 365 -19 q 389 -27 381 -19 q 404 -47 397 -35 q 426 -74 414 -65 q 463 -82 438 -82 q 522 0 522 -82 l 522 92 q 444 48 490 64 q 338 32 399 32 q 219 49 272 32 q 129 102 167 65 q 69 199 92 139 q 43 346 47 258 m 522 418 q 504 469 519 451 q 453 488 489 488 q 400 466 414 488 q 383 407 386 444 q 382 381 382 396 q 383 354 382 365 q 400 295 386 317 q 453 274 414 274 q 504 292 489 274 q 522 343 519 310 q 524 381 524 354 q 522 418 524 407 m 543 1072 q 566 1063 557 1072 q 575 1040 575 1054 l 575 858 q 566 835 575 844 q 543 826 557 826 l 361 826 q 338 835 347 826 q 329 858 329 844 l 329 1040 q 338 1063 329 1054 q 361 1072 347 1072 l 543 1072 z "},"h":{"ha":951,"x_min":63,"x_max":896,"o":"m 408 38 q 397 11 408 22 q 371 0 386 0 l 100 0 q 74 11 85 0 q 63 38 63 22 l 63 949 q 74 975 63 964 q 100 986 85 986 l 371 986 q 397 975 386 986 q 408 949 408 964 l 408 650 q 499 713 444 690 q 619 736 554 736 q 722 717 672 736 q 810 660 772 699 q 872 563 849 622 q 896 421 896 503 l 896 38 q 885 11 896 22 q 858 0 874 0 l 586 0 q 560 11 571 0 q 549 38 549 22 l 549 411 q 479 488 549 488 q 427 468 446 488 q 408 411 408 449 l 408 38 z "},"ħ":{"ha":953,"x_min":-10,"x_max":897,"o":"m 410 38 q 399 11 410 22 q 372 0 388 0 l 101 0 q 75 11 86 0 q 64 38 64 22 l 64 747 l 28 747 q 1 758 13 747 q -10 785 -10 769 l -10 856 q 1 882 -10 871 q 28 893 13 893 l 64 893 l 64 949 q 75 975 64 964 q 101 986 86 986 l 372 986 q 399 975 388 986 q 410 949 410 964 l 410 893 l 443 893 q 469 882 458 893 q 481 856 481 871 l 481 785 q 469 758 481 769 q 443 747 458 747 l 410 747 l 410 650 q 501 713 446 690 q 621 736 556 736 q 724 717 674 736 q 812 660 774 699 q 874 563 850 622 q 897 421 897 503 l 897 39 q 886 13 897 24 q 860 1 875 1 l 588 1 q 561 13 572 1 q 550 39 550 24 l 550 411 q 481 488 550 488 q 428 468 447 488 q 410 411 410 449 l 410 38 z "},"ĥ":{"ha":951,"x_min":63,"x_max":896,"o":"m 408 38 q 397 11 408 22 q 371 0 386 0 l 100 0 q 74 11 85 0 q 63 38 63 22 l 63 949 q 74 975 63 964 q 100 986 85 986 l 371 986 q 397 975 386 986 q 408 949 408 964 l 408 650 q 499 713 444 690 q 619 736 554 736 q 722 717 672 736 q 810 660 772 699 q 872 563 849 622 q 896 421 896 503 l 896 38 q 885 11 896 22 q 858 0 874 0 l 586 0 q 560 11 571 0 q 549 38 549 22 l 549 411 q 479 488 549 488 q 427 468 446 488 q 408 411 408 449 l 408 38 m 563 1278 q 589 1272 578 1278 q 614 1251 600 1267 l 769 1082 q 776 1064 776 1075 q 754 1042 776 1042 l 663 1042 q 635 1043 649 1042 q 607 1051 622 1044 l 479 1110 l 351 1051 q 323 1043 336 1044 q 296 1042 310 1042 l 204 1042 q 182 1064 182 1042 q 189 1082 182 1075 l 344 1251 q 369 1272 358 1267 q 396 1278 381 1278 l 563 1278 z "},"i":{"ha":449,"x_min":63,"x_max":386,"o":"m 100 0 q 74 11 85 0 q 63 38 63 22 l 63 685 q 74 711 63 700 q 100 722 85 722 l 349 722 q 375 711 364 722 q 386 685 386 700 l 386 38 q 375 11 386 22 q 349 0 364 0 l 100 0 m 379 836 q 368 810 379 821 q 342 799 357 799 l 107 799 q 81 810 92 799 q 69 836 69 821 l 69 1004 q 81 1031 69 1019 q 107 1042 92 1042 l 342 1042 q 368 1031 357 1042 q 379 1004 379 1019 l 379 836 z "},"í":{"ha":449,"x_min":63,"x_max":571,"o":"m 100 0 q 74 11 85 0 q 63 38 63 22 l 63 685 q 74 711 63 700 q 100 722 85 722 l 349 722 q 375 711 364 722 q 386 685 386 700 l 386 38 q 375 11 386 22 q 349 0 364 0 l 100 0 m 235 1036 q 260 1058 250 1054 q 286 1063 271 1063 l 544 1063 q 571 1035 571 1063 q 564 1018 571 1025 l 360 850 q 336 833 349 840 q 301 826 324 826 l 111 826 q 89 849 89 826 q 96 867 89 860 l 235 1036 z "},"ĭ":{"ha":449,"x_min":-15,"x_max":463,"o":"m 100 0 q 74 11 85 0 q 63 38 63 22 l 63 685 q 74 711 63 700 q 100 722 85 722 l 349 722 q 375 711 364 722 q 386 685 386 700 l 386 38 q 375 11 386 22 q 349 0 364 0 l 100 0 m 279 1036 q 286 1055 279 1047 q 306 1063 293 1063 l 436 1063 q 456 1055 449 1063 q 463 1036 463 1047 q 447 949 463 989 q 400 881 431 910 q 325 835 369 851 q 224 819 281 819 q 122 835 167 819 q 47 881 78 851 q 1 949 17 910 q -15 1036 -15 989 q -8 1055 -15 1047 q 11 1063 -1 1063 l 142 1063 q 161 1055 154 1063 q 168 1036 168 1047 q 180 982 168 1004 q 224 960 192 960 q 267 982 256 960 q 279 1036 279 1004 z "},"î":{"ha":449,"x_min":-74,"x_max":521,"o":"m 100 0 q 74 11 85 0 q 63 38 63 22 l 63 685 q 74 711 63 700 q 100 722 85 722 l 349 722 q 375 711 364 722 q 386 685 386 700 l 386 38 q 375 11 386 22 q 349 0 364 0 l 100 0 m 307 1063 q 333 1057 322 1063 q 358 1036 344 1051 l 514 867 q 521 849 521 860 q 499 826 521 826 l 407 826 q 380 828 393 826 q 351 836 367 829 l 224 894 l 96 836 q 67 828 81 829 q 40 826 54 826 l -51 826 q -74 849 -74 826 q -67 867 -74 860 l 89 1036 q 114 1057 103 1051 q 140 1063 125 1063 l 307 1063 z "},"ï":{"ha":449,"x_min":-60,"x_max":508,"o":"m 144 1063 q 167 1053 158 1063 q 176 1031 176 1044 l 176 858 q 167 835 176 844 q 144 826 158 826 l -28 826 q -51 835 -42 826 q -60 858 -60 844 l -60 1031 q -51 1053 -60 1044 q -28 1063 -42 1063 l 144 1063 m 476 1063 q 499 1053 490 1063 q 508 1031 508 1044 l 508 858 q 499 835 508 844 q 476 826 490 826 l 304 826 q 281 835 290 826 q 272 858 272 844 l 272 1031 q 281 1053 272 1044 q 304 1063 290 1063 l 476 1063 m 100 0 q 74 11 85 0 q 63 38 63 22 l 63 685 q 74 711 63 700 q 100 722 85 722 l 349 722 q 375 711 364 722 q 386 685 386 700 l 386 38 q 375 11 386 22 q 349 0 364 0 l 100 0 z "},"ì":{"ha":449,"x_min":-121,"x_max":386,"o":"m 354 867 q 361 849 361 860 q 339 826 361 826 l 149 826 q 114 833 126 826 q 90 850 101 840 l -114 1018 q -121 1035 -121 1025 q -94 1063 -121 1063 l 164 1063 q 190 1058 179 1063 q 215 1036 200 1054 l 354 867 m 100 0 q 74 11 85 0 q 63 38 63 22 l 63 685 q 74 711 63 700 q 100 722 85 722 l 349 722 q 375 711 364 722 q 386 685 386 700 l 386 38 q 375 11 386 22 q 349 0 364 0 l 100 0 z "},"ī":{"ha":449,"x_min":-35,"x_max":483,"o":"m 451 1035 q 474 1026 465 1035 q 483 1003 483 1017 l 483 858 q 474 835 483 844 q 451 826 465 826 l -3 826 q -26 835 -17 826 q -35 858 -35 844 l -35 1003 q -26 1026 -35 1017 q -3 1035 -17 1035 l 451 1035 m 100 0 q 74 11 85 0 q 63 38 63 22 l 63 685 q 74 711 63 700 q 100 722 85 722 l 349 722 q 375 711 364 722 q 386 685 386 700 l 386 38 q 375 11 386 22 q 349 0 364 0 l 100 0 z "},"į":{"ha":449,"x_min":63,"x_max":386,"o":"m 349 -111 q 375 -122 364 -111 q 386 -149 386 -133 l 386 -229 q 375 -256 386 -244 q 349 -267 364 -267 l 329 -267 q 228 -250 271 -267 q 158 -205 186 -233 q 117 -138 131 -176 q 104 -56 104 -100 q 106 -26 104 -40 q 110 0 107 -12 l 100 0 q 74 11 85 0 q 63 38 63 22 l 63 685 q 74 711 63 700 q 100 722 85 722 l 349 722 q 375 711 364 722 q 386 685 386 700 l 386 38 q 375 11 386 22 q 349 0 364 0 l 335 0 q 280 -17 294 0 q 265 -56 265 -33 q 280 -94 265 -78 q 335 -111 294 -111 l 349 -111 m 379 836 q 368 810 379 821 q 342 799 357 799 l 107 799 q 81 810 92 799 q 69 836 69 821 l 69 1004 q 81 1031 69 1019 q 107 1042 92 1042 l 342 1042 q 368 1031 357 1042 q 379 1004 379 1019 l 379 836 z "},"ĩ":{"ha":449,"x_min":-58,"x_max":507,"o":"m 318 819 q 265 827 286 819 q 225 844 243 835 q 191 862 207 854 q 154 869 175 869 q 129 863 138 869 q 115 848 121 856 q 102 833 108 840 q 85 826 96 826 l -32 826 q -51 833 -43 826 q -58 851 -58 840 q -50 913 -58 875 q -21 985 -42 950 q 37 1044 0 1019 q 131 1069 74 1069 q 183 1062 161 1069 q 224 1044 206 1054 q 258 1027 242 1035 q 294 1019 274 1019 q 318 1026 310 1019 q 333 1041 326 1033 q 346 1056 339 1049 q 364 1063 353 1063 l 481 1063 q 500 1055 493 1063 q 507 1036 507 1047 q 499 976 507 1013 q 469 904 490 939 q 412 844 449 869 q 318 819 375 819 m 100 0 q 74 11 85 0 q 63 38 63 22 l 63 685 q 74 711 63 700 q 100 722 85 722 l 349 722 q 375 711 364 722 q 386 685 386 700 l 386 38 q 375 11 386 22 q 349 0 364 0 l 100 0 z "},"ı":{"ha":449,"x_min":63,"x_max":386,"o":"m 100 0 q 74 11 85 0 q 63 38 63 22 l 63 685 q 74 711 63 700 q 100 722 85 722 l 349 722 q 375 711 364 722 q 386 685 386 700 l 386 38 q 375 11 386 22 q 349 0 364 0 l 100 0 z "},"j":{"ha":479,"x_min":-97,"x_max":417,"o":"m -60 -264 q -86 -253 -75 -264 q -97 -226 -97 -242 l -97 -58 q -86 -32 -97 -43 q -60 -21 -75 -21 l 21 -21 q 67 -2 53 -21 q 81 49 81 17 l 81 685 q 92 711 81 700 q 118 722 103 722 l 379 722 q 406 711 394 722 q 417 685 417 700 l 417 40 q 390 -95 417 -37 q 315 -190 363 -153 q 203 -246 268 -228 q 63 -264 138 -264 l -60 -264 m 410 836 q 399 810 410 821 q 372 799 388 799 l 125 799 q 99 810 110 799 q 88 836 88 821 l 88 1004 q 99 1031 88 1019 q 125 1042 110 1042 l 372 1042 q 399 1031 388 1042 q 410 1004 410 1019 l 410 836 z "},"ĵ":{"ha":669,"x_min":31,"x_max":628,"o":"m 68 -264 q 42 -253 53 -264 q 31 -226 31 -242 l 31 -10 q 42 17 31 6 q 68 28 53 28 l 208 28 q 254 47 240 28 q 268 97 268 65 l 268 468 l 72 468 q 46 479 57 468 q 35 506 35 490 l 35 685 q 46 711 35 700 q 72 722 57 722 l 569 722 q 596 711 585 722 q 607 685 607 700 l 607 97 q 580 -56 607 11 q 506 -169 553 -122 q 393 -240 458 -215 q 253 -264 328 -264 l 68 -264 m 414 1063 q 440 1057 429 1063 q 465 1036 451 1051 l 621 867 q 628 849 628 860 q 606 826 628 826 l 514 826 q 487 828 500 826 q 458 836 474 829 l 331 894 l 203 836 q 174 828 188 829 q 147 826 161 826 l 56 826 q 33 849 33 826 q 40 867 33 860 l 196 1036 q 221 1057 210 1051 q 247 1063 232 1063 l 414 1063 z "},"ȷ":{"ha":669,"x_min":31,"x_max":607,"o":"m 68 -264 q 42 -253 53 -264 q 31 -226 31 -242 l 31 -10 q 42 17 31 6 q 68 28 53 28 l 208 28 q 254 47 240 28 q 268 97 268 65 l 268 468 l 72 468 q 46 479 57 468 q 35 506 35 490 l 35 685 q 46 711 35 700 q 72 722 57 722 l 569 722 q 596 711 585 722 q 607 685 607 700 l 607 97 q 580 -56 607 11 q 506 -169 553 -122 q 393 -240 458 -215 q 253 -264 328 -264 l 68 -264 z "},"k":{"ha":893,"x_min":63,"x_max":890,"o":"m 381 499 l 503 699 q 515 713 506 704 q 543 722 524 722 l 824 722 q 847 713 838 722 q 857 689 857 703 q 855 676 857 682 q 850 668 853 671 l 660 397 l 885 51 q 890 33 890 43 q 881 10 890 19 q 857 0 871 0 l 565 0 q 535 10 544 0 q 522 24 525 21 l 381 260 l 381 38 q 369 11 381 22 q 343 0 358 0 l 100 0 q 74 11 85 0 q 63 38 63 22 l 63 949 q 74 975 63 964 q 100 986 85 986 l 343 986 q 369 975 358 986 q 381 949 381 964 l 381 499 z "},"ķ":{"ha":893,"x_min":63,"x_max":890,"o":"m 381 499 l 503 699 q 515 713 506 704 q 543 722 524 722 l 824 722 q 847 713 838 722 q 857 689 857 703 q 855 676 857 682 q 850 668 853 671 l 660 397 l 885 51 q 890 33 890 43 q 881 10 890 19 q 857 0 871 0 l 565 0 q 535 10 544 0 q 522 24 525 21 l 381 260 l 381 38 q 369 11 381 22 q 343 0 358 0 l 100 0 q 74 11 85 0 q 63 38 63 22 l 63 949 q 74 975 63 964 q 100 986 85 986 l 343 986 q 369 975 358 986 q 381 949 381 964 l 381 499 m 286 -124 q 303 -87 289 -104 q 346 -69 318 -69 l 540 -69 q 562 -78 553 -69 q 571 -100 571 -87 q 569 -110 571 -106 l 493 -303 q 474 -332 488 -317 q 433 -347 461 -347 l 288 -347 q 266 -338 275 -347 q 257 -317 257 -329 l 257 -314 l 286 -124 z "},"ĸ":{"ha":893,"x_min":63,"x_max":890,"o":"m 381 457 l 517 699 q 528 713 519 704 q 557 722 538 722 l 824 722 q 847 713 838 722 q 857 689 857 703 q 855 676 857 682 q 850 668 853 671 l 674 369 l 885 51 q 890 33 890 43 q 881 10 890 19 q 857 0 871 0 l 565 0 q 535 10 544 0 q 522 24 525 21 l 381 260 l 381 38 q 369 11 381 22 q 343 0 358 0 l 100 0 q 74 11 85 0 q 63 38 63 22 l 63 685 q 74 711 63 700 q 100 722 85 722 l 343 722 q 369 711 358 722 q 381 685 381 700 l 381 457 z "},"l":{"ha":449,"x_min":63,"x_max":386,"o":"m 100 0 q 74 11 85 0 q 63 38 63 22 l 63 949 q 74 975 63 964 q 100 986 85 986 l 349 986 q 375 975 364 986 q 386 949 386 964 l 386 38 q 375 11 386 22 q 349 0 364 0 l 100 0 z "},"ĺ":{"ha":449,"x_min":63,"x_max":589,"o":"m 100 0 q 74 11 85 0 q 63 38 63 22 l 63 949 q 74 975 63 964 q 100 986 85 986 l 349 986 q 375 975 364 986 q 386 949 386 964 l 386 38 q 375 11 386 22 q 349 0 364 0 l 100 0 m 253 1251 q 278 1274 268 1269 q 304 1278 289 1278 l 563 1278 q 589 1250 589 1278 q 582 1233 589 1240 l 378 1065 q 354 1049 367 1056 q 319 1042 342 1042 l 129 1042 q 107 1064 107 1042 q 114 1082 107 1075 l 253 1251 z "},"ľ":{"ha":636,"x_min":63,"x_max":768,"o":"m 100 0 q 74 11 85 0 q 63 38 63 22 l 63 949 q 74 975 63 964 q 100 986 85 986 l 349 986 q 375 975 364 986 q 386 949 386 964 l 386 38 q 375 11 386 22 q 349 0 364 0 l 100 0 m 483 932 q 501 969 486 951 q 543 986 515 986 l 738 986 q 759 977 750 986 q 768 956 768 968 q 767 946 768 950 l 690 753 q 672 724 685 739 q 631 708 658 708 l 485 708 q 463 717 472 708 q 454 739 454 726 l 454 742 l 483 932 z "},"ļ":{"ha":449,"x_min":44,"x_max":386,"o":"m 100 0 q 74 11 85 0 q 63 38 63 22 l 63 949 q 74 975 63 964 q 100 986 85 986 l 349 986 q 375 975 364 986 q 386 949 386 964 l 386 38 q 375 11 386 22 q 349 0 364 0 l 100 0 m 74 -124 q 91 -87 76 -104 q 133 -69 106 -69 l 328 -69 q 349 -78 340 -69 q 358 -100 358 -87 q 357 -110 358 -106 l 281 -303 q 262 -332 275 -317 q 221 -347 249 -347 l 75 -347 q 53 -338 63 -347 q 44 -317 44 -329 l 44 -314 l 74 -124 z "},"ŀ":{"ha":708,"x_min":63,"x_max":701,"o":"m 669 624 q 692 615 683 624 q 701 592 701 606 l 701 410 q 692 387 701 396 q 669 378 683 378 l 488 378 q 465 387 474 378 q 456 410 456 396 l 456 592 q 465 615 456 606 q 488 624 474 624 l 669 624 m 100 0 q 74 11 85 0 q 63 38 63 22 l 63 949 q 74 975 63 964 q 100 986 85 986 l 349 986 q 375 975 364 986 q 386 949 386 964 l 386 38 q 375 11 386 22 q 349 0 364 0 l 100 0 z "},"ł":{"ha":556,"x_min":33,"x_max":524,"o":"m 117 543 l 117 949 q 128 975 117 964 q 154 986 139 986 l 403 986 q 429 975 418 986 q 440 949 440 964 l 440 669 l 479 685 q 494 689 489 689 q 515 681 507 689 q 524 660 524 672 l 524 510 q 493 464 524 475 l 440 443 l 440 38 q 429 11 440 22 q 403 0 418 0 l 154 0 q 128 11 139 0 q 117 38 117 22 l 117 318 l 78 303 q 63 299 67 299 q 42 307 50 299 q 33 328 33 315 l 33 478 q 64 524 33 513 l 117 543 z "},"m":{"ha":1303,"x_min":63,"x_max":1247,"o":"m 872 488 q 818 419 818 488 l 818 38 q 807 11 818 22 q 781 0 796 0 l 536 0 q 510 11 521 0 q 499 38 499 22 l 499 419 q 443 488 499 488 q 388 419 388 488 l 388 38 q 376 11 388 22 q 350 0 365 0 l 100 0 q 74 11 85 0 q 63 38 63 22 l 63 685 q 74 711 63 700 q 100 722 85 722 l 329 722 q 356 711 344 722 q 367 685 367 700 l 367 639 q 398 671 379 654 q 441 701 417 688 q 495 725 465 715 q 560 736 525 735 q 779 622 724 742 q 869 703 811 671 q 992 736 928 736 q 1091 719 1044 736 q 1172 664 1138 701 q 1227 567 1207 626 q 1247 426 1247 508 l 1247 38 q 1236 11 1247 22 q 1210 0 1225 0 l 965 0 q 939 11 950 0 q 928 38 928 22 l 928 419 q 872 488 928 488 z "},"n":{"ha":936,"x_min":63,"x_max":881,"o":"m 881 38 q 869 11 881 22 q 843 0 858 0 l 578 0 q 551 11 563 0 q 540 38 540 22 l 540 411 q 471 488 540 488 q 401 411 401 488 l 401 38 q 390 11 401 22 q 364 0 379 0 l 100 0 q 74 11 85 0 q 63 38 63 22 l 63 685 q 74 711 63 700 q 100 722 85 722 l 343 722 q 369 711 358 722 q 381 685 381 700 l 381 639 q 476 708 415 679 q 611 736 536 736 q 713 717 664 736 q 799 660 761 699 q 858 563 836 622 q 881 421 881 503 l 881 38 z "},"ń":{"ha":936,"x_min":63,"x_max":881,"o":"m 881 38 q 869 11 881 22 q 843 0 858 0 l 578 0 q 551 11 563 0 q 540 38 540 22 l 540 411 q 471 488 540 488 q 401 411 401 488 l 401 38 q 390 11 401 22 q 364 0 379 0 l 100 0 q 74 11 85 0 q 63 38 63 22 l 63 685 q 74 711 63 700 q 100 722 85 722 l 343 722 q 369 711 358 722 q 381 685 381 700 l 381 639 q 476 708 415 679 q 611 736 536 736 q 713 717 664 736 q 799 660 761 699 q 858 563 836 622 q 881 421 881 503 l 881 38 m 482 1036 q 508 1058 497 1054 q 533 1063 518 1063 l 792 1063 q 818 1035 818 1063 q 811 1018 818 1025 l 607 850 q 583 833 596 840 q 549 826 571 826 l 358 826 q 336 849 336 826 q 343 867 336 860 l 482 1036 z "},"ŉ":{"ha":936,"x_min":63,"x_max":881,"o":"m 881 38 q 869 11 881 22 q 843 0 858 0 l 578 0 q 551 11 563 0 q 540 38 540 22 l 540 411 q 471 488 540 488 q 401 411 401 488 l 401 38 q 390 11 401 22 q 364 0 379 0 l 100 0 q 74 11 85 0 q 63 38 63 22 l 63 685 q 74 711 63 700 q 100 722 85 722 l 343 722 q 369 711 358 722 q 381 685 381 700 l 381 639 q 476 708 415 679 q 611 736 536 736 q 713 717 664 736 q 799 660 761 699 q 858 563 836 622 q 881 421 881 503 l 881 38 m 146 1050 q 163 1087 149 1069 q 206 1104 178 1104 l 400 1104 q 422 1095 413 1104 q 431 1074 431 1086 q 429 1064 431 1068 l 353 871 q 334 842 347 857 q 293 826 321 826 l 147 826 q 126 835 135 826 q 117 857 117 844 l 117 860 l 146 1050 z "},"ň":{"ha":936,"x_min":63,"x_max":881,"o":"m 881 38 q 869 11 881 22 q 843 0 858 0 l 578 0 q 551 11 563 0 q 540 38 540 22 l 540 411 q 471 488 540 488 q 401 411 401 488 l 401 38 q 390 11 401 22 q 364 0 379 0 l 100 0 q 74 11 85 0 q 63 38 63 22 l 63 685 q 74 711 63 700 q 100 722 85 722 l 343 722 q 369 711 358 722 q 381 685 381 700 l 381 639 q 476 708 415 679 q 611 736 536 736 q 713 717 664 736 q 799 660 761 699 q 858 563 836 622 q 881 421 881 503 l 881 38 m 388 826 q 361 832 372 826 q 336 853 350 838 l 181 1022 q 174 1040 174 1029 q 196 1063 174 1063 l 288 1063 q 315 1061 301 1063 q 343 1053 328 1060 l 471 994 l 599 1053 q 627 1061 614 1060 q 654 1063 640 1063 l 746 1063 q 768 1040 768 1063 q 761 1022 768 1029 l 606 853 q 581 832 592 838 q 554 826 569 826 l 388 826 z "},"ņ":{"ha":936,"x_min":63,"x_max":881,"o":"m 881 38 q 869 11 881 22 q 843 0 858 0 l 578 0 q 551 11 563 0 q 540 38 540 22 l 540 411 q 471 488 540 488 q 401 411 401 488 l 401 38 q 390 11 401 22 q 364 0 379 0 l 100 0 q 74 11 85 0 q 63 38 63 22 l 63 685 q 74 711 63 700 q 100 722 85 722 l 343 722 q 369 711 358 722 q 381 685 381 700 l 381 639 q 476 708 415 679 q 611 736 536 736 q 713 717 664 736 q 799 660 761 699 q 858 563 836 622 q 881 421 881 503 l 881 38 m 331 -124 q 348 -87 333 -104 q 390 -69 363 -69 l 585 -69 q 606 -78 597 -69 q 615 -100 615 -87 q 614 -110 615 -106 l 538 -303 q 519 -332 532 -317 q 478 -347 506 -347 l 332 -347 q 310 -338 319 -347 q 301 -317 301 -329 l 301 -314 l 331 -124 z "},"ñ":{"ha":936,"x_min":63,"x_max":881,"o":"m 881 38 q 869 11 881 22 q 843 0 858 0 l 578 0 q 551 11 563 0 q 540 38 540 22 l 540 411 q 471 488 540 488 q 401 411 401 488 l 401 38 q 390 11 401 22 q 364 0 379 0 l 100 0 q 74 11 85 0 q 63 38 63 22 l 63 685 q 74 711 63 700 q 100 722 85 722 l 343 722 q 369 711 358 722 q 381 685 381 700 l 381 639 q 476 708 415 679 q 611 736 536 736 q 713 717 664 736 q 799 660 761 699 q 858 563 836 622 q 881 421 881 503 l 881 38 m 565 819 q 512 827 533 819 q 472 844 490 835 q 438 862 454 854 q 401 869 422 869 q 376 863 385 869 q 362 848 368 856 q 349 833 356 840 q 332 826 343 826 l 215 826 q 197 833 204 826 q 189 851 189 840 q 197 913 189 875 q 226 985 206 950 q 284 1044 247 1019 q 378 1069 321 1069 q 431 1062 408 1069 q 471 1044 453 1054 q 505 1027 489 1035 q 542 1019 521 1019 q 565 1026 557 1019 q 580 1041 574 1033 q 593 1056 586 1049 q 611 1063 600 1063 l 728 1063 q 747 1055 740 1063 q 754 1036 754 1047 q 746 976 754 1013 q 717 904 738 939 q 659 844 696 869 q 565 819 622 819 z "},"o":{"ha":892,"x_min":39,"x_max":853,"o":"m 446 736 q 733 658 628 736 q 849 426 838 581 q 849 296 853 361 q 446 -14 828 -14 q 43 296 64 -14 q 43 426 39 361 q 159 658 54 581 q 446 736 264 736 m 508 419 q 495 490 506 465 q 446 514 485 514 q 415 508 426 514 q 397 490 403 501 q 388 460 390 478 q 383 419 385 442 q 383 393 383 408 q 382 361 382 378 q 383 328 382 344 q 383 303 383 313 q 388 260 385 278 q 397 231 390 243 q 415 214 403 219 q 446 208 426 208 q 495 231 485 208 q 508 303 506 254 q 509 328 508 313 q 510 361 510 344 q 509 393 510 378 q 508 419 508 408 z "},"ó":{"ha":892,"x_min":39,"x_max":853,"o":"m 446 736 q 733 658 628 736 q 849 426 838 581 q 849 296 853 361 q 446 -14 828 -14 q 43 296 64 -14 q 43 426 39 361 q 159 658 54 581 q 446 736 264 736 m 508 419 q 495 490 506 465 q 446 514 485 514 q 415 508 426 514 q 397 490 403 501 q 388 460 390 478 q 383 419 385 442 q 383 393 383 408 q 382 361 382 378 q 383 328 382 344 q 383 303 383 313 q 388 260 385 278 q 397 231 390 243 q 415 214 403 219 q 446 208 426 208 q 495 231 485 208 q 508 303 506 254 q 509 328 508 313 q 510 361 510 344 q 509 393 510 378 q 508 419 508 408 m 453 1036 q 478 1058 468 1054 q 504 1063 489 1063 l 763 1063 q 789 1035 789 1063 q 782 1018 789 1025 l 578 850 q 554 833 567 840 q 519 826 542 826 l 329 826 q 307 849 307 826 q 314 867 307 860 l 453 1036 z "},"ŏ":{"ha":892,"x_min":39,"x_max":853,"o":"m 446 736 q 733 658 628 736 q 849 426 838 581 q 849 296 853 361 q 446 -14 828 -14 q 43 296 64 -14 q 43 426 39 361 q 159 658 54 581 q 446 736 264 736 m 508 419 q 495 490 506 465 q 446 514 485 514 q 415 508 426 514 q 397 490 403 501 q 388 460 390 478 q 383 419 385 442 q 383 393 383 408 q 382 361 382 378 q 383 328 382 344 q 383 303 383 313 q 388 260 385 278 q 397 231 390 243 q 415 214 403 219 q 446 208 426 208 q 495 231 485 208 q 508 303 506 254 q 509 328 508 313 q 510 361 510 344 q 509 393 510 378 q 508 419 508 408 m 501 1036 q 508 1055 501 1047 q 528 1063 515 1063 l 658 1063 q 678 1055 671 1063 q 685 1036 685 1047 q 669 949 685 989 q 622 881 653 910 q 547 835 592 851 q 446 819 503 819 q 344 835 389 819 q 269 881 300 851 q 223 949 239 910 q 207 1036 207 989 q 214 1055 207 1047 q 233 1063 221 1063 l 364 1063 q 383 1055 376 1063 q 390 1036 390 1047 q 402 982 390 1004 q 446 960 414 960 q 490 982 478 960 q 501 1036 501 1004 z "},"ô":{"ha":892,"x_min":39,"x_max":853,"o":"m 446 736 q 733 658 628 736 q 849 426 838 581 q 849 296 853 361 q 446 -14 828 -14 q 43 296 64 -14 q 43 426 39 361 q 159 658 54 581 q 446 736 264 736 m 508 419 q 495 490 506 465 q 446 514 485 514 q 415 508 426 514 q 397 490 403 501 q 388 460 390 478 q 383 419 385 442 q 383 393 383 408 q 382 361 382 378 q 383 328 382 344 q 383 303 383 313 q 388 260 385 278 q 397 231 390 243 q 415 214 403 219 q 446 208 426 208 q 495 231 485 208 q 508 303 506 254 q 509 328 508 313 q 510 361 510 344 q 509 393 510 378 q 508 419 508 408 m 529 1063 q 556 1057 544 1063 q 581 1036 567 1051 l 736 867 q 743 849 743 860 q 721 826 743 826 l 629 826 q 602 828 615 826 q 574 836 589 829 l 446 894 l 318 836 q 290 828 303 829 q 263 826 276 826 l 171 826 q 149 849 149 826 q 156 867 149 860 l 311 1036 q 336 1057 325 1051 q 363 1063 347 1063 l 529 1063 z "},"ö":{"ha":892,"x_min":39,"x_max":853,"o":"m 446 736 q 733 658 628 736 q 849 426 838 581 q 849 296 853 361 q 446 -14 828 -14 q 43 296 64 -14 q 43 426 39 361 q 159 658 54 581 q 446 736 264 736 m 508 419 q 495 490 506 465 q 446 514 485 514 q 415 508 426 514 q 397 490 403 501 q 388 460 390 478 q 383 419 385 442 q 383 393 383 408 q 382 361 382 378 q 383 328 382 344 q 383 303 383 313 q 388 260 385 278 q 397 231 390 243 q 415 214 403 219 q 446 208 426 208 q 495 231 485 208 q 508 303 506 254 q 509 328 508 313 q 510 361 510 344 q 509 393 510 378 q 508 419 508 408 m 367 1063 q 390 1053 381 1063 q 399 1031 399 1044 l 399 858 q 390 835 399 844 q 367 826 381 826 l 194 826 q 172 835 181 826 q 163 858 163 844 l 163 1031 q 172 1053 163 1044 q 194 1063 181 1063 l 367 1063 m 699 1063 q 722 1053 713 1063 q 731 1031 731 1044 l 731 858 q 722 835 731 844 q 699 826 713 826 l 526 826 q 503 835 513 826 q 494 858 494 844 l 494 1031 q 503 1053 494 1044 q 526 1063 513 1063 l 699 1063 z "},"ò":{"ha":892,"x_min":39,"x_max":853,"o":"m 446 736 q 733 658 628 736 q 849 426 838 581 q 849 296 853 361 q 446 -14 828 -14 q 43 296 64 -14 q 43 426 39 361 q 159 658 54 581 q 446 736 264 736 m 508 419 q 495 490 506 465 q 446 514 485 514 q 415 508 426 514 q 397 490 403 501 q 388 460 390 478 q 383 419 385 442 q 383 393 383 408 q 382 361 382 378 q 383 328 382 344 q 383 303 383 313 q 388 260 385 278 q 397 231 390 243 q 415 214 403 219 q 446 208 426 208 q 495 231 485 208 q 508 303 506 254 q 509 328 508 313 q 510 361 510 344 q 509 393 510 378 q 508 419 508 408 m 578 867 q 585 849 585 860 q 563 826 585 826 l 372 826 q 338 833 350 826 q 314 850 325 840 l 110 1018 q 103 1035 103 1025 q 129 1063 103 1063 l 388 1063 q 413 1058 403 1063 q 439 1036 424 1054 l 578 867 z "},"ő":{"ha":892,"x_min":39,"x_max":875,"o":"m 446 736 q 733 658 628 736 q 849 426 838 581 q 849 296 853 361 q 446 -14 828 -14 q 43 296 64 -14 q 43 426 39 361 q 159 658 54 581 q 446 736 264 736 m 508 419 q 495 490 506 465 q 446 514 485 514 q 415 508 426 514 q 397 490 403 501 q 388 460 390 478 q 383 419 385 442 q 383 393 383 408 q 382 361 382 378 q 383 328 382 344 q 383 303 383 313 q 388 260 385 278 q 397 231 390 243 q 415 214 403 219 q 446 208 426 208 q 495 231 485 208 q 508 303 506 254 q 509 328 508 313 q 510 361 510 344 q 509 393 510 378 q 508 419 508 408 m 236 1036 q 254 1056 243 1050 q 288 1063 265 1063 l 492 1063 q 519 1036 519 1063 q 511 1018 519 1026 l 353 846 q 306 826 336 826 l 176 826 q 154 849 154 826 q 156 860 154 854 q 161 869 158 865 l 236 1036 m 592 1036 q 610 1056 599 1050 q 643 1063 621 1063 l 847 1063 q 875 1036 875 1063 q 867 1018 875 1026 l 708 846 q 661 826 692 826 l 532 826 q 510 849 510 826 q 512 860 510 854 q 517 869 514 865 l 592 1036 z "},"ō":{"ha":892,"x_min":39,"x_max":853,"o":"m 446 736 q 733 658 628 736 q 849 426 838 581 q 849 296 853 361 q 446 -14 828 -14 q 43 296 64 -14 q 43 426 39 361 q 159 658 54 581 q 446 736 264 736 m 508 419 q 495 490 506 465 q 446 514 485 514 q 415 508 426 514 q 397 490 403 501 q 388 460 390 478 q 383 419 385 442 q 383 393 383 408 q 382 361 382 378 q 383 328 382 344 q 383 303 383 313 q 388 260 385 278 q 397 231 390 243 q 415 214 403 219 q 446 208 426 208 q 495 231 485 208 q 508 303 506 254 q 509 328 508 313 q 510 361 510 344 q 509 393 510 378 q 508 419 508 408 m 674 1035 q 697 1026 688 1035 q 706 1003 706 1017 l 706 858 q 697 835 706 844 q 674 826 688 826 l 219 826 q 197 835 206 826 q 188 858 188 844 l 188 1003 q 197 1026 188 1017 q 219 1035 206 1035 l 674 1035 z "},"ø":{"ha":926,"x_min":11,"x_max":914,"o":"m 465 736 q 681 701 593 736 q 818 590 769 665 l 869 611 q 885 615 879 615 q 906 607 897 615 q 914 586 914 599 l 914 492 q 883 446 914 457 l 867 439 q 870 367 869 407 q 868 296 871 328 q 465 -14 847 -14 q 104 143 194 -14 l 56 125 q 40 121 44 121 q 19 129 28 121 q 11 150 11 138 l 11 244 q 42 290 11 279 l 63 297 q 63 426 58 361 q 178 658 74 581 q 465 736 283 736 m 465 208 q 515 231 504 208 q 528 303 525 254 l 528 308 l 407 261 q 423 221 411 233 q 465 208 435 208 m 465 514 q 417 492 428 514 q 403 429 406 469 l 519 475 q 502 504 514 494 q 465 514 490 514 z "},"ǿ":{"ha":926,"x_min":11,"x_max":914,"o":"m 463 1036 q 488 1058 478 1054 q 514 1063 499 1063 l 772 1063 q 799 1035 799 1063 q 792 1018 799 1025 l 588 850 q 564 833 576 840 q 529 826 551 826 l 339 826 q 317 849 317 826 q 324 867 317 860 l 463 1036 m 465 736 q 681 701 593 736 q 818 590 769 665 l 869 611 q 885 615 879 615 q 906 607 897 615 q 914 586 914 599 l 914 492 q 883 446 914 457 l 867 439 q 870 367 869 407 q 868 296 871 328 q 465 -14 847 -14 q 104 143 194 -14 l 56 125 q 40 121 44 121 q 19 129 28 121 q 11 150 11 138 l 11 244 q 42 290 11 279 l 63 297 q 63 426 58 361 q 178 658 74 581 q 465 736 283 736 m 465 208 q 515 231 504 208 q 528 303 525 254 l 528 308 l 407 261 q 423 221 411 233 q 465 208 435 208 m 465 514 q 417 492 428 514 q 403 429 406 469 l 519 475 q 502 504 514 494 q 465 514 490 514 z "},"õ":{"ha":892,"x_min":39,"x_max":853,"o":"m 446 736 q 733 658 628 736 q 849 426 838 581 q 849 296 853 361 q 446 -14 828 -14 q 43 296 64 -14 q 43 426 39 361 q 159 658 54 581 q 446 736 264 736 m 508 419 q 495 490 506 465 q 446 514 485 514 q 415 508 426 514 q 397 490 403 501 q 388 460 390 478 q 383 419 385 442 q 383 393 383 408 q 382 361 382 378 q 383 328 382 344 q 383 303 383 313 q 388 260 385 278 q 397 231 390 243 q 415 214 403 219 q 446 208 426 208 q 495 231 485 208 q 508 303 506 254 q 509 328 508 313 q 510 361 510 344 q 509 393 510 378 q 508 419 508 408 m 540 819 q 487 827 508 819 q 447 844 465 835 q 413 862 429 854 q 376 869 397 869 q 351 863 360 869 q 337 848 343 856 q 324 833 331 840 q 307 826 318 826 l 190 826 q 172 833 179 826 q 164 851 164 840 q 172 913 164 875 q 201 985 181 950 q 259 1044 222 1019 q 353 1069 296 1069 q 406 1062 383 1069 q 446 1044 428 1054 q 480 1027 464 1035 q 517 1019 496 1019 q 540 1026 532 1019 q 555 1041 549 1033 q 568 1056 561 1049 q 586 1063 575 1063 l 703 1063 q 722 1055 715 1063 q 729 1036 729 1047 q 721 976 729 1013 q 692 904 713 939 q 634 844 671 869 q 540 819 597 819 z "},"œ":{"ha":1338,"x_min":39,"x_max":1303,"o":"m 446 736 q 686 686 590 736 q 907 736 778 736 q 1083 706 1008 736 q 1207 624 1158 675 q 1279 503 1256 572 q 1303 358 1303 435 l 1303 317 q 1292 290 1303 301 q 1265 279 1281 279 l 851 279 l 851 272 q 863 209 851 231 q 906 188 875 188 q 926 194 918 188 q 946 213 935 201 q 967 228 958 225 q 992 232 975 232 l 1254 232 q 1277 224 1268 232 q 1285 201 1286 215 q 1260 138 1283 175 q 1192 67 1238 101 q 1075 10 1146 33 q 908 -14 1004 -14 q 785 -3 842 -14 q 683 31 729 7 q 446 -14 590 -14 q 43 296 64 -14 q 43 426 39 361 q 159 658 54 581 q 446 736 264 736 m 508 419 q 495 490 506 465 q 446 514 485 514 q 415 508 426 514 q 397 490 403 501 q 388 460 390 478 q 383 419 385 442 q 383 393 383 408 q 382 361 382 378 q 383 328 382 344 q 383 303 383 313 q 388 260 385 278 q 397 231 390 243 q 415 214 403 219 q 446 208 426 208 q 495 231 485 208 q 508 303 506 254 q 509 328 508 313 q 510 361 510 344 q 509 393 510 378 q 508 419 508 408 m 907 542 q 865 521 879 542 q 851 453 851 500 l 963 453 q 949 521 963 500 q 907 542 935 542 z "},"p":{"ha":918,"x_min":63,"x_max":875,"o":"m 579 -14 q 474 6 521 -14 q 394 69 426 25 l 394 -226 q 383 -253 394 -242 q 357 -264 372 -264 l 100 -264 q 74 -253 85 -264 q 63 -226 63 -242 l 63 685 q 74 711 63 700 q 100 722 85 722 l 336 722 q 363 711 351 722 q 374 685 374 700 l 374 643 q 456 710 406 683 q 579 736 507 736 q 692 719 639 736 q 783 663 744 701 q 846 563 822 624 q 874 415 869 503 q 875 360 875 383 q 874 306 875 338 q 847 164 871 224 q 784 65 824 104 q 692 6 744 25 q 579 -14 639 -14 m 533 315 q 536 361 536 336 q 533 407 536 386 q 516 466 529 444 q 464 488 503 488 q 411 466 425 488 q 394 407 397 444 q 392 356 392 375 q 394 304 392 336 q 413 253 397 271 q 464 235 428 235 q 516 256 503 235 q 533 315 529 278 z "},"q":{"ha":918,"x_min":43,"x_max":856,"o":"m 339 -14 q 226 6 278 -14 q 134 65 174 25 q 71 164 94 104 q 44 306 47 224 q 43 360 43 338 q 44 415 43 383 q 72 563 49 503 q 135 663 96 624 q 226 719 174 701 q 339 736 278 736 q 462 710 411 736 q 544 643 513 683 l 544 685 q 556 711 544 700 q 582 722 567 722 l 818 722 q 844 711 833 722 q 856 685 856 700 l 856 -226 q 844 -253 856 -242 q 818 -264 833 -264 l 561 -264 q 535 -253 546 -264 q 524 -226 524 -242 l 524 69 q 444 6 492 25 q 339 -14 397 -14 m 385 315 q 402 256 389 278 q 454 235 415 235 q 506 253 490 235 q 524 304 521 271 q 526 356 526 336 q 524 407 526 375 q 507 466 521 444 q 454 488 493 488 q 402 466 415 488 q 385 407 389 444 q 382 361 382 386 q 385 315 382 336 z "},"r":{"ha":719,"x_min":63,"x_max":701,"o":"m 381 636 q 480 699 425 675 q 597 722 535 722 l 664 722 q 690 711 679 722 q 701 685 701 700 l 701 468 q 690 442 701 453 q 664 431 679 431 l 485 431 q 401 347 401 431 l 401 38 q 390 11 401 22 q 364 0 379 0 l 100 0 q 74 11 85 0 q 63 38 63 22 l 63 685 q 74 711 63 700 q 100 722 85 722 l 343 722 q 369 711 358 722 q 381 685 381 700 l 381 636 z "},"ŕ":{"ha":719,"x_min":63,"x_max":725,"o":"m 381 636 q 480 699 425 675 q 597 722 535 722 l 664 722 q 690 711 679 722 q 701 685 701 700 l 701 468 q 690 442 701 453 q 664 431 679 431 l 485 431 q 401 347 401 431 l 401 38 q 390 11 401 22 q 364 0 379 0 l 100 0 q 74 11 85 0 q 63 38 63 22 l 63 685 q 74 711 63 700 q 100 722 85 722 l 343 722 q 369 711 358 722 q 381 685 381 700 l 381 636 m 389 1036 q 415 1058 404 1054 q 440 1063 425 1063 l 699 1063 q 725 1035 725 1063 q 718 1018 725 1025 l 514 850 q 490 833 503 840 q 456 826 478 826 l 265 826 q 243 849 243 826 q 250 867 243 860 l 389 1036 z "},"ř":{"ha":719,"x_min":63,"x_max":701,"o":"m 381 636 q 480 699 425 675 q 597 722 535 722 l 664 722 q 690 711 679 722 q 701 685 701 700 l 701 468 q 690 442 701 453 q 664 431 679 431 l 485 431 q 401 347 401 431 l 401 38 q 390 11 401 22 q 364 0 379 0 l 100 0 q 74 11 85 0 q 63 38 63 22 l 63 685 q 74 711 63 700 q 100 722 85 722 l 343 722 q 369 711 358 722 q 381 685 381 700 l 381 636 m 299 826 q 272 832 283 826 q 247 853 261 838 l 92 1022 q 85 1040 85 1029 q 107 1063 85 1063 l 199 1063 q 226 1061 213 1063 q 254 1053 239 1060 l 382 994 l 510 1053 q 538 1061 525 1060 q 565 1063 551 1063 l 657 1063 q 679 1040 679 1063 q 672 1022 679 1029 l 517 853 q 492 832 503 838 q 465 826 481 826 l 299 826 z "},"ŗ":{"ha":719,"x_min":50,"x_max":701,"o":"m 381 636 q 480 699 425 675 q 597 722 535 722 l 664 722 q 690 711 679 722 q 701 685 701 700 l 701 468 q 690 442 701 453 q 664 431 679 431 l 485 431 q 401 347 401 431 l 401 38 q 390 11 401 22 q 364 0 379 0 l 100 0 q 74 11 85 0 q 63 38 63 22 l 63 685 q 74 711 63 700 q 100 722 85 722 l 343 722 q 369 711 358 722 q 381 685 381 700 l 381 636 m 79 -124 q 97 -87 82 -104 q 139 -69 111 -69 l 333 -69 q 355 -78 346 -69 q 364 -100 364 -87 q 363 -110 364 -106 l 286 -303 q 267 -332 281 -317 q 226 -347 254 -347 l 81 -347 q 59 -338 68 -347 q 50 -317 50 -329 l 50 -314 l 79 -124 z "},"s":{"ha":819,"x_min":29,"x_max":790,"o":"m 443 201 q 440 218 443 210 q 422 234 436 226 q 379 249 408 242 q 299 267 350 257 q 204 292 250 275 q 123 337 158 310 q 66 404 88 364 q 44 499 44 444 q 67 586 44 543 q 135 663 90 629 q 244 716 179 696 q 396 736 310 736 q 549 716 482 736 q 662 666 615 696 q 733 601 708 636 q 760 538 758 567 q 751 511 761 522 q 729 500 742 500 l 496 500 q 469 506 481 500 q 445 521 457 513 q 422 535 433 529 q 394 542 410 542 q 375 535 383 542 q 367 519 367 529 q 370 503 367 511 q 389 488 374 494 q 435 474 404 481 q 519 458 465 467 q 646 423 594 447 q 730 366 697 399 q 776 297 763 333 q 790 225 790 260 q 690 49 790 113 q 401 -14 590 -14 q 231 7 301 -14 q 117 58 161 28 q 53 122 74 88 q 31 185 32 157 q 39 211 29 200 q 64 222 49 222 l 306 222 q 333 216 321 222 q 356 201 344 210 q 381 187 368 193 q 411 181 394 181 q 433 185 422 181 q 443 201 443 190 z "},"ś":{"ha":819,"x_min":29,"x_max":790,"o":"m 443 201 q 440 218 443 210 q 422 234 436 226 q 379 249 408 242 q 299 267 350 257 q 204 292 250 275 q 123 337 158 310 q 66 404 88 364 q 44 499 44 444 q 67 586 44 543 q 135 663 90 629 q 244 716 179 696 q 396 736 310 736 q 549 716 482 736 q 662 666 615 696 q 733 601 708 636 q 760 538 758 567 q 751 511 761 522 q 729 500 742 500 l 496 500 q 469 506 481 500 q 445 521 457 513 q 422 535 433 529 q 394 542 410 542 q 375 535 383 542 q 367 519 367 529 q 370 503 367 511 q 389 488 374 494 q 435 474 404 481 q 519 458 465 467 q 646 423 594 447 q 730 366 697 399 q 776 297 763 333 q 790 225 790 260 q 690 49 790 113 q 401 -14 590 -14 q 231 7 301 -14 q 117 58 161 28 q 53 122 74 88 q 31 185 32 157 q 39 211 29 200 q 64 222 49 222 l 306 222 q 333 216 321 222 q 356 201 344 210 q 381 187 368 193 q 411 181 394 181 q 433 185 422 181 q 443 201 443 190 m 399 1036 q 424 1058 414 1054 q 450 1063 435 1063 l 708 1063 q 735 1035 735 1063 q 728 1018 735 1025 l 524 850 q 500 833 513 840 q 465 826 488 826 l 275 826 q 253 849 253 826 q 260 867 253 860 l 399 1036 z "},"š":{"ha":819,"x_min":29,"x_max":790,"o":"m 443 201 q 440 218 443 210 q 422 234 436 226 q 379 249 408 242 q 299 267 350 257 q 204 292 250 275 q 123 337 158 310 q 66 404 88 364 q 44 499 44 444 q 67 586 44 543 q 135 663 90 629 q 244 716 179 696 q 396 736 310 736 q 549 716 482 736 q 662 666 615 696 q 733 601 708 636 q 760 538 758 567 q 751 511 761 522 q 729 500 742 500 l 496 500 q 469 506 481 500 q 445 521 457 513 q 422 535 433 529 q 394 542 410 542 q 375 535 383 542 q 367 519 367 529 q 370 503 367 511 q 389 488 374 494 q 435 474 404 481 q 519 458 465 467 q 646 423 594 447 q 730 366 697 399 q 776 297 763 333 q 790 225 790 260 q 690 49 790 113 q 401 -14 590 -14 q 231 7 301 -14 q 117 58 161 28 q 53 122 74 88 q 31 185 32 157 q 39 211 29 200 q 64 222 49 222 l 306 222 q 333 216 321 222 q 356 201 344 210 q 381 187 368 193 q 411 181 394 181 q 433 185 422 181 q 443 201 443 190 m 326 826 q 300 832 311 826 q 275 853 289 838 l 119 1022 q 113 1040 113 1029 q 135 1063 113 1063 l 226 1063 q 253 1061 240 1063 q 282 1053 267 1060 l 410 994 l 538 1053 q 566 1061 553 1060 q 593 1063 579 1063 l 685 1063 q 707 1040 707 1063 q 700 1022 707 1029 l 544 853 q 519 832 531 838 q 493 826 508 826 l 326 826 z "},"ş":{"ha":819,"x_min":29,"x_max":790,"o":"m 443 201 q 440 218 443 210 q 422 234 436 226 q 379 249 408 242 q 299 267 350 257 q 204 292 250 275 q 123 337 158 310 q 66 404 88 364 q 44 499 44 444 q 67 586 44 543 q 135 663 90 629 q 244 716 179 696 q 396 736 310 736 q 549 716 482 736 q 662 666 615 696 q 733 601 708 636 q 760 538 758 567 q 751 511 761 522 q 729 500 742 500 l 496 500 q 469 506 481 500 q 445 521 457 513 q 422 535 433 529 q 394 542 410 542 q 375 535 383 542 q 367 519 367 529 q 370 503 367 511 q 389 488 374 494 q 435 474 404 481 q 519 458 465 467 q 646 423 594 447 q 730 366 697 399 q 776 297 763 333 q 790 225 790 260 q 692 51 790 114 q 410 -14 594 -11 l 385 -62 q 408 -58 393 -60 q 426 -56 422 -56 q 509 -90 479 -56 q 539 -181 539 -125 q 501 -271 539 -236 q 401 -306 464 -306 q 349 -299 374 -306 q 308 -281 325 -292 q 287 -258 292 -269 q 294 -235 282 -246 l 324 -210 q 339 -201 332 -201 q 353 -204 346 -201 q 372 -210 361 -207 q 401 -214 383 -214 q 431 -203 421 -214 q 440 -181 440 -193 q 431 -158 440 -168 q 401 -147 422 -147 q 381 -150 392 -147 q 361 -154 371 -153 q 342 -155 351 -156 q 326 -147 333 -154 l 297 -118 q 286 -100 288 -108 q 294 -72 285 -92 l 322 -10 q 190 21 244 -1 q 99 71 135 43 q 48 129 64 99 q 31 185 32 160 q 39 211 29 200 q 64 222 49 222 l 306 222 q 333 216 321 222 q 356 201 344 210 q 381 187 368 193 q 411 181 394 181 q 433 185 422 181 q 443 201 443 190 z "},"ŝ":{"ha":819,"x_min":29,"x_max":790,"o":"m 443 201 q 440 218 443 210 q 422 234 436 226 q 379 249 408 242 q 299 267 350 257 q 204 292 250 275 q 123 337 158 310 q 66 404 88 364 q 44 499 44 444 q 67 586 44 543 q 135 663 90 629 q 244 716 179 696 q 396 736 310 736 q 549 716 482 736 q 662 666 615 696 q 733 601 708 636 q 760 538 758 567 q 751 511 761 522 q 729 500 742 500 l 496 500 q 469 506 481 500 q 445 521 457 513 q 422 535 433 529 q 394 542 410 542 q 375 535 383 542 q 367 519 367 529 q 370 503 367 511 q 389 488 374 494 q 435 474 404 481 q 519 458 465 467 q 646 423 594 447 q 730 366 697 399 q 776 297 763 333 q 790 225 790 260 q 690 49 790 113 q 401 -14 590 -14 q 231 7 301 -14 q 117 58 161 28 q 53 122 74 88 q 31 185 32 157 q 39 211 29 200 q 64 222 49 222 l 306 222 q 333 216 321 222 q 356 201 344 210 q 381 187 368 193 q 411 181 394 181 q 433 185 422 181 q 443 201 443 190 m 493 1063 q 519 1057 508 1063 q 544 1036 531 1051 l 700 867 q 707 849 707 860 q 685 826 707 826 l 593 826 q 566 828 579 826 q 538 836 553 829 l 410 894 l 282 836 q 253 828 267 829 q 226 826 240 826 l 135 826 q 113 849 113 826 q 119 867 113 860 l 275 1036 q 300 1057 289 1051 q 326 1063 311 1063 l 493 1063 z "},"ș":{"ha":819,"x_min":29,"x_max":790,"o":"m 443 201 q 440 218 443 210 q 422 234 436 226 q 379 249 408 242 q 299 267 350 257 q 204 292 250 275 q 123 337 158 310 q 66 404 88 364 q 44 499 44 444 q 67 586 44 543 q 135 663 90 629 q 244 716 179 696 q 396 736 310 736 q 549 716 482 736 q 662 666 615 696 q 733 601 708 636 q 760 538 758 567 q 751 511 761 522 q 729 500 742 500 l 496 500 q 469 506 481 500 q 445 521 457 513 q 422 535 433 529 q 394 542 410 542 q 375 535 383 542 q 367 519 367 529 q 370 503 367 511 q 389 488 374 494 q 435 474 404 481 q 519 458 465 467 q 646 423 594 447 q 730 366 697 399 q 776 297 763 333 q 790 225 790 260 q 690 49 790 113 q 401 -14 590 -14 q 231 7 301 -14 q 117 58 161 28 q 53 122 74 88 q 31 185 32 157 q 39 211 29 200 q 64 222 49 222 l 306 222 q 333 216 321 222 q 356 201 344 210 q 381 187 368 193 q 411 181 394 181 q 433 185 422 181 q 443 201 443 190 m 264 -124 q 281 -87 267 -104 q 324 -69 296 -69 l 518 -69 q 540 -78 531 -69 q 549 -100 549 -87 q 547 -110 549 -106 l 471 -303 q 452 -332 465 -317 q 411 -347 439 -347 l 265 -347 q 244 -338 253 -347 q 235 -317 235 -329 l 235 -314 l 264 -124 z "},"t":{"ha":739,"x_min":15,"x_max":704,"o":"m 481 326 q 494 276 481 294 q 540 257 508 257 l 667 257 q 693 246 682 257 q 704 219 704 235 l 704 38 q 693 11 704 22 q 667 0 682 0 l 510 0 q 371 15 435 0 q 260 64 307 29 q 188 156 214 99 q 163 299 163 213 l 163 479 l 53 479 q 26 490 38 479 q 15 517 15 501 l 15 685 q 26 711 15 700 q 53 722 38 722 l 163 722 l 163 949 q 174 975 163 964 q 200 986 185 986 l 443 986 q 469 975 458 986 q 481 949 481 964 l 481 722 l 656 722 q 682 711 671 722 q 693 685 693 700 l 693 517 q 682 490 693 501 q 656 479 671 479 l 481 479 l 481 326 z "},"ŧ":{"ha":740,"x_min":17,"x_max":706,"o":"m 657 514 q 683 503 672 514 q 694 476 694 492 l 694 406 q 683 379 694 390 q 657 368 672 368 l 482 368 l 482 326 q 496 276 482 294 q 542 257 510 257 l 668 257 q 694 246 683 257 q 706 219 706 235 l 706 38 q 694 11 706 22 q 668 0 683 0 l 511 0 q 372 15 436 0 q 262 64 308 29 q 190 156 215 99 q 164 299 164 213 l 164 368 l 54 368 q 28 379 39 368 q 17 406 17 390 l 17 476 q 28 503 17 492 q 54 514 39 514 l 164 514 l 164 576 l 54 576 q 28 588 39 576 q 17 614 17 599 l 17 685 q 28 711 17 700 q 54 722 39 722 l 164 722 l 164 949 q 175 975 164 964 q 201 986 186 986 l 444 986 q 471 975 460 986 q 482 949 482 964 l 482 722 l 657 722 q 683 711 672 722 q 694 685 694 700 l 694 614 q 683 588 694 599 q 657 576 672 576 l 482 576 l 482 514 l 657 514 z "},"ť":{"ha":878,"x_min":15,"x_max":1035,"o":"m 481 326 q 494 276 481 294 q 540 257 508 257 l 667 257 q 693 246 682 257 q 704 219 704 235 l 704 38 q 693 11 704 22 q 667 0 682 0 l 510 0 q 371 15 435 0 q 260 64 307 29 q 188 156 214 99 q 163 299 163 213 l 163 479 l 53 479 q 26 490 38 479 q 15 517 15 501 l 15 685 q 26 711 15 700 q 53 722 38 722 l 163 722 l 163 949 q 174 975 163 964 q 200 986 185 986 l 443 986 q 469 975 458 986 q 481 949 481 964 l 481 722 l 656 722 q 682 711 671 722 q 693 685 693 700 l 693 517 q 682 490 693 501 q 656 479 671 479 l 481 479 l 481 326 m 750 932 q 767 969 753 951 q 810 986 782 986 l 1004 986 q 1026 977 1017 986 q 1035 956 1035 968 q 1033 946 1035 950 l 957 753 q 938 724 951 739 q 897 708 925 708 l 751 708 q 730 717 739 708 q 721 739 721 726 l 721 742 l 750 932 z "},"ţ":{"ha":739,"x_min":15,"x_max":704,"o":"m 481 326 q 494 276 481 294 q 540 257 508 257 l 667 257 q 693 246 682 257 q 704 219 704 235 l 704 38 q 693 11 704 22 q 667 0 682 0 l 510 0 q 371 15 435 0 q 260 64 307 29 q 188 156 214 99 q 163 299 163 213 l 163 479 l 53 479 q 26 490 38 479 q 15 517 15 501 l 15 685 q 26 711 15 700 q 53 722 38 722 l 163 722 l 163 949 q 174 975 163 964 q 200 986 185 986 l 443 986 q 469 975 458 986 q 481 949 481 964 l 481 722 l 656 722 q 682 711 671 722 q 693 685 693 700 l 693 517 q 682 490 693 501 q 656 479 671 479 l 481 479 l 481 326 m 257 -124 q 274 -87 260 -104 q 317 -69 289 -69 l 511 -69 q 533 -78 524 -69 q 542 -100 542 -87 q 540 -110 542 -106 l 464 -303 q 445 -332 458 -317 q 404 -347 432 -347 l 258 -347 q 237 -338 246 -347 q 228 -317 228 -329 l 228 -314 l 257 -124 z "},"u":{"ha":936,"x_min":56,"x_max":874,"o":"m 56 685 q 67 711 56 700 q 93 722 78 722 l 358 722 q 385 711 374 722 q 396 685 396 700 l 396 311 q 465 235 396 235 q 535 311 535 235 l 535 685 q 546 711 535 700 q 572 722 557 722 l 836 722 q 863 711 851 722 q 874 685 874 700 l 874 38 q 863 11 874 22 q 836 0 851 0 l 593 0 q 567 11 578 0 q 556 38 556 22 l 556 83 q 460 9 521 32 q 325 -14 400 -14 q 224 4 272 -14 q 138 61 175 22 q 78 160 100 100 q 56 301 56 219 l 56 685 z "},"ú":{"ha":936,"x_min":56,"x_max":874,"o":"m 56 685 q 67 711 56 700 q 93 722 78 722 l 358 722 q 385 711 374 722 q 396 685 396 700 l 396 311 q 465 235 396 235 q 535 311 535 235 l 535 685 q 546 711 535 700 q 572 722 557 722 l 836 722 q 863 711 851 722 q 874 685 874 700 l 874 38 q 863 11 874 22 q 836 0 851 0 l 593 0 q 567 11 578 0 q 556 38 556 22 l 556 83 q 460 9 521 32 q 325 -14 400 -14 q 224 4 272 -14 q 138 61 175 22 q 78 160 100 100 q 56 301 56 219 l 56 685 m 476 1036 q 502 1058 492 1054 q 528 1063 513 1063 l 786 1063 q 813 1035 813 1063 q 806 1018 813 1025 l 601 850 q 578 833 590 840 q 543 826 565 826 l 353 826 q 331 849 331 826 q 338 867 331 860 l 476 1036 z "},"ŭ":{"ha":936,"x_min":56,"x_max":874,"o":"m 56 685 q 67 711 56 700 q 93 722 78 722 l 358 722 q 385 711 374 722 q 396 685 396 700 l 396 311 q 465 235 396 235 q 535 311 535 235 l 535 685 q 546 711 535 700 q 572 722 557 722 l 836 722 q 863 711 851 722 q 874 685 874 700 l 874 38 q 863 11 874 22 q 836 0 851 0 l 593 0 q 567 11 578 0 q 556 38 556 22 l 556 83 q 460 9 521 32 q 325 -14 400 -14 q 224 4 272 -14 q 138 61 175 22 q 78 160 100 100 q 56 301 56 219 l 56 685 m 519 1036 q 526 1055 519 1047 q 546 1063 533 1063 l 676 1063 q 696 1055 689 1063 q 703 1036 703 1047 q 687 949 703 989 q 640 881 671 910 q 565 835 610 851 q 464 819 521 819 q 363 835 407 819 q 288 881 318 851 q 241 949 257 910 q 225 1036 225 989 q 232 1055 225 1047 q 251 1063 239 1063 l 382 1063 q 401 1055 394 1063 q 408 1036 408 1047 q 420 982 408 1004 q 464 960 432 960 q 508 982 496 960 q 519 1036 519 1004 z "},"û":{"ha":936,"x_min":56,"x_max":874,"o":"m 56 685 q 67 711 56 700 q 93 722 78 722 l 358 722 q 385 711 374 722 q 396 685 396 700 l 396 311 q 465 235 396 235 q 535 311 535 235 l 535 685 q 546 711 535 700 q 572 722 557 722 l 836 722 q 863 711 851 722 q 874 685 874 700 l 874 38 q 863 11 874 22 q 836 0 851 0 l 593 0 q 567 11 578 0 q 556 38 556 22 l 556 83 q 460 9 521 32 q 325 -14 400 -14 q 224 4 272 -14 q 138 61 175 22 q 78 160 100 100 q 56 301 56 219 l 56 685 m 547 1063 q 574 1057 563 1063 q 599 1036 585 1051 l 754 867 q 761 849 761 860 q 739 826 761 826 l 647 826 q 620 828 633 826 q 592 836 607 829 l 464 894 l 336 836 q 308 828 321 829 q 281 826 294 826 l 189 826 q 167 849 167 826 q 174 867 167 860 l 329 1036 q 354 1057 343 1051 q 381 1063 365 1063 l 547 1063 z "},"ü":{"ha":936,"x_min":56,"x_max":874,"o":"m 56 685 q 67 711 56 700 q 93 722 78 722 l 358 722 q 385 711 374 722 q 396 685 396 700 l 396 311 q 465 235 396 235 q 535 311 535 235 l 535 685 q 546 711 535 700 q 572 722 557 722 l 836 722 q 863 711 851 722 q 874 685 874 700 l 874 38 q 863 11 874 22 q 836 0 851 0 l 593 0 q 567 11 578 0 q 556 38 556 22 l 556 83 q 460 9 521 32 q 325 -14 400 -14 q 224 4 272 -14 q 138 61 175 22 q 78 160 100 100 q 56 301 56 219 l 56 685 m 385 1063 q 408 1053 399 1063 q 417 1031 417 1044 l 417 858 q 408 835 417 844 q 385 826 399 826 l 213 826 q 190 835 199 826 q 181 858 181 844 l 181 1031 q 190 1053 181 1044 q 213 1063 199 1063 l 385 1063 m 717 1063 q 740 1053 731 1063 q 749 1031 749 1044 l 749 858 q 740 835 749 844 q 717 826 731 826 l 544 826 q 522 835 531 826 q 513 858 513 844 l 513 1031 q 522 1053 513 1044 q 544 1063 531 1063 l 717 1063 z "},"ű":{"ha":936,"x_min":56,"x_max":900,"o":"m 56 685 q 67 711 56 700 q 93 722 78 722 l 358 722 q 385 711 374 722 q 396 685 396 700 l 396 311 q 465 235 396 235 q 535 311 535 235 l 535 685 q 546 711 535 700 q 572 722 557 722 l 836 722 q 863 711 851 722 q 874 685 874 700 l 874 38 q 863 11 874 22 q 836 0 851 0 l 593 0 q 567 11 578 0 q 556 38 556 22 l 556 83 q 460 9 521 32 q 325 -14 400 -14 q 224 4 272 -14 q 138 61 175 22 q 78 160 100 100 q 56 301 56 219 l 56 685 m 261 1036 q 279 1056 268 1050 q 313 1063 290 1063 l 517 1063 q 544 1036 544 1063 q 536 1018 544 1026 l 378 846 q 331 826 361 826 l 201 826 q 179 849 179 826 q 181 860 179 854 q 186 869 183 865 l 261 1036 m 617 1036 q 635 1056 624 1050 q 668 1063 646 1063 l 872 1063 q 900 1036 900 1063 q 892 1018 900 1026 l 733 846 q 686 826 717 826 l 557 826 q 535 849 535 826 q 537 860 535 854 q 542 869 539 865 l 617 1036 z "},"ù":{"ha":936,"x_min":56,"x_max":874,"o":"m 56 685 q 67 711 56 700 q 93 722 78 722 l 358 722 q 385 711 374 722 q 396 685 396 700 l 396 311 q 465 235 396 235 q 535 311 535 235 l 535 685 q 546 711 535 700 q 572 722 557 722 l 836 722 q 863 711 851 722 q 874 685 874 700 l 874 38 q 863 11 874 22 q 836 0 851 0 l 593 0 q 567 11 578 0 q 556 38 556 22 l 556 83 q 460 9 521 32 q 325 -14 400 -14 q 224 4 272 -14 q 138 61 175 22 q 78 160 100 100 q 56 301 56 219 l 56 685 m 592 867 q 599 849 599 860 q 576 826 599 826 l 386 826 q 351 833 364 826 q 328 850 339 840 l 124 1018 q 117 1035 117 1025 q 143 1063 117 1063 l 401 1063 q 427 1058 417 1063 q 453 1036 438 1054 l 592 867 z "},"ū":{"ha":936,"x_min":56,"x_max":874,"o":"m 56 685 q 67 711 56 700 q 93 722 78 722 l 358 722 q 385 711 374 722 q 396 685 396 700 l 396 311 q 465 235 396 235 q 535 311 535 235 l 535 685 q 546 711 535 700 q 572 722 557 722 l 836 722 q 863 711 851 722 q 874 685 874 700 l 874 38 q 863 11 874 22 q 836 0 851 0 l 593 0 q 567 11 578 0 q 556 38 556 22 l 556 83 q 460 9 521 32 q 325 -14 400 -14 q 224 4 272 -14 q 138 61 175 22 q 78 160 100 100 q 56 301 56 219 l 56 685 m 692 1035 q 715 1026 706 1035 q 724 1003 724 1017 l 724 858 q 715 835 724 844 q 692 826 706 826 l 238 826 q 215 835 224 826 q 206 858 206 844 l 206 1003 q 215 1026 206 1017 q 238 1035 224 1035 l 692 1035 z "},"ų":{"ha":936,"x_min":56,"x_max":874,"o":"m 56 685 q 67 711 56 700 q 93 722 78 722 l 358 722 q 385 711 374 722 q 396 685 396 700 l 396 311 q 465 235 396 235 q 535 311 535 235 l 535 685 q 546 711 535 700 q 572 722 557 722 l 836 722 q 863 711 851 722 q 874 685 874 700 l 874 38 q 863 11 874 22 q 836 0 851 0 l 814 0 q 765 -25 778 -3 q 753 -68 753 -47 q 767 -113 753 -90 q 822 -136 782 -136 l 836 -136 q 863 -147 851 -136 q 874 -174 874 -158 l 874 -268 q 863 -294 874 -283 q 836 -306 851 -306 l 817 -306 q 709 -287 754 -306 q 635 -236 664 -268 q 592 -161 606 -204 q 578 -68 578 -118 q 585 0 578 -35 q 564 13 572 3 q 556 38 556 24 l 556 83 q 460 9 521 32 q 325 -14 400 -14 q 224 4 272 -14 q 138 61 175 22 q 78 160 100 100 q 56 301 56 219 l 56 685 z "},"ů":{"ha":936,"x_min":56,"x_max":874,"o":"m 56 685 q 67 711 56 700 q 93 722 78 722 l 358 722 q 385 711 374 722 q 396 685 396 700 l 396 311 q 465 235 396 235 q 535 311 535 235 l 535 685 q 546 711 535 700 q 572 722 557 722 l 836 722 q 863 711 851 722 q 874 685 874 700 l 874 38 q 863 11 874 22 q 836 0 851 0 l 593 0 q 567 11 578 0 q 556 38 556 22 l 556 83 q 460 9 521 32 q 325 -14 400 -14 q 224 4 272 -14 q 138 61 175 22 q 78 160 100 100 q 56 301 56 219 l 56 685 m 422 951 q 434 922 422 933 q 464 910 446 910 q 494 922 482 910 q 506 951 506 933 q 494 981 506 969 q 464 993 482 993 q 434 981 446 993 q 422 951 422 969 m 325 951 q 365 1047 325 1010 q 464 1083 406 1083 q 563 1047 522 1083 q 603 951 603 1010 q 563 856 603 893 q 464 819 522 819 q 365 856 406 819 q 325 951 325 893 z "},"ũ":{"ha":936,"x_min":56,"x_max":874,"o":"m 56 685 q 67 711 56 700 q 93 722 78 722 l 358 722 q 385 711 374 722 q 396 685 396 700 l 396 311 q 465 235 396 235 q 535 311 535 235 l 535 685 q 546 711 535 700 q 572 722 557 722 l 836 722 q 863 711 851 722 q 874 685 874 700 l 874 38 q 863 11 874 22 q 836 0 851 0 l 593 0 q 567 11 578 0 q 556 38 556 22 l 556 83 q 460 9 521 32 q 325 -14 400 -14 q 224 4 272 -14 q 138 61 175 22 q 78 160 100 100 q 56 301 56 219 l 56 685 m 558 819 q 505 827 526 819 q 465 844 483 835 q 431 862 447 854 q 394 869 415 869 q 369 863 378 869 q 355 848 361 856 q 342 833 349 840 q 325 826 336 826 l 208 826 q 190 833 197 826 q 182 851 182 840 q 190 913 182 875 q 219 985 199 950 q 277 1044 240 1019 q 371 1069 314 1069 q 424 1062 401 1069 q 464 1044 446 1054 q 498 1027 482 1035 q 535 1019 514 1019 q 558 1026 550 1019 q 573 1041 567 1033 q 586 1056 579 1049 q 604 1063 593 1063 l 721 1063 q 740 1055 733 1063 q 747 1036 747 1047 q 739 976 747 1013 q 710 904 731 939 q 652 844 689 869 q 558 819 615 819 z "},"v":{"ha":875,"x_min":13,"x_max":863,"o":"m 326 0 q 297 11 306 0 q 281 35 288 22 l 14 679 q 13 689 13 683 q 22 713 13 703 q 46 722 32 722 l 281 722 q 312 711 301 722 q 326 689 322 700 l 438 365 l 549 689 q 563 711 553 700 q 594 722 574 722 l 829 722 q 853 713 843 722 q 863 689 863 703 q 861 679 863 683 l 594 35 q 578 11 588 22 q 549 0 569 0 l 326 0 z "},"w":{"ha":1207,"x_min":22,"x_max":1185,"o":"m 668 722 q 701 711 689 722 q 715 689 713 700 l 806 400 l 890 689 q 905 711 893 700 q 938 722 917 722 l 1151 722 q 1175 713 1165 722 q 1185 689 1185 703 q 1183 678 1185 683 l 981 35 q 966 11 976 22 q 935 0 956 0 l 749 0 q 717 11 728 0 q 703 35 707 22 l 604 315 l 504 35 q 490 11 500 22 q 458 0 479 0 l 272 0 q 241 11 251 0 q 226 35 231 22 l 24 678 q 22 689 22 683 q 32 713 22 703 q 56 722 42 722 l 269 722 q 302 711 290 722 q 317 689 314 700 l 401 400 l 492 689 q 506 711 494 700 q 539 722 518 722 l 668 722 z "},"ẃ":{"ha":1207,"x_min":22,"x_max":1185,"o":"m 668 722 q 701 711 689 722 q 715 689 713 700 l 806 400 l 890 689 q 905 711 893 700 q 938 722 917 722 l 1151 722 q 1175 713 1165 722 q 1185 689 1185 703 q 1183 678 1185 683 l 981 35 q 966 11 976 22 q 935 0 956 0 l 749 0 q 717 11 728 0 q 703 35 707 22 l 604 315 l 504 35 q 490 11 500 22 q 458 0 479 0 l 272 0 q 241 11 251 0 q 226 35 231 22 l 24 678 q 22 689 22 683 q 32 713 22 703 q 56 722 42 722 l 269 722 q 302 711 290 722 q 317 689 314 700 l 401 400 l 492 689 q 506 711 494 700 q 539 722 518 722 l 668 722 m 622 1036 q 648 1058 638 1054 q 674 1063 658 1063 l 932 1063 q 958 1035 958 1063 q 951 1018 958 1025 l 747 850 q 724 833 736 840 q 689 826 711 826 l 499 826 q 476 849 476 826 q 483 867 476 860 l 622 1036 z "},"ŵ":{"ha":1207,"x_min":22,"x_max":1185,"o":"m 668 722 q 701 711 689 722 q 715 689 713 700 l 806 400 l 890 689 q 905 711 893 700 q 938 722 917 722 l 1151 722 q 1175 713 1165 722 q 1185 689 1185 703 q 1183 678 1185 683 l 981 35 q 966 11 976 22 q 935 0 956 0 l 749 0 q 717 11 728 0 q 703 35 707 22 l 604 315 l 504 35 q 490 11 500 22 q 458 0 479 0 l 272 0 q 241 11 251 0 q 226 35 231 22 l 24 678 q 22 689 22 683 q 32 713 22 703 q 56 722 42 722 l 269 722 q 302 711 290 722 q 317 689 314 700 l 401 400 l 492 689 q 506 711 494 700 q 539 722 518 722 l 668 722 m 688 1063 q 714 1057 703 1063 q 739 1036 725 1051 l 894 867 q 901 849 901 860 q 879 826 901 826 l 788 826 q 760 828 774 826 q 732 836 747 829 l 604 894 l 476 836 q 448 828 461 829 q 421 826 435 826 l 329 826 q 307 849 307 826 q 314 867 307 860 l 469 1036 q 494 1057 483 1051 q 521 1063 506 1063 l 688 1063 z "},"ẅ":{"ha":1207,"x_min":22,"x_max":1185,"o":"m 668 722 q 701 711 689 722 q 715 689 713 700 l 806 400 l 890 689 q 905 711 893 700 q 938 722 917 722 l 1151 722 q 1175 713 1165 722 q 1185 689 1185 703 q 1183 678 1185 683 l 981 35 q 966 11 976 22 q 935 0 956 0 l 749 0 q 717 11 728 0 q 703 35 707 22 l 604 315 l 504 35 q 490 11 500 22 q 458 0 479 0 l 272 0 q 241 11 251 0 q 226 35 231 22 l 24 678 q 22 689 22 683 q 32 713 22 703 q 56 722 42 722 l 269 722 q 302 711 290 722 q 317 689 314 700 l 401 400 l 492 689 q 506 711 494 700 q 539 722 518 722 l 668 722 m 525 1063 q 548 1053 539 1063 q 557 1031 557 1044 l 557 858 q 548 835 557 844 q 525 826 539 826 l 353 826 q 330 835 339 826 q 321 858 321 844 l 321 1031 q 330 1053 321 1044 q 353 1063 339 1063 l 525 1063 m 857 1063 q 880 1053 871 1063 q 889 1031 889 1044 l 889 858 q 880 835 889 844 q 857 826 871 826 l 685 826 q 662 835 671 826 q 653 858 653 844 l 653 1031 q 662 1053 653 1044 q 685 1063 671 1063 l 857 1063 z "},"ẁ":{"ha":1207,"x_min":22,"x_max":1185,"o":"m 668 722 q 701 711 689 722 q 715 689 713 700 l 806 400 l 890 689 q 905 711 893 700 q 938 722 917 722 l 1151 722 q 1175 713 1165 722 q 1185 689 1185 703 q 1183 678 1185 683 l 981 35 q 966 11 976 22 q 935 0 956 0 l 749 0 q 717 11 728 0 q 703 35 707 22 l 604 315 l 504 35 q 490 11 500 22 q 458 0 479 0 l 272 0 q 241 11 251 0 q 226 35 231 22 l 24 678 q 22 689 22 683 q 32 713 22 703 q 56 722 42 722 l 269 722 q 302 711 290 722 q 317 689 314 700 l 401 400 l 492 689 q 506 711 494 700 q 539 722 518 722 l 668 722 m 735 867 q 742 849 742 860 q 719 826 742 826 l 529 826 q 494 833 507 826 q 471 850 482 840 l 267 1018 q 260 1035 260 1025 q 286 1063 260 1063 l 544 1063 q 570 1058 560 1063 q 596 1036 581 1054 l 735 867 z "},"x":{"ha":875,"x_min":6,"x_max":869,"o":"m 635 374 l 864 51 q 869 33 869 44 q 860 10 869 19 q 836 0 850 0 l 569 0 q 542 8 550 0 q 528 24 533 17 l 436 158 l 340 24 q 327 8 336 17 q 299 0 318 0 l 39 0 q 15 10 25 0 q 6 33 6 19 q 7 42 6 36 q 11 51 8 47 l 236 372 l 36 671 q 31 689 31 679 q 40 713 31 703 q 64 722 50 722 l 318 722 q 349 713 339 722 q 363 696 358 703 l 443 572 l 524 696 q 538 713 528 703 q 568 722 547 722 l 811 722 q 835 713 825 722 q 844 690 844 703 q 839 671 844 679 l 635 374 z "},"y":{"ha":883,"x_min":18,"x_max":875,"o":"m 19 679 q 18 689 18 683 q 30 713 21 703 q 53 722 39 722 l 288 722 q 318 711 308 722 q 332 689 328 700 l 446 372 l 564 689 q 580 712 569 701 q 611 722 590 722 l 843 722 q 865 713 856 722 q 875 693 875 704 q 874 679 875 685 l 482 -231 q 465 -253 476 -243 q 433 -264 454 -264 l 206 -264 q 184 -256 193 -264 q 175 -235 175 -247 q 174 -228 175 -232 q 176 -221 174 -225 l 288 46 l 19 679 z "},"ý":{"ha":883,"x_min":18,"x_max":875,"o":"m 19 679 q 18 689 18 683 q 30 713 21 703 q 53 722 39 722 l 288 722 q 318 711 308 722 q 332 689 328 700 l 446 372 l 564 689 q 580 712 569 701 q 611 722 590 722 l 843 722 q 865 713 856 722 q 875 693 875 704 q 874 679 875 685 l 482 -231 q 465 -253 476 -243 q 433 -264 454 -264 l 206 -264 q 184 -256 193 -264 q 175 -235 175 -247 q 174 -228 175 -232 q 176 -221 174 -225 l 288 46 l 19 679 m 463 1036 q 488 1058 478 1054 q 514 1063 499 1063 l 772 1063 q 799 1035 799 1063 q 792 1018 799 1025 l 588 850 q 564 833 576 840 q 529 826 551 826 l 339 826 q 317 849 317 826 q 324 867 317 860 l 463 1036 z "},"ŷ":{"ha":883,"x_min":18,"x_max":875,"o":"m 19 679 q 18 689 18 683 q 30 713 21 703 q 53 722 39 722 l 288 722 q 318 711 308 722 q 332 689 328 700 l 446 372 l 564 689 q 580 712 569 701 q 611 722 590 722 l 843 722 q 865 713 856 722 q 875 693 875 704 q 874 679 875 685 l 482 -231 q 465 -253 476 -243 q 433 -264 454 -264 l 206 -264 q 184 -256 193 -264 q 175 -235 175 -247 q 174 -228 175 -232 q 176 -221 174 -225 l 288 46 l 19 679 m 529 1063 q 556 1057 544 1063 q 581 1036 567 1051 l 736 867 q 743 849 743 860 q 721 826 743 826 l 629 826 q 602 828 615 826 q 574 836 589 829 l 446 894 l 318 836 q 290 828 303 829 q 263 826 276 826 l 171 826 q 149 849 149 826 q 156 867 149 860 l 311 1036 q 336 1057 325 1051 q 363 1063 347 1063 l 529 1063 z "},"ÿ":{"ha":883,"x_min":18,"x_max":875,"o":"m 19 679 q 18 689 18 683 q 30 713 21 703 q 53 722 39 722 l 288 722 q 318 711 308 722 q 332 689 328 700 l 446 372 l 564 689 q 580 712 569 701 q 611 722 590 722 l 843 722 q 865 713 856 722 q 875 693 875 704 q 874 679 875 685 l 482 -231 q 465 -253 476 -243 q 433 -264 454 -264 l 206 -264 q 184 -256 193 -264 q 175 -235 175 -247 q 174 -228 175 -232 q 176 -221 174 -225 l 288 46 l 19 679 m 368 1063 q 391 1053 382 1063 q 400 1031 400 1044 l 400 858 q 391 835 400 844 q 368 826 382 826 l 196 826 q 173 835 182 826 q 164 858 164 844 l 164 1031 q 173 1053 164 1044 q 196 1063 182 1063 l 368 1063 m 700 1063 q 723 1053 714 1063 q 732 1031 732 1044 l 732 858 q 723 835 732 844 q 700 826 714 826 l 528 826 q 505 835 514 826 q 496 858 496 844 l 496 1031 q 505 1053 496 1044 q 528 1063 514 1063 l 700 1063 z "},"ỳ":{"ha":883,"x_min":18,"x_max":875,"o":"m 19 679 q 18 689 18 683 q 30 713 21 703 q 53 722 39 722 l 288 722 q 318 711 308 722 q 332 689 328 700 l 446 372 l 564 689 q 580 712 569 701 q 611 722 590 722 l 843 722 q 865 713 856 722 q 875 693 875 704 q 874 679 875 685 l 482 -231 q 465 -253 476 -243 q 433 -264 454 -264 l 206 -264 q 184 -256 193 -264 q 175 -235 175 -247 q 174 -228 175 -232 q 176 -221 174 -225 l 288 46 l 19 679 m 578 867 q 585 849 585 860 q 563 826 585 826 l 372 826 q 338 833 350 826 q 314 850 325 840 l 110 1018 q 103 1035 103 1025 q 129 1063 103 1063 l 388 1063 q 413 1058 403 1063 q 439 1036 424 1054 l 578 867 z "},"z":{"ha":819,"x_min":50,"x_max":778,"o":"m 740 239 q 767 228 756 239 q 778 201 778 217 l 778 38 q 767 11 778 22 q 740 0 756 0 l 88 0 q 61 11 72 0 q 50 38 50 22 l 50 197 q 56 226 50 214 q 72 246 63 238 l 349 483 l 97 483 q 71 494 82 483 q 60 521 60 506 l 60 685 q 71 711 60 700 q 97 722 82 722 l 711 722 q 738 711 726 722 q 749 685 749 700 l 749 510 q 729 469 749 486 l 465 239 l 740 239 z "},"ź":{"ha":819,"x_min":50,"x_max":778,"o":"m 740 239 q 767 228 756 239 q 778 201 778 217 l 778 38 q 767 11 778 22 q 740 0 756 0 l 88 0 q 61 11 72 0 q 50 38 50 22 l 50 197 q 56 226 50 214 q 72 246 63 238 l 349 483 l 97 483 q 71 494 82 483 q 60 521 60 506 l 60 685 q 71 711 60 700 q 97 722 82 722 l 711 722 q 738 711 726 722 q 749 685 749 700 l 749 510 q 729 469 749 486 l 465 239 l 740 239 m 428 1036 q 453 1058 443 1054 q 479 1063 464 1063 l 738 1063 q 764 1035 764 1063 q 757 1018 764 1025 l 553 850 q 529 833 542 840 q 494 826 517 826 l 304 826 q 282 849 282 826 q 289 867 282 860 l 428 1036 z "},"ž":{"ha":819,"x_min":50,"x_max":778,"o":"m 740 239 q 767 228 756 239 q 778 201 778 217 l 778 38 q 767 11 778 22 q 740 0 756 0 l 88 0 q 61 11 72 0 q 50 38 50 22 l 50 197 q 56 226 50 214 q 72 246 63 238 l 349 483 l 97 483 q 71 494 82 483 q 60 521 60 506 l 60 685 q 71 711 60 700 q 97 722 82 722 l 711 722 q 738 711 726 722 q 749 685 749 700 l 749 510 q 729 469 749 486 l 465 239 l 740 239 m 331 826 q 304 832 315 826 q 279 853 293 838 l 124 1022 q 117 1040 117 1029 q 139 1063 117 1063 l 231 1063 q 258 1061 244 1063 q 286 1053 271 1060 l 414 994 l 542 1053 q 570 1061 557 1060 q 597 1063 583 1063 l 689 1063 q 711 1040 711 1063 q 704 1022 711 1029 l 549 853 q 524 832 535 838 q 497 826 513 826 l 331 826 z "},"ż":{"ha":819,"x_min":50,"x_max":778,"o":"m 740 239 q 767 228 756 239 q 778 201 778 217 l 778 38 q 767 11 778 22 q 740 0 756 0 l 88 0 q 61 11 72 0 q 50 38 50 22 l 50 197 q 56 226 50 214 q 72 246 63 238 l 349 483 l 97 483 q 71 494 82 483 q 60 521 60 506 l 60 685 q 71 711 60 700 q 97 722 82 722 l 711 722 q 738 711 726 722 q 749 685 749 700 l 749 510 q 729 469 749 486 l 465 239 l 740 239 m 506 1072 q 528 1063 519 1072 q 538 1040 538 1054 l 538 858 q 528 835 538 844 q 506 826 519 826 l 324 826 q 301 835 310 826 q 292 858 292 844 l 292 1040 q 301 1063 292 1054 q 324 1072 310 1072 l 506 1072 z "},"Ð":{"ha":1064,"x_min":19,"x_max":1013,"o":"m 110 596 l 110 935 q 121 961 110 950 q 147 972 132 972 l 547 972 q 729 947 644 972 q 877 874 814 922 q 976 755 940 826 q 1013 590 1013 683 l 1013 383 q 977 213 1013 285 q 880 93 942 140 q 733 23 818 46 q 549 0 649 0 l 147 0 q 121 11 132 0 q 110 38 110 22 l 110 381 l 57 381 q 31 392 42 381 q 19 418 19 403 l 19 558 q 31 585 19 574 q 57 596 42 596 l 110 596 m 457 596 l 535 596 q 561 585 550 596 q 572 558 572 574 l 572 418 q 561 392 572 403 q 535 381 550 381 l 457 381 l 457 271 l 547 271 q 622 298 593 271 q 651 383 651 325 l 651 590 q 623 675 651 649 q 547 701 594 701 l 457 701 l 457 596 z "},"ð":{"ha":886,"x_min":36,"x_max":844,"o":"m 842 313 q 726 67 832 149 q 439 -14 621 -14 q 274 6 349 -14 q 147 68 200 26 q 65 172 94 110 q 36 319 36 235 q 67 467 36 404 q 153 571 99 529 q 281 633 207 613 q 439 653 354 653 l 458 653 q 417 728 442 690 l 253 664 q 238 660 242 660 q 217 668 225 660 q 208 689 208 676 l 208 728 q 239 774 208 763 l 342 814 q 282 867 314 842 q 217 915 250 892 q 199 942 199 928 q 208 963 199 954 q 229 972 217 972 l 490 972 q 535 967 518 972 q 564 954 553 961 q 587 936 575 944 q 610 918 599 928 l 735 967 q 750 971 744 971 q 771 963 763 971 q 779 942 779 954 l 779 903 q 749 857 779 868 l 692 835 q 796 649 757 754 q 842 400 835 543 q 842 313 844 356 m 376 283 q 389 228 378 249 q 439 208 400 208 q 488 228 475 208 q 501 282 500 249 q 503 319 503 303 q 501 356 503 335 q 488 410 499 389 q 439 431 478 431 q 390 410 400 431 q 376 356 379 389 q 375 319 375 335 q 376 283 375 304 z "},"Þ":{"ha":979,"x_min":76,"x_max":953,"o":"m 400 972 q 426 961 415 972 q 438 935 438 950 l 438 835 l 528 835 q 703 814 625 835 q 838 751 782 793 q 923 644 893 708 q 953 494 953 581 q 923 346 953 408 q 838 243 893 283 q 703 184 782 203 q 528 165 625 165 l 438 165 l 438 38 q 426 11 438 22 q 400 0 415 0 l 114 0 q 88 11 99 0 q 76 38 76 22 l 76 935 q 88 961 76 950 q 114 972 99 972 l 400 972 m 431 422 l 528 422 q 571 440 550 422 q 592 497 592 457 q 578 550 592 524 q 528 576 565 576 l 431 576 l 431 422 z "},"Ŋ":{"ha":1028,"x_min":76,"x_max":951,"o":"m 439 -68 q 450 -42 439 -53 q 476 -31 461 -31 l 532 -31 q 601 -8 576 -31 q 625 50 625 14 l 403 386 l 403 38 q 392 11 403 22 q 365 0 381 0 l 114 0 q 88 11 99 0 q 76 38 76 22 l 76 935 q 88 961 76 950 q 114 972 99 972 l 333 972 q 374 960 361 972 q 390 940 386 947 l 625 556 l 625 935 q 636 961 625 950 q 663 972 647 972 l 914 972 q 940 961 929 972 q 951 935 951 950 l 951 36 q 916 -119 951 -53 q 819 -228 881 -185 q 676 -292 758 -271 q 499 -312 593 -312 l 476 -312 q 450 -301 461 -312 q 439 -275 439 -290 l 439 -68 l 439 -68 z "}}}
